<?xml version="1.0" encoding="utf-8" standalone="no"?>
<!DOCTYPE svg PUBLIC "-//W3C//DTD SVG 1.1//EN"
  "http://www.w3.org/Graphics/SVG/1.1/DTD/svg11.dtd">
<svg xmlns:xlink="http://www.w3.org/1999/xlink" width="432pt" height="288pt" viewBox="0 0 432 288" xmlns="http://www.w3.org/2000/svg" version="1.1">
 <metadata>
  <rdf:RDF xmlns:dc="http://purl.org/dc/elements/1.1/" xmlns:cc="http://creativecommons.org/ns#" xmlns:rdf="http://www.w3.org/1999/02/22-rdf-syntax-ns#">
   <cc:Work>
    <dc:type rdf:resource="http://purl.org/dc/dcmitype/StillImage"/>
    <dc:date>2022-10-25T15:13:57.193439</dc:date>
    <dc:format>image/svg+xml</dc:format>
    <dc:creator>
     <cc:Agent>
      <dc:title>Matplotlib v3.5.1, https://matplotlib.org/</dc:title>
     </cc:Agent>
    </dc:creator>
   </cc:Work>
  </rdf:RDF>
 </metadata>
 <defs>
  <style type="text/css">*{stroke-linejoin: round; stroke-linecap: butt}</style>
 </defs>
 <g id="figure_1">
  <g id="patch_1">
   <path d="M 0 288 
L 432 288 
L 432 0 
L 0 0 
L 0 288 
z
" style="fill: none"/>
  </g>
  <g id="axes_1">
   <g id="patch_2">
    <path d="M 54 252 
L 388.8 252 
L 388.8 34.56 
L 54 34.56 
z
" style="fill: #ffffff"/>
   </g>
   <g id="matplotlib.axis_1">
    <g id="xtick_1">
     <g id="line2d_1">
      <defs>
       <path id="ma01f905e6c" d="M 0 0 
L 0 3.5 
" style="stroke: #000000; stroke-width: 0.8"/>
      </defs>
      <g>
       <use xlink:href="#ma01f905e6c" x="87.48" y="252" style="stroke: #000000; stroke-width: 0.8"/>
      </g>
     </g>
     <g id="text_1">
      <!-- −0.4 -->
      <g transform="translate(75.338594 266.598437)scale(0.1 -0.1)">
       <defs>
        <path id="DejaVuSans-2212" d="M 678 2272 
L 4684 2272 
L 4684 1741 
L 678 1741 
L 678 2272 
z
" transform="scale(0.015625)"/>
        <path id="DejaVuSans-30" d="M 2034 4250 
Q 1547 4250 1301 3770 
Q 1056 3291 1056 2328 
Q 1056 1369 1301 889 
Q 1547 409 2034 409 
Q 2525 409 2770 889 
Q 3016 1369 3016 2328 
Q 3016 3291 2770 3770 
Q 2525 4250 2034 4250 
z
M 2034 4750 
Q 2819 4750 3233 4129 
Q 3647 3509 3647 2328 
Q 3647 1150 3233 529 
Q 2819 -91 2034 -91 
Q 1250 -91 836 529 
Q 422 1150 422 2328 
Q 422 3509 836 4129 
Q 1250 4750 2034 4750 
z
" transform="scale(0.015625)"/>
        <path id="DejaVuSans-2e" d="M 684 794 
L 1344 794 
L 1344 0 
L 684 0 
L 684 794 
z
" transform="scale(0.015625)"/>
        <path id="DejaVuSans-34" d="M 2419 4116 
L 825 1625 
L 2419 1625 
L 2419 4116 
z
M 2253 4666 
L 3047 4666 
L 3047 1625 
L 3713 1625 
L 3713 1100 
L 3047 1100 
L 3047 0 
L 2419 0 
L 2419 1100 
L 313 1100 
L 313 1709 
L 2253 4666 
z
" transform="scale(0.015625)"/>
       </defs>
       <use xlink:href="#DejaVuSans-2212"/>
       <use xlink:href="#DejaVuSans-30" x="83.789062"/>
       <use xlink:href="#DejaVuSans-2e" x="147.412109"/>
       <use xlink:href="#DejaVuSans-34" x="179.199219"/>
      </g>
     </g>
    </g>
    <g id="xtick_2">
     <g id="line2d_2">
      <g>
       <use xlink:href="#ma01f905e6c" x="154.44" y="252" style="stroke: #000000; stroke-width: 0.8"/>
      </g>
     </g>
     <g id="text_2">
      <!-- −0.2 -->
      <g transform="translate(142.298594 266.598437)scale(0.1 -0.1)">
       <defs>
        <path id="DejaVuSans-32" d="M 1228 531 
L 3431 531 
L 3431 0 
L 469 0 
L 469 531 
Q 828 903 1448 1529 
Q 2069 2156 2228 2338 
Q 2531 2678 2651 2914 
Q 2772 3150 2772 3378 
Q 2772 3750 2511 3984 
Q 2250 4219 1831 4219 
Q 1534 4219 1204 4116 
Q 875 4013 500 3803 
L 500 4441 
Q 881 4594 1212 4672 
Q 1544 4750 1819 4750 
Q 2544 4750 2975 4387 
Q 3406 4025 3406 3419 
Q 3406 3131 3298 2873 
Q 3191 2616 2906 2266 
Q 2828 2175 2409 1742 
Q 1991 1309 1228 531 
z
" transform="scale(0.015625)"/>
       </defs>
       <use xlink:href="#DejaVuSans-2212"/>
       <use xlink:href="#DejaVuSans-30" x="83.789062"/>
       <use xlink:href="#DejaVuSans-2e" x="147.412109"/>
       <use xlink:href="#DejaVuSans-32" x="179.199219"/>
      </g>
     </g>
    </g>
    <g id="xtick_3">
     <g id="line2d_3">
      <g>
       <use xlink:href="#ma01f905e6c" x="221.4" y="252" style="stroke: #000000; stroke-width: 0.8"/>
      </g>
     </g>
     <g id="text_3">
      <!-- 0.0 -->
      <g transform="translate(213.448438 266.598437)scale(0.1 -0.1)">
       <use xlink:href="#DejaVuSans-30"/>
       <use xlink:href="#DejaVuSans-2e" x="63.623047"/>
       <use xlink:href="#DejaVuSans-30" x="95.410156"/>
      </g>
     </g>
    </g>
    <g id="xtick_4">
     <g id="line2d_4">
      <g>
       <use xlink:href="#ma01f905e6c" x="288.36" y="252" style="stroke: #000000; stroke-width: 0.8"/>
      </g>
     </g>
     <g id="text_4">
      <!-- 0.2 -->
      <g transform="translate(280.408437 266.598437)scale(0.1 -0.1)">
       <use xlink:href="#DejaVuSans-30"/>
       <use xlink:href="#DejaVuSans-2e" x="63.623047"/>
       <use xlink:href="#DejaVuSans-32" x="95.410156"/>
      </g>
     </g>
    </g>
    <g id="xtick_5">
     <g id="line2d_5">
      <g>
       <use xlink:href="#ma01f905e6c" x="355.32" y="252" style="stroke: #000000; stroke-width: 0.8"/>
      </g>
     </g>
     <g id="text_5">
      <!-- 0.4 -->
      <g transform="translate(347.368437 266.598437)scale(0.1 -0.1)">
       <use xlink:href="#DejaVuSans-30"/>
       <use xlink:href="#DejaVuSans-2e" x="63.623047"/>
       <use xlink:href="#DejaVuSans-34" x="95.410156"/>
      </g>
     </g>
    </g>
    <g id="text_6">
     <!-- Frecuencia Normalizada [ciclos por muestra] -->
     <g transform="translate(109.807031 280.276563)scale(0.1 -0.1)">
      <defs>
       <path id="DejaVuSans-46" d="M 628 4666 
L 3309 4666 
L 3309 4134 
L 1259 4134 
L 1259 2759 
L 3109 2759 
L 3109 2228 
L 1259 2228 
L 1259 0 
L 628 0 
L 628 4666 
z
" transform="scale(0.015625)"/>
       <path id="DejaVuSans-72" d="M 2631 2963 
Q 2534 3019 2420 3045 
Q 2306 3072 2169 3072 
Q 1681 3072 1420 2755 
Q 1159 2438 1159 1844 
L 1159 0 
L 581 0 
L 581 3500 
L 1159 3500 
L 1159 2956 
Q 1341 3275 1631 3429 
Q 1922 3584 2338 3584 
Q 2397 3584 2469 3576 
Q 2541 3569 2628 3553 
L 2631 2963 
z
" transform="scale(0.015625)"/>
       <path id="DejaVuSans-65" d="M 3597 1894 
L 3597 1613 
L 953 1613 
Q 991 1019 1311 708 
Q 1631 397 2203 397 
Q 2534 397 2845 478 
Q 3156 559 3463 722 
L 3463 178 
Q 3153 47 2828 -22 
Q 2503 -91 2169 -91 
Q 1331 -91 842 396 
Q 353 884 353 1716 
Q 353 2575 817 3079 
Q 1281 3584 2069 3584 
Q 2775 3584 3186 3129 
Q 3597 2675 3597 1894 
z
M 3022 2063 
Q 3016 2534 2758 2815 
Q 2500 3097 2075 3097 
Q 1594 3097 1305 2825 
Q 1016 2553 972 2059 
L 3022 2063 
z
" transform="scale(0.015625)"/>
       <path id="DejaVuSans-63" d="M 3122 3366 
L 3122 2828 
Q 2878 2963 2633 3030 
Q 2388 3097 2138 3097 
Q 1578 3097 1268 2742 
Q 959 2388 959 1747 
Q 959 1106 1268 751 
Q 1578 397 2138 397 
Q 2388 397 2633 464 
Q 2878 531 3122 666 
L 3122 134 
Q 2881 22 2623 -34 
Q 2366 -91 2075 -91 
Q 1284 -91 818 406 
Q 353 903 353 1747 
Q 353 2603 823 3093 
Q 1294 3584 2113 3584 
Q 2378 3584 2631 3529 
Q 2884 3475 3122 3366 
z
" transform="scale(0.015625)"/>
       <path id="DejaVuSans-75" d="M 544 1381 
L 544 3500 
L 1119 3500 
L 1119 1403 
Q 1119 906 1312 657 
Q 1506 409 1894 409 
Q 2359 409 2629 706 
Q 2900 1003 2900 1516 
L 2900 3500 
L 3475 3500 
L 3475 0 
L 2900 0 
L 2900 538 
Q 2691 219 2414 64 
Q 2138 -91 1772 -91 
Q 1169 -91 856 284 
Q 544 659 544 1381 
z
M 1991 3584 
L 1991 3584 
z
" transform="scale(0.015625)"/>
       <path id="DejaVuSans-6e" d="M 3513 2113 
L 3513 0 
L 2938 0 
L 2938 2094 
Q 2938 2591 2744 2837 
Q 2550 3084 2163 3084 
Q 1697 3084 1428 2787 
Q 1159 2491 1159 1978 
L 1159 0 
L 581 0 
L 581 3500 
L 1159 3500 
L 1159 2956 
Q 1366 3272 1645 3428 
Q 1925 3584 2291 3584 
Q 2894 3584 3203 3211 
Q 3513 2838 3513 2113 
z
" transform="scale(0.015625)"/>
       <path id="DejaVuSans-69" d="M 603 3500 
L 1178 3500 
L 1178 0 
L 603 0 
L 603 3500 
z
M 603 4863 
L 1178 4863 
L 1178 4134 
L 603 4134 
L 603 4863 
z
" transform="scale(0.015625)"/>
       <path id="DejaVuSans-61" d="M 2194 1759 
Q 1497 1759 1228 1600 
Q 959 1441 959 1056 
Q 959 750 1161 570 
Q 1363 391 1709 391 
Q 2188 391 2477 730 
Q 2766 1069 2766 1631 
L 2766 1759 
L 2194 1759 
z
M 3341 1997 
L 3341 0 
L 2766 0 
L 2766 531 
Q 2569 213 2275 61 
Q 1981 -91 1556 -91 
Q 1019 -91 701 211 
Q 384 513 384 1019 
Q 384 1609 779 1909 
Q 1175 2209 1959 2209 
L 2766 2209 
L 2766 2266 
Q 2766 2663 2505 2880 
Q 2244 3097 1772 3097 
Q 1472 3097 1187 3025 
Q 903 2953 641 2809 
L 641 3341 
Q 956 3463 1253 3523 
Q 1550 3584 1831 3584 
Q 2591 3584 2966 3190 
Q 3341 2797 3341 1997 
z
" transform="scale(0.015625)"/>
       <path id="DejaVuSans-20" transform="scale(0.015625)"/>
       <path id="DejaVuSans-4e" d="M 628 4666 
L 1478 4666 
L 3547 763 
L 3547 4666 
L 4159 4666 
L 4159 0 
L 3309 0 
L 1241 3903 
L 1241 0 
L 628 0 
L 628 4666 
z
" transform="scale(0.015625)"/>
       <path id="DejaVuSans-6f" d="M 1959 3097 
Q 1497 3097 1228 2736 
Q 959 2375 959 1747 
Q 959 1119 1226 758 
Q 1494 397 1959 397 
Q 2419 397 2687 759 
Q 2956 1122 2956 1747 
Q 2956 2369 2687 2733 
Q 2419 3097 1959 3097 
z
M 1959 3584 
Q 2709 3584 3137 3096 
Q 3566 2609 3566 1747 
Q 3566 888 3137 398 
Q 2709 -91 1959 -91 
Q 1206 -91 779 398 
Q 353 888 353 1747 
Q 353 2609 779 3096 
Q 1206 3584 1959 3584 
z
" transform="scale(0.015625)"/>
       <path id="DejaVuSans-6d" d="M 3328 2828 
Q 3544 3216 3844 3400 
Q 4144 3584 4550 3584 
Q 5097 3584 5394 3201 
Q 5691 2819 5691 2113 
L 5691 0 
L 5113 0 
L 5113 2094 
Q 5113 2597 4934 2840 
Q 4756 3084 4391 3084 
Q 3944 3084 3684 2787 
Q 3425 2491 3425 1978 
L 3425 0 
L 2847 0 
L 2847 2094 
Q 2847 2600 2669 2842 
Q 2491 3084 2119 3084 
Q 1678 3084 1418 2786 
Q 1159 2488 1159 1978 
L 1159 0 
L 581 0 
L 581 3500 
L 1159 3500 
L 1159 2956 
Q 1356 3278 1631 3431 
Q 1906 3584 2284 3584 
Q 2666 3584 2933 3390 
Q 3200 3197 3328 2828 
z
" transform="scale(0.015625)"/>
       <path id="DejaVuSans-6c" d="M 603 4863 
L 1178 4863 
L 1178 0 
L 603 0 
L 603 4863 
z
" transform="scale(0.015625)"/>
       <path id="DejaVuSans-7a" d="M 353 3500 
L 3084 3500 
L 3084 2975 
L 922 459 
L 3084 459 
L 3084 0 
L 275 0 
L 275 525 
L 2438 3041 
L 353 3041 
L 353 3500 
z
" transform="scale(0.015625)"/>
       <path id="DejaVuSans-64" d="M 2906 2969 
L 2906 4863 
L 3481 4863 
L 3481 0 
L 2906 0 
L 2906 525 
Q 2725 213 2448 61 
Q 2172 -91 1784 -91 
Q 1150 -91 751 415 
Q 353 922 353 1747 
Q 353 2572 751 3078 
Q 1150 3584 1784 3584 
Q 2172 3584 2448 3432 
Q 2725 3281 2906 2969 
z
M 947 1747 
Q 947 1113 1208 752 
Q 1469 391 1925 391 
Q 2381 391 2643 752 
Q 2906 1113 2906 1747 
Q 2906 2381 2643 2742 
Q 2381 3103 1925 3103 
Q 1469 3103 1208 2742 
Q 947 2381 947 1747 
z
" transform="scale(0.015625)"/>
       <path id="DejaVuSans-5b" d="M 550 4863 
L 1875 4863 
L 1875 4416 
L 1125 4416 
L 1125 -397 
L 1875 -397 
L 1875 -844 
L 550 -844 
L 550 4863 
z
" transform="scale(0.015625)"/>
       <path id="DejaVuSans-73" d="M 2834 3397 
L 2834 2853 
Q 2591 2978 2328 3040 
Q 2066 3103 1784 3103 
Q 1356 3103 1142 2972 
Q 928 2841 928 2578 
Q 928 2378 1081 2264 
Q 1234 2150 1697 2047 
L 1894 2003 
Q 2506 1872 2764 1633 
Q 3022 1394 3022 966 
Q 3022 478 2636 193 
Q 2250 -91 1575 -91 
Q 1294 -91 989 -36 
Q 684 19 347 128 
L 347 722 
Q 666 556 975 473 
Q 1284 391 1588 391 
Q 1994 391 2212 530 
Q 2431 669 2431 922 
Q 2431 1156 2273 1281 
Q 2116 1406 1581 1522 
L 1381 1569 
Q 847 1681 609 1914 
Q 372 2147 372 2553 
Q 372 3047 722 3315 
Q 1072 3584 1716 3584 
Q 2034 3584 2315 3537 
Q 2597 3491 2834 3397 
z
" transform="scale(0.015625)"/>
       <path id="DejaVuSans-70" d="M 1159 525 
L 1159 -1331 
L 581 -1331 
L 581 3500 
L 1159 3500 
L 1159 2969 
Q 1341 3281 1617 3432 
Q 1894 3584 2278 3584 
Q 2916 3584 3314 3078 
Q 3713 2572 3713 1747 
Q 3713 922 3314 415 
Q 2916 -91 2278 -91 
Q 1894 -91 1617 61 
Q 1341 213 1159 525 
z
M 3116 1747 
Q 3116 2381 2855 2742 
Q 2594 3103 2138 3103 
Q 1681 3103 1420 2742 
Q 1159 2381 1159 1747 
Q 1159 1113 1420 752 
Q 1681 391 2138 391 
Q 2594 391 2855 752 
Q 3116 1113 3116 1747 
z
" transform="scale(0.015625)"/>
       <path id="DejaVuSans-74" d="M 1172 4494 
L 1172 3500 
L 2356 3500 
L 2356 3053 
L 1172 3053 
L 1172 1153 
Q 1172 725 1289 603 
Q 1406 481 1766 481 
L 2356 481 
L 2356 0 
L 1766 0 
Q 1100 0 847 248 
Q 594 497 594 1153 
L 594 3053 
L 172 3053 
L 172 3500 
L 594 3500 
L 594 4494 
L 1172 4494 
z
" transform="scale(0.015625)"/>
       <path id="DejaVuSans-5d" d="M 1947 4863 
L 1947 -844 
L 622 -844 
L 622 -397 
L 1369 -397 
L 1369 4416 
L 622 4416 
L 622 4863 
L 1947 4863 
z
" transform="scale(0.015625)"/>
      </defs>
      <use xlink:href="#DejaVuSans-46"/>
      <use xlink:href="#DejaVuSans-72" x="50.269531"/>
      <use xlink:href="#DejaVuSans-65" x="89.132812"/>
      <use xlink:href="#DejaVuSans-63" x="150.65625"/>
      <use xlink:href="#DejaVuSans-75" x="205.636719"/>
      <use xlink:href="#DejaVuSans-65" x="269.015625"/>
      <use xlink:href="#DejaVuSans-6e" x="330.539062"/>
      <use xlink:href="#DejaVuSans-63" x="393.917969"/>
      <use xlink:href="#DejaVuSans-69" x="448.898438"/>
      <use xlink:href="#DejaVuSans-61" x="476.681641"/>
      <use xlink:href="#DejaVuSans-20" x="537.960938"/>
      <use xlink:href="#DejaVuSans-4e" x="569.748047"/>
      <use xlink:href="#DejaVuSans-6f" x="644.552734"/>
      <use xlink:href="#DejaVuSans-72" x="705.734375"/>
      <use xlink:href="#DejaVuSans-6d" x="745.097656"/>
      <use xlink:href="#DejaVuSans-61" x="842.509766"/>
      <use xlink:href="#DejaVuSans-6c" x="903.789062"/>
      <use xlink:href="#DejaVuSans-69" x="931.572266"/>
      <use xlink:href="#DejaVuSans-7a" x="959.355469"/>
      <use xlink:href="#DejaVuSans-61" x="1011.845703"/>
      <use xlink:href="#DejaVuSans-64" x="1073.125"/>
      <use xlink:href="#DejaVuSans-61" x="1136.601562"/>
      <use xlink:href="#DejaVuSans-20" x="1197.880859"/>
      <use xlink:href="#DejaVuSans-5b" x="1229.667969"/>
      <use xlink:href="#DejaVuSans-63" x="1268.681641"/>
      <use xlink:href="#DejaVuSans-69" x="1323.662109"/>
      <use xlink:href="#DejaVuSans-63" x="1351.445312"/>
      <use xlink:href="#DejaVuSans-6c" x="1406.425781"/>
      <use xlink:href="#DejaVuSans-6f" x="1434.208984"/>
      <use xlink:href="#DejaVuSans-73" x="1495.390625"/>
      <use xlink:href="#DejaVuSans-20" x="1547.490234"/>
      <use xlink:href="#DejaVuSans-70" x="1579.277344"/>
      <use xlink:href="#DejaVuSans-6f" x="1642.753906"/>
      <use xlink:href="#DejaVuSans-72" x="1703.935547"/>
      <use xlink:href="#DejaVuSans-20" x="1745.048828"/>
      <use xlink:href="#DejaVuSans-6d" x="1776.835938"/>
      <use xlink:href="#DejaVuSans-75" x="1874.248047"/>
      <use xlink:href="#DejaVuSans-65" x="1937.626953"/>
      <use xlink:href="#DejaVuSans-73" x="1999.150391"/>
      <use xlink:href="#DejaVuSans-74" x="2051.25"/>
      <use xlink:href="#DejaVuSans-72" x="2090.458984"/>
      <use xlink:href="#DejaVuSans-61" x="2131.572266"/>
      <use xlink:href="#DejaVuSans-5d" x="2192.851562"/>
     </g>
    </g>
   </g>
   <g id="matplotlib.axis_2">
    <g id="ytick_1">
     <g id="line2d_6">
      <defs>
       <path id="m36c9afe2a7" d="M 0 0 
L -3.5 0 
" style="stroke: #000000; stroke-width: 0.8"/>
      </defs>
      <g>
       <use xlink:href="#m36c9afe2a7" x="54" y="252" style="stroke: #000000; stroke-width: 0.8"/>
      </g>
     </g>
     <g id="text_7">
      <!-- −120 -->
      <g transform="translate(19.532812 255.799219)scale(0.1 -0.1)">
       <defs>
        <path id="DejaVuSans-31" d="M 794 531 
L 1825 531 
L 1825 4091 
L 703 3866 
L 703 4441 
L 1819 4666 
L 2450 4666 
L 2450 531 
L 3481 531 
L 3481 0 
L 794 0 
L 794 531 
z
" transform="scale(0.015625)"/>
       </defs>
       <use xlink:href="#DejaVuSans-2212"/>
       <use xlink:href="#DejaVuSans-31" x="83.789062"/>
       <use xlink:href="#DejaVuSans-32" x="147.412109"/>
       <use xlink:href="#DejaVuSans-30" x="211.035156"/>
      </g>
     </g>
    </g>
    <g id="ytick_2">
     <g id="line2d_7">
      <g>
       <use xlink:href="#m36c9afe2a7" x="54" y="215.76" style="stroke: #000000; stroke-width: 0.8"/>
      </g>
     </g>
     <g id="text_8">
      <!-- −100 -->
      <g transform="translate(19.532812 219.559219)scale(0.1 -0.1)">
       <use xlink:href="#DejaVuSans-2212"/>
       <use xlink:href="#DejaVuSans-31" x="83.789062"/>
       <use xlink:href="#DejaVuSans-30" x="147.412109"/>
       <use xlink:href="#DejaVuSans-30" x="211.035156"/>
      </g>
     </g>
    </g>
    <g id="ytick_3">
     <g id="line2d_8">
      <g>
       <use xlink:href="#m36c9afe2a7" x="54" y="179.52" style="stroke: #000000; stroke-width: 0.8"/>
      </g>
     </g>
     <g id="text_9">
      <!-- −80 -->
      <g transform="translate(25.895312 183.319219)scale(0.1 -0.1)">
       <defs>
        <path id="DejaVuSans-38" d="M 2034 2216 
Q 1584 2216 1326 1975 
Q 1069 1734 1069 1313 
Q 1069 891 1326 650 
Q 1584 409 2034 409 
Q 2484 409 2743 651 
Q 3003 894 3003 1313 
Q 3003 1734 2745 1975 
Q 2488 2216 2034 2216 
z
M 1403 2484 
Q 997 2584 770 2862 
Q 544 3141 544 3541 
Q 544 4100 942 4425 
Q 1341 4750 2034 4750 
Q 2731 4750 3128 4425 
Q 3525 4100 3525 3541 
Q 3525 3141 3298 2862 
Q 3072 2584 2669 2484 
Q 3125 2378 3379 2068 
Q 3634 1759 3634 1313 
Q 3634 634 3220 271 
Q 2806 -91 2034 -91 
Q 1263 -91 848 271 
Q 434 634 434 1313 
Q 434 1759 690 2068 
Q 947 2378 1403 2484 
z
M 1172 3481 
Q 1172 3119 1398 2916 
Q 1625 2713 2034 2713 
Q 2441 2713 2670 2916 
Q 2900 3119 2900 3481 
Q 2900 3844 2670 4047 
Q 2441 4250 2034 4250 
Q 1625 4250 1398 4047 
Q 1172 3844 1172 3481 
z
" transform="scale(0.015625)"/>
       </defs>
       <use xlink:href="#DejaVuSans-2212"/>
       <use xlink:href="#DejaVuSans-38" x="83.789062"/>
       <use xlink:href="#DejaVuSans-30" x="147.412109"/>
      </g>
     </g>
    </g>
    <g id="ytick_4">
     <g id="line2d_9">
      <g>
       <use xlink:href="#m36c9afe2a7" x="54" y="143.28" style="stroke: #000000; stroke-width: 0.8"/>
      </g>
     </g>
     <g id="text_10">
      <!-- −60 -->
      <g transform="translate(25.895312 147.079219)scale(0.1 -0.1)">
       <defs>
        <path id="DejaVuSans-36" d="M 2113 2584 
Q 1688 2584 1439 2293 
Q 1191 2003 1191 1497 
Q 1191 994 1439 701 
Q 1688 409 2113 409 
Q 2538 409 2786 701 
Q 3034 994 3034 1497 
Q 3034 2003 2786 2293 
Q 2538 2584 2113 2584 
z
M 3366 4563 
L 3366 3988 
Q 3128 4100 2886 4159 
Q 2644 4219 2406 4219 
Q 1781 4219 1451 3797 
Q 1122 3375 1075 2522 
Q 1259 2794 1537 2939 
Q 1816 3084 2150 3084 
Q 2853 3084 3261 2657 
Q 3669 2231 3669 1497 
Q 3669 778 3244 343 
Q 2819 -91 2113 -91 
Q 1303 -91 875 529 
Q 447 1150 447 2328 
Q 447 3434 972 4092 
Q 1497 4750 2381 4750 
Q 2619 4750 2861 4703 
Q 3103 4656 3366 4563 
z
" transform="scale(0.015625)"/>
       </defs>
       <use xlink:href="#DejaVuSans-2212"/>
       <use xlink:href="#DejaVuSans-36" x="83.789062"/>
       <use xlink:href="#DejaVuSans-30" x="147.412109"/>
      </g>
     </g>
    </g>
    <g id="ytick_5">
     <g id="line2d_10">
      <g>
       <use xlink:href="#m36c9afe2a7" x="54" y="107.04" style="stroke: #000000; stroke-width: 0.8"/>
      </g>
     </g>
     <g id="text_11">
      <!-- −40 -->
      <g transform="translate(25.895312 110.839219)scale(0.1 -0.1)">
       <use xlink:href="#DejaVuSans-2212"/>
       <use xlink:href="#DejaVuSans-34" x="83.789062"/>
       <use xlink:href="#DejaVuSans-30" x="147.412109"/>
      </g>
     </g>
    </g>
    <g id="ytick_6">
     <g id="line2d_11">
      <g>
       <use xlink:href="#m36c9afe2a7" x="54" y="70.8" style="stroke: #000000; stroke-width: 0.8"/>
      </g>
     </g>
     <g id="text_12">
      <!-- −20 -->
      <g transform="translate(25.895312 74.599219)scale(0.1 -0.1)">
       <use xlink:href="#DejaVuSans-2212"/>
       <use xlink:href="#DejaVuSans-32" x="83.789062"/>
       <use xlink:href="#DejaVuSans-30" x="147.412109"/>
      </g>
     </g>
    </g>
    <g id="ytick_7">
     <g id="line2d_12">
      <g>
       <use xlink:href="#m36c9afe2a7" x="54" y="34.56" style="stroke: #000000; stroke-width: 0.8"/>
      </g>
     </g>
     <g id="text_13">
      <!-- 0 -->
      <g transform="translate(40.6375 38.359219)scale(0.1 -0.1)">
       <use xlink:href="#DejaVuSans-30"/>
      </g>
     </g>
    </g>
    <g id="text_14">
     <!-- Magnitud Normalizada [dB] -->
     <g transform="translate(13.453125 211.784688)rotate(-90)scale(0.1 -0.1)">
      <defs>
       <path id="DejaVuSans-4d" d="M 628 4666 
L 1569 4666 
L 2759 1491 
L 3956 4666 
L 4897 4666 
L 4897 0 
L 4281 0 
L 4281 4097 
L 3078 897 
L 2444 897 
L 1241 4097 
L 1241 0 
L 628 0 
L 628 4666 
z
" transform="scale(0.015625)"/>
       <path id="DejaVuSans-67" d="M 2906 1791 
Q 2906 2416 2648 2759 
Q 2391 3103 1925 3103 
Q 1463 3103 1205 2759 
Q 947 2416 947 1791 
Q 947 1169 1205 825 
Q 1463 481 1925 481 
Q 2391 481 2648 825 
Q 2906 1169 2906 1791 
z
M 3481 434 
Q 3481 -459 3084 -895 
Q 2688 -1331 1869 -1331 
Q 1566 -1331 1297 -1286 
Q 1028 -1241 775 -1147 
L 775 -588 
Q 1028 -725 1275 -790 
Q 1522 -856 1778 -856 
Q 2344 -856 2625 -561 
Q 2906 -266 2906 331 
L 2906 616 
Q 2728 306 2450 153 
Q 2172 0 1784 0 
Q 1141 0 747 490 
Q 353 981 353 1791 
Q 353 2603 747 3093 
Q 1141 3584 1784 3584 
Q 2172 3584 2450 3431 
Q 2728 3278 2906 2969 
L 2906 3500 
L 3481 3500 
L 3481 434 
z
" transform="scale(0.015625)"/>
       <path id="DejaVuSans-42" d="M 1259 2228 
L 1259 519 
L 2272 519 
Q 2781 519 3026 730 
Q 3272 941 3272 1375 
Q 3272 1813 3026 2020 
Q 2781 2228 2272 2228 
L 1259 2228 
z
M 1259 4147 
L 1259 2741 
L 2194 2741 
Q 2656 2741 2882 2914 
Q 3109 3088 3109 3444 
Q 3109 3797 2882 3972 
Q 2656 4147 2194 4147 
L 1259 4147 
z
M 628 4666 
L 2241 4666 
Q 2963 4666 3353 4366 
Q 3744 4066 3744 3513 
Q 3744 3084 3544 2831 
Q 3344 2578 2956 2516 
Q 3422 2416 3680 2098 
Q 3938 1781 3938 1306 
Q 3938 681 3513 340 
Q 3088 0 2303 0 
L 628 0 
L 628 4666 
z
" transform="scale(0.015625)"/>
      </defs>
      <use xlink:href="#DejaVuSans-4d"/>
      <use xlink:href="#DejaVuSans-61" x="86.279297"/>
      <use xlink:href="#DejaVuSans-67" x="147.558594"/>
      <use xlink:href="#DejaVuSans-6e" x="211.035156"/>
      <use xlink:href="#DejaVuSans-69" x="274.414062"/>
      <use xlink:href="#DejaVuSans-74" x="302.197266"/>
      <use xlink:href="#DejaVuSans-75" x="341.40625"/>
      <use xlink:href="#DejaVuSans-64" x="404.785156"/>
      <use xlink:href="#DejaVuSans-20" x="468.261719"/>
      <use xlink:href="#DejaVuSans-4e" x="500.048828"/>
      <use xlink:href="#DejaVuSans-6f" x="574.853516"/>
      <use xlink:href="#DejaVuSans-72" x="636.035156"/>
      <use xlink:href="#DejaVuSans-6d" x="675.398438"/>
      <use xlink:href="#DejaVuSans-61" x="772.810547"/>
      <use xlink:href="#DejaVuSans-6c" x="834.089844"/>
      <use xlink:href="#DejaVuSans-69" x="861.873047"/>
      <use xlink:href="#DejaVuSans-7a" x="889.65625"/>
      <use xlink:href="#DejaVuSans-61" x="942.146484"/>
      <use xlink:href="#DejaVuSans-64" x="1003.425781"/>
      <use xlink:href="#DejaVuSans-61" x="1066.902344"/>
      <use xlink:href="#DejaVuSans-20" x="1128.181641"/>
      <use xlink:href="#DejaVuSans-5b" x="1159.96875"/>
      <use xlink:href="#DejaVuSans-64" x="1198.982422"/>
      <use xlink:href="#DejaVuSans-42" x="1262.458984"/>
      <use xlink:href="#DejaVuSans-5d" x="1331.0625"/>
     </g>
    </g>
   </g>
   <g id="line2d_13">
    <path d="M 54.815009 289 
L 55.144895 278.666572 
L 55.635564 268.247827 
L 56.28979 259.227314 
L 56.944016 253.522516 
L 57.434685 250.816724 
L 57.925354 249.2767 
L 58.252467 248.886203 
L 58.416023 248.890682 
L 58.57958 249.037121 
L 58.906693 249.800018 
L 59.233806 251.3089 
L 59.560918 253.819578 
L 59.888031 257.871782 
L 60.215144 264.892207 
L 60.378701 270.891769 
L 60.566395 289 
M 60.839743 289 
L 60.86937 279.644981 
L 61.196483 262.148542 
L 61.687152 250.715849 
L 62.177821 244.095907 
L 62.832047 238.533744 
L 63.322716 235.882335 
L 63.813385 234.223259 
L 64.140498 233.613593 
L 64.467611 233.392426 
L 64.794724 233.572947 
L 65.121837 234.189479 
L 65.44895 235.30544 
L 65.776063 237.03068 
L 66.266732 241.231795 
L 66.593845 245.800651 
L 66.920957 253.349602 
L 67.084514 259.667611 
L 67.24807 270.999511 
L 67.325089 289 
M 67.492026 289 
L 67.575183 268.080882 
L 67.902296 251.32452 
L 68.392965 240.47755 
L 68.883635 234.330085 
L 69.374304 230.325826 
L 69.864973 227.672501 
L 70.355642 226.04187 
L 70.682755 225.449586 
L 71.009868 225.23512 
L 71.336981 225.403611 
L 71.664094 225.979354 
L 71.991207 227.011038 
L 72.481876 229.615411 
L 72.972545 234.066052 
L 73.299658 238.8117 
L 73.626771 246.582644 
L 73.790327 253.079426 
L 73.953884 264.842704 
L 74.080496 289 
M 74.150124 289 
L 74.280997 260.774309 
L 74.608109 244.504441 
L 75.098779 233.924381 
L 75.589448 227.968337 
L 76.080117 224.129905 
L 76.570787 221.627731 
L 77.061456 220.137814 
L 77.388569 219.634735 
L 77.715681 219.506424 
L 78.042794 219.758525 
L 78.369907 220.41589 
L 78.69702 221.527915 
L 79.187689 224.252874 
L 79.678359 228.831665 
L 80.005471 233.67909 
L 80.332584 241.602532 
L 80.496141 248.247871 
L 80.659697 260.434555 
L 80.823254 286.410078 
L 80.98681 255.139729 
L 81.313923 239.277915 
L 81.804592 228.877075 
L 82.295261 223.032475 
L 82.785931 219.285709 
L 83.2766 216.865653 
L 83.767269 215.452044 
L 84.094382 214.997592 
L 84.421495 214.916615 
L 84.748608 215.215161 
L 85.075721 215.918547 
L 85.402833 217.076793 
L 85.893503 219.873781 
L 86.384172 224.535205 
L 86.711285 229.455895 
L 87.038398 237.505943 
L 87.201954 244.290585 
L 87.365511 256.91565 
L 87.529067 278.627438 
L 87.85618 240.767089 
L 88.183293 230.594945 
L 88.673962 222.358666 
L 89.164631 217.422004 
L 89.6553 214.227658 
L 90.14597 212.216712 
L 90.636639 211.148924 
L 90.963752 210.911287 
L 91.290865 211.047401 
L 91.617978 211.572964 
L 91.94509 212.525137 
L 92.43576 214.912512 
L 92.926429 218.896097 
L 93.253542 222.981253 
L 93.580655 229.217615 
L 93.907767 240.81476 
L 94.23488 271.947606 
L 94.561993 236.691936 
L 94.889106 226.6725 
L 95.379775 218.524913 
L 95.870445 213.639773 
L 96.361114 210.48471 
L 96.851783 208.50745 
L 97.342452 207.470444 
L 97.669565 207.252487 
L 97.996678 207.408038 
L 98.323791 207.95319 
L 98.650904 208.925603 
L 99.141573 211.346331 
L 99.632242 215.372074 
L 99.959355 219.497984 
L 100.286468 225.805019 
L 100.613581 237.607323 
L 100.940694 265.963522 
L 101.267807 232.866467 
L 101.594919 222.98858 
L 102.085589 214.917768 
L 102.576258 210.073266 
L 103.066927 206.947082 
L 103.557596 204.993473 
L 104.048266 203.977543 
L 104.375379 203.772964 
L 104.702491 203.941784 
L 105.029604 204.500484 
L 105.356717 205.487225 
L 105.847386 207.932687 
L 106.338056 211.992331 
L 106.665169 216.153832 
L 106.992281 222.527181 
L 107.319394 234.536025 
L 107.646507 260.426365 
L 107.97362 229.163117 
L 108.300733 219.41827 
L 108.791402 211.415931 
L 109.282071 206.604613 
L 109.772741 203.500172 
L 110.26341 201.563295 
L 110.754079 200.561707 
L 111.081192 200.366111 
L 111.408305 200.543877 
L 111.735418 201.111874 
L 112.062531 202.108767 
L 112.5532 204.57285 
L 113.043869 208.660534 
L 113.370982 212.854005 
L 113.698095 219.290825 
L 114.025208 231.509403 
L 114.35232 255.169003 
L 114.679433 225.49261 
L 115.006546 215.873752 
L 115.497215 207.93351 
L 115.987885 203.149746 
L 116.478554 200.061652 
L 116.969223 198.136252 
L 117.459893 197.143859 
L 117.787005 196.953872 
L 118.114118 197.137252 
L 118.441231 197.711256 
L 118.768344 198.715055 
L 119.259013 201.192994 
L 119.749682 205.304144 
L 120.076795 209.526794 
L 120.403908 216.025072 
L 120.731021 228.457756 
L 121.058134 250.069698 
L 121.385247 221.786126 
L 121.71236 212.287042 
L 122.203029 204.40356 
L 122.693698 199.642693 
L 123.184367 196.566477 
L 123.675037 194.64818 
L 124.165706 193.660676 
L 124.492819 193.473458 
L 124.819932 193.659637 
L 125.147044 194.236861 
L 125.474157 195.244806 
L 125.964827 197.732529 
L 126.455496 201.863233 
L 126.782609 206.112698 
L 127.109722 212.670855 
L 127.436834 225.322837 
L 127.600391 241.326853 
L 127.763947 245.032769 
L 128.09106 217.985529 
L 128.418173 208.600478 
L 128.908842 200.768929 
L 129.399511 196.026769 
L 129.890181 192.958397 
L 130.38085 191.043233 
L 130.871519 190.056689 
L 131.198632 189.869638 
L 131.525745 190.056027 
L 131.852858 190.633893 
L 132.179971 191.643426 
L 132.67064 194.137145 
L 133.161309 198.283749 
L 133.488422 202.557827 
L 133.815535 209.174466 
L 134.142648 222.051539 
L 134.306204 238.810104 
L 134.469761 239.977157 
L 134.796873 214.037299 
L 135.287543 201.652179 
L 135.778212 195.161202 
L 136.268881 191.077179 
L 136.759551 188.433015 
L 137.25022 186.842056 
L 137.577333 186.2791 
L 137.904446 186.089638 
L 138.231558 186.273661 
L 138.558671 186.8496 
L 138.885784 187.858157 
L 139.376453 190.354061 
L 139.867123 194.512873 
L 140.194235 198.809332 
L 140.521348 205.483039 
L 140.848461 218.591449 
L 141.012018 236.18575 
L 141.175574 234.828895 
L 141.502687 209.888196 
L 141.993356 197.627062 
L 142.484025 191.162958 
L 142.974695 187.084683 
L 143.465364 184.43836 
L 143.956033 182.841632 
L 144.283146 182.273848 
L 144.610259 182.079243 
L 144.937372 182.258166 
L 145.264485 182.82944 
L 145.591597 183.834283 
L 146.082267 186.328283 
L 146.572936 190.495316 
L 146.900049 194.811724 
L 147.227162 201.540904 
L 147.554275 214.887223 
L 147.717831 233.414009 
L 147.881387 229.515539 
L 148.2085 205.481681 
L 148.69917 193.337045 
L 149.189839 186.894953 
L 149.680508 182.81785 
L 150.171177 180.16484 
L 150.661847 178.557813 
L 150.988959 177.982168 
L 151.316072 177.779376 
L 151.643185 177.950142 
L 151.970298 178.513683 
L 152.297411 179.511738 
L 152.78808 181.999225 
L 153.278749 186.169958 
L 153.605862 190.503521 
L 153.932975 197.28624 
L 154.260088 210.877256 
L 154.423644 230.453365 
L 154.587201 223.961543 
L 154.914314 200.754585 
L 155.404983 188.718459 
L 155.895652 182.292895 
L 156.386321 178.211744 
L 156.876991 175.546858 
L 157.36766 173.924321 
L 157.694773 173.33732 
L 158.021886 173.122827 
L 158.348999 173.281904 
L 158.676111 173.834161 
L 159.003224 174.821862 
L 159.493894 177.297482 
L 159.984563 181.466634 
L 160.311676 185.814049 
L 160.638788 192.647889 
L 160.965901 206.490515 
L 161.129458 227.259384 
L 161.94724 186.734427 
L 162.437909 179.086459 
L 162.928578 174.370092 
L 163.419248 171.274769 
L 163.909917 169.309405 
L 164.400586 168.261714 
L 164.727699 168.031428 
L 165.054812 168.174701 
L 165.381925 168.711542 
L 165.709038 169.684741 
L 166.199707 172.142263 
L 166.690376 176.30368 
L 167.017489 180.661072 
L 167.344602 187.543073 
L 167.671715 201.644362 
L 167.835271 223.785708 
L 168.32594 190.03521 
L 168.81661 178.189261 
L 169.307279 171.777022 
L 169.797948 167.668796 
L 170.288617 164.961268 
L 170.779287 163.288765 
L 171.1064 162.666368 
L 171.433512 162.415745 
L 171.760625 162.53867 
L 172.087738 163.055553 
L 172.414851 164.00972 
L 172.90552 166.442397 
L 173.39619 170.589486 
L 173.723302 174.952737 
L 174.050415 181.879775 
L 174.377528 196.2474 
L 174.541085 219.992384 
L 175.031754 183.865759 
L 175.522423 172.100855 
L 176.013092 165.684781 
L 176.503762 161.553074 
L 176.994431 158.814543 
L 177.4851 157.107593 
L 177.812213 156.461318 
L 178.139326 156.186564 
L 178.466439 156.285476 
L 178.793552 156.778878 
L 179.120664 157.710652 
L 179.611334 160.1138 
L 180.102003 164.242447 
L 180.429116 168.609356 
L 180.756229 175.58048 
L 181.083341 190.225356 
L 181.246898 215.882169 
L 181.574011 184.235334 
L 181.901124 172.122183 
L 182.391793 162.874983 
L 182.882462 157.370863 
L 183.373131 153.738652 
L 183.863801 151.340185 
L 184.35447 149.904373 
L 184.681583 149.423767 
L 185.008696 149.314254 
L 185.335809 149.587501 
L 185.662921 150.275569 
L 185.990034 151.438011 
L 186.480703 154.31511 
L 186.971373 159.269608 
L 187.298486 164.724007 
L 187.625598 174.352215 
L 187.789155 183.664422 
L 187.952711 211.668017 
L 188.279824 176.786219 
L 188.606937 164.850839 
L 189.097606 155.668346 
L 189.588276 150.19082 
L 190.078945 146.580257 
L 190.569614 144.207715 
L 191.060283 142.806802 
L 191.387396 142.356256 
L 191.714509 142.283483 
L 192.041622 142.601334 
L 192.368735 143.343251 
L 192.695848 144.570514 
L 193.186517 147.570818 
L 193.677186 152.693519 
L 194.004299 158.305525 
L 194.331412 168.198485 
L 194.494968 177.826198 
L 194.658525 208.884419 
L 194.985638 170.315032 
L 195.31275 158.758279 
L 195.80342 150.005476 
L 196.294089 145.004046 
L 196.784758 141.973584 
L 197.275427 140.330025 
L 197.60254 139.893072 
L 197.766097 139.864313 
L 197.929653 139.962962 
L 198.256766 140.556014 
L 198.583879 141.718998 
L 199.074548 144.732724 
L 199.565217 149.797475 
L 200.055887 158.209303 
L 200.383 167.318799 
L 200.710112 183.205568 
L 200.873669 198.819629 
L 201.037225 232.902182 
L 201.200782 208.874868 
L 201.364338 233.277837 
L 201.691451 177.9802 
L 202.18212 152.111197 
L 202.836346 132.86354 
L 203.654128 116.77595 
L 204.635467 102.685105 
L 205.616805 91.69705 
L 206.7617 81.317881 
L 208.070151 71.655081 
L 209.378603 63.702722 
L 210.687054 57.077918 
L 211.995506 51.542837 
L 213.303957 46.939938 
L 214.612408 43.160377 
L 215.757303 40.467485 
L 216.902198 38.308085 
L 217.883537 36.86053 
L 218.864875 35.771556 
L 219.846214 35.03188 
L 220.663996 34.677805 
L 221.481778 34.56 
L 222.29956 34.677805 
L 223.117342 35.03188 
L 223.935125 35.624222 
L 224.916463 36.654425 
L 225.897802 38.041426 
L 226.87914 39.797452 
L 228.024035 42.334562 
L 229.16893 45.430827 
L 230.313825 49.132564 
L 231.622277 54.185421 
L 232.930728 60.241647 
L 234.239179 67.49356 
L 235.384074 75.050616 
L 236.528969 84.069996 
L 237.510308 93.371061 
L 238.491646 104.772969 
L 239.309428 116.77595 
L 239.963654 129.160255 
L 240.61788 146.386275 
L 241.108549 167.086393 
L 241.435662 195.072164 
L 241.599218 233.277837 
L 241.762775 208.874868 
L 241.926331 232.902182 
L 242.253444 183.205568 
L 242.580557 167.318799 
L 243.071226 154.891368 
L 243.561895 147.825187 
L 244.052565 143.536972 
L 244.543234 141.061992 
L 244.870347 140.191938 
L 245.19746 139.864313 
L 245.361016 139.893072 
L 245.688129 140.330025 
L 246.015242 141.286872 
L 246.505911 143.815428 
L 246.99658 148.053503 
L 247.48725 155.185815 
L 247.814362 163.475614 
L 247.977919 170.315032 
L 248.141475 182.702305 
L 248.305032 208.884419 
L 248.468588 177.826198 
L 248.795701 162.40359 
L 249.28637 152.693519 
L 249.77704 147.570818 
L 250.267709 144.570514 
L 250.758378 142.916236 
L 251.085491 142.392029 
L 251.412604 142.27228 
L 251.739717 142.534398 
L 252.06683 143.174679 
L 252.557499 144.881759 
L 253.048168 147.625975 
L 253.538837 151.759153 
L 254.029507 158.147377 
L 254.356619 164.850839 
L 254.683732 176.786219 
L 254.847289 189.683793 
L 255.010845 211.668017 
L 255.337958 174.352215 
L 255.665071 164.724007 
L 256.15574 157.302088 
L 256.646409 153.177456 
L 257.137079 150.792359 
L 257.627748 149.587501 
L 257.954861 149.314254 
L 258.281974 149.423767 
L 258.609086 149.904373 
L 258.936199 150.762441 
L 259.426869 152.820038 
L 259.917538 155.99541 
L 260.408207 160.762663 
L 260.898876 168.374097 
L 261.225989 177.055908 
L 261.389546 184.235334 
L 261.716659 215.882169 
L 262.043771 181.138463 
L 262.370884 171.628957 
L 262.861553 164.242447 
L 263.352223 160.1138 
L 263.842892 157.710652 
L 264.333561 156.480748 
L 264.660674 156.188477 
L 264.987787 156.277783 
L 265.3149 156.737456 
L 265.642013 157.574308 
L 266.132682 159.600686 
L 266.623351 162.747936 
L 267.114021 167.495868 
L 267.60469 175.115913 
L 267.931803 183.865759 
L 268.095359 191.162711 
L 268.422472 219.992384 
L 268.749585 187.366971 
L 269.076698 177.958913 
L 269.567367 170.589486 
L 270.058036 166.442397 
L 270.548705 164.00972 
L 271.039375 162.745779 
L 271.366488 162.429704 
L 271.6936 162.494889 
L 272.020713 162.930512 
L 272.347826 163.743757 
L 272.838495 165.736561 
L 273.329165 168.854672 
L 273.819834 173.583513 
L 274.310503 181.213893 
L 274.637616 190.03521 
L 274.801172 197.455514 
L 275.128285 223.785708 
L 275.455398 192.96089 
L 275.782511 183.653069 
L 276.27318 176.30368 
L 276.76385 172.142263 
L 277.254519 169.684741 
L 277.745188 168.391867 
L 278.072301 168.055583 
L 278.399414 168.10038 
L 278.726527 168.515804 
L 279.053639 169.309405 
L 279.544309 171.274769 
L 280.034978 174.370092 
L 280.525647 179.086459 
L 281.016317 186.734427 
L 281.343429 195.63398 
L 281.506986 203.185271 
L 281.834099 227.259384 
L 282.161212 197.996467 
L 282.488324 188.790065 
L 282.978994 181.466634 
L 283.469663 177.297482 
L 283.960332 174.821862 
L 284.451001 173.506854 
L 284.778114 173.154905 
L 285.105227 173.183859 
L 285.43234 173.583629 
L 285.759453 174.362126 
L 286.250122 176.306855 
L 286.740791 179.386208 
L 287.231461 184.097003 
L 287.72213 191.769945 
L 288.049243 200.754585 
L 288.212799 208.44481 
L 288.539912 230.453365 
L 288.867025 202.565706 
L 289.194138 193.46185 
L 289.684807 186.169958 
L 290.175476 181.999225 
L 290.666146 179.511738 
L 291.156815 178.180814 
L 291.483928 177.817323 
L 291.811041 177.834537 
L 292.138153 178.222733 
L 292.465266 178.990188 
L 292.955936 180.920339 
L 293.446605 183.989759 
L 293.937274 188.701079 
L 294.427943 196.405573 
L 294.755056 205.481681 
L 294.918613 213.318867 
L 295.082169 229.515539 
L 295.245725 233.414009 
L 295.572838 206.751575 
L 295.899951 197.75094 
L 296.39062 190.495316 
L 296.88129 186.328283 
L 297.371959 183.834283 
L 297.862628 182.492785 
L 298.189741 182.121295 
L 298.516854 182.130292 
L 298.843967 182.510419 
L 299.17108 183.270317 
L 299.661749 185.191091 
L 300.152418 188.255768 
L 300.643087 192.972877 
L 301.133757 200.714688 
L 301.46087 209.888196 
L 301.624426 217.880493 
L 301.787982 234.828895 
L 301.951539 236.18575 
L 302.278652 210.625402 
L 302.605765 201.728258 
L 303.096434 194.512873 
L 303.587103 190.354061 
L 304.077772 187.858157 
L 304.568442 186.510695 
L 304.895554 186.134268 
L 305.222667 186.138098 
L 305.54978 186.513195 
L 305.876893 187.268563 
L 306.367562 189.184487 
L 306.858232 192.248955 
L 307.348901 196.976477 
L 307.83957 204.760762 
L 308.166683 214.037299 
L 308.330239 222.193085 
L 308.493796 239.977157 
L 308.657352 238.810104 
L 308.984465 214.249114 
L 309.311578 205.455464 
L 309.802247 198.283749 
L 310.292916 194.137145 
L 310.783586 191.643426 
L 311.274255 190.294108 
L 311.601368 189.91548 
L 311.928481 189.916876 
L 312.255594 190.289671 
L 312.582706 191.043233 
L 313.073376 192.958397 
L 313.564045 196.026769 
L 314.054714 200.768929 
L 314.545383 208.600478 
L 314.872496 217.985529 
L 315.036053 226.313531 
L 315.199609 245.032769 
L 315.363166 241.326853 
L 315.690278 217.678411 
L 316.017391 208.988143 
L 316.508061 201.863233 
L 316.99873 197.732529 
L 317.489399 195.244806 
L 317.980068 193.897478 
L 318.307181 193.519223 
L 318.634294 193.520762 
L 318.961407 193.893836 
L 319.28852 194.64818 
L 319.779189 196.566477 
L 320.269858 199.642693 
L 320.760528 204.40356 
L 321.251197 212.287042 
L 321.57831 221.786126 
L 321.741866 230.295546 
L 321.905423 250.069698 
L 322.068979 243.776094 
L 322.396092 220.966105 
L 322.723205 212.379158 
L 323.213874 205.304144 
L 323.704543 201.192994 
L 324.195213 198.715055 
L 324.685882 197.373564 
L 325.012995 196.998264 
L 325.340107 197.002543 
L 325.66722 197.378504 
L 325.994333 198.136252 
L 326.485002 200.061652 
L 326.975672 203.149746 
L 327.466341 207.93351 
L 327.95701 215.873752 
L 328.284123 225.49261 
L 328.44768 234.193267 
L 328.611236 255.169003 
L 329.429018 215.682313 
L 329.919687 208.660534 
L 330.410357 204.57285 
L 330.901026 202.108767 
L 331.391695 200.777262 
L 331.718808 200.407719 
L 332.045921 200.417564 
L 332.373034 200.799265 
L 332.700147 201.563295 
L 333.190816 203.500172 
L 333.681485 206.604613 
L 334.172154 211.415931 
L 334.662824 219.41827 
L 334.989936 229.163117 
L 335.153493 238.065627 
L 335.317049 260.426365 
L 335.807719 227.336188 
L 336.298388 216.153832 
L 336.789057 210.408526 
L 337.279726 206.97064 
L 337.770396 204.936928 
L 338.261065 203.941784 
L 338.588178 203.772964 
L 338.915291 203.977543 
L 339.242404 204.557316 
L 339.733073 206.181199 
L 340.223742 208.876973 
L 340.714411 213.05365 
L 341.205081 219.748163 
L 341.532193 227.144131 
L 341.859306 241.982489 
L 342.022863 265.963522 
L 342.513532 230.5478 
L 343.004201 219.497984 
L 343.494871 213.801238 
L 343.98554 210.393158 
L 344.476209 208.382607 
L 344.803322 207.630134 
L 345.130435 207.283015 
L 345.457548 207.315058 
L 345.78466 207.719463 
L 346.111773 208.50745 
L 346.602443 210.48471 
L 347.093112 213.639773 
L 347.583781 218.524913 
L 348.07445 226.6725 
L 348.401563 236.691936 
L 348.56512 246.034557 
L 348.728676 271.947606 
L 349.055789 240.81476 
L 349.382902 229.217615 
L 349.873571 220.748173 
L 350.36424 216.026256 
L 350.85491 213.180611 
L 351.345579 211.572964 
L 351.672692 211.047401 
L 351.999805 210.911287 
L 352.326917 211.148924 
L 352.65403 211.762835 
L 353.1447 213.441804 
L 353.635369 216.201253 
L 354.126038 220.459586 
L 354.616707 227.283567 
L 354.94382 234.856608 
L 355.270933 250.351506 
L 355.434489 278.627438 
L 355.761602 244.290585 
L 356.088715 232.900315 
L 356.579384 224.535205 
L 357.070054 219.873781 
L 357.560723 217.076793 
L 358.051392 215.513803 
L 358.378505 215.017356 
L 358.705618 214.910461 
L 359.032731 215.177817 
L 359.359844 215.822324 
L 359.850513 217.549795 
L 360.341182 220.362902 
L 360.831851 224.684884 
L 361.322521 231.597895 
L 361.649634 239.277915 
L 361.976746 255.139729 
L 362.140303 286.410078 
L 362.467416 248.247871 
L 362.794529 237.072212 
L 363.285198 228.831665 
L 363.775867 224.252874 
L 364.266536 221.527915 
L 364.757206 220.034136 
L 365.084319 219.583858 
L 365.411431 219.5238 
L 365.738544 219.839087 
L 366.065657 220.533022 
L 366.556326 222.338472 
L 367.046996 225.236306 
L 367.537665 229.654772 
L 368.028334 236.691833 
L 368.355447 244.504441 
L 368.68256 260.774309 
L 368.813433 289 
M 368.883061 289 
L 369.173229 253.079426 
L 369.500342 242.140053 
L 369.991011 234.066052 
L 370.481681 229.615411 
L 370.97235 227.011038 
L 371.463019 225.638202 
L 371.790132 225.270464 
L 372.117245 225.295223 
L 372.444358 225.698127 
L 372.77147 226.482988 
L 373.26214 228.432315 
L 373.752809 231.485557 
L 374.243478 236.076514 
L 374.734148 243.319798 
L 375.06126 251.32452 
L 375.388373 268.080882 
L 375.471531 289 
M 375.638467 289 
L 375.715486 270.999511 
L 376.042599 253.349602 
L 376.533268 243.271009 
L 377.023937 238.177447 
L 377.514607 235.30544 
L 378.005276 233.823571 
L 378.332389 233.430888 
L 378.659502 233.454064 
L 378.986615 233.869967 
L 379.313727 234.674646 
L 379.804397 236.647303 
L 380.295066 239.675665 
L 380.785735 244.095907 
L 381.276404 250.715849 
L 381.603517 257.424386 
L 381.93063 268.71436 
L 382.123813 289 
M 382.397162 289 
L 382.421299 281.678191 
L 382.748412 264.892207 
L 383.075525 257.871782 
L 383.566194 252.415212 
L 384.056864 249.800018 
L 384.383977 249.037121 
L 384.711089 248.886203 
L 385.038202 249.2767 
L 385.365315 250.177137 
L 385.855984 252.484919 
L 386.346654 256.041153 
L 386.837323 261.111487 
L 387.327992 268.247827 
L 387.818661 278.666572 
L 388.148548 289 
L 388.148548 289 
" clip-path="url(#pde7233319e)" style="fill: none; stroke: #1f77b4; stroke-width: 1.5; stroke-linecap: square"/>
   </g>
   <g id="patch_3">
    <path d="M 54 252 
L 54 34.56 
" style="fill: none; stroke: #000000; stroke-width: 0.8; stroke-linejoin: miter; stroke-linecap: square"/>
   </g>
   <g id="patch_4">
    <path d="M 388.8 252 
L 388.8 34.56 
" style="fill: none; stroke: #000000; stroke-width: 0.8; stroke-linejoin: miter; stroke-linecap: square"/>
   </g>
   <g id="patch_5">
    <path d="M 54 252 
L 388.8 252 
" style="fill: none; stroke: #000000; stroke-width: 0.8; stroke-linejoin: miter; stroke-linecap: square"/>
   </g>
   <g id="patch_6">
    <path d="M 54 34.56 
L 388.8 34.56 
" style="fill: none; stroke: #000000; stroke-width: 0.8; stroke-linejoin: miter; stroke-linecap: square"/>
   </g>
   <g id="text_15">
    <!-- Respuesta en frecuencia de la ventana Blackman -->
    <g transform="translate(72.959063 28.56)scale(0.12 -0.12)">
     <defs>
      <path id="DejaVuSans-52" d="M 2841 2188 
Q 3044 2119 3236 1894 
Q 3428 1669 3622 1275 
L 4263 0 
L 3584 0 
L 2988 1197 
Q 2756 1666 2539 1819 
Q 2322 1972 1947 1972 
L 1259 1972 
L 1259 0 
L 628 0 
L 628 4666 
L 2053 4666 
Q 2853 4666 3247 4331 
Q 3641 3997 3641 3322 
Q 3641 2881 3436 2590 
Q 3231 2300 2841 2188 
z
M 1259 4147 
L 1259 2491 
L 2053 2491 
Q 2509 2491 2742 2702 
Q 2975 2913 2975 3322 
Q 2975 3731 2742 3939 
Q 2509 4147 2053 4147 
L 1259 4147 
z
" transform="scale(0.015625)"/>
      <path id="DejaVuSans-66" d="M 2375 4863 
L 2375 4384 
L 1825 4384 
Q 1516 4384 1395 4259 
Q 1275 4134 1275 3809 
L 1275 3500 
L 2222 3500 
L 2222 3053 
L 1275 3053 
L 1275 0 
L 697 0 
L 697 3053 
L 147 3053 
L 147 3500 
L 697 3500 
L 697 3744 
Q 697 4328 969 4595 
Q 1241 4863 1831 4863 
L 2375 4863 
z
" transform="scale(0.015625)"/>
      <path id="DejaVuSans-76" d="M 191 3500 
L 800 3500 
L 1894 563 
L 2988 3500 
L 3597 3500 
L 2284 0 
L 1503 0 
L 191 3500 
z
" transform="scale(0.015625)"/>
      <path id="DejaVuSans-6b" d="M 581 4863 
L 1159 4863 
L 1159 1991 
L 2875 3500 
L 3609 3500 
L 1753 1863 
L 3688 0 
L 2938 0 
L 1159 1709 
L 1159 0 
L 581 0 
L 581 4863 
z
" transform="scale(0.015625)"/>
     </defs>
     <use xlink:href="#DejaVuSans-52"/>
     <use xlink:href="#DejaVuSans-65" x="64.982422"/>
     <use xlink:href="#DejaVuSans-73" x="126.505859"/>
     <use xlink:href="#DejaVuSans-70" x="178.605469"/>
     <use xlink:href="#DejaVuSans-75" x="242.082031"/>
     <use xlink:href="#DejaVuSans-65" x="305.460938"/>
     <use xlink:href="#DejaVuSans-73" x="366.984375"/>
     <use xlink:href="#DejaVuSans-74" x="419.083984"/>
     <use xlink:href="#DejaVuSans-61" x="458.292969"/>
     <use xlink:href="#DejaVuSans-20" x="519.572266"/>
     <use xlink:href="#DejaVuSans-65" x="551.359375"/>
     <use xlink:href="#DejaVuSans-6e" x="612.882812"/>
     <use xlink:href="#DejaVuSans-20" x="676.261719"/>
     <use xlink:href="#DejaVuSans-66" x="708.048828"/>
     <use xlink:href="#DejaVuSans-72" x="743.253906"/>
     <use xlink:href="#DejaVuSans-65" x="782.117188"/>
     <use xlink:href="#DejaVuSans-63" x="843.640625"/>
     <use xlink:href="#DejaVuSans-75" x="898.621094"/>
     <use xlink:href="#DejaVuSans-65" x="962"/>
     <use xlink:href="#DejaVuSans-6e" x="1023.523438"/>
     <use xlink:href="#DejaVuSans-63" x="1086.902344"/>
     <use xlink:href="#DejaVuSans-69" x="1141.882812"/>
     <use xlink:href="#DejaVuSans-61" x="1169.666016"/>
     <use xlink:href="#DejaVuSans-20" x="1230.945312"/>
     <use xlink:href="#DejaVuSans-64" x="1262.732422"/>
     <use xlink:href="#DejaVuSans-65" x="1326.208984"/>
     <use xlink:href="#DejaVuSans-20" x="1387.732422"/>
     <use xlink:href="#DejaVuSans-6c" x="1419.519531"/>
     <use xlink:href="#DejaVuSans-61" x="1447.302734"/>
     <use xlink:href="#DejaVuSans-20" x="1508.582031"/>
     <use xlink:href="#DejaVuSans-76" x="1540.369141"/>
     <use xlink:href="#DejaVuSans-65" x="1599.548828"/>
     <use xlink:href="#DejaVuSans-6e" x="1661.072266"/>
     <use xlink:href="#DejaVuSans-74" x="1724.451172"/>
     <use xlink:href="#DejaVuSans-61" x="1763.660156"/>
     <use xlink:href="#DejaVuSans-6e" x="1824.939453"/>
     <use xlink:href="#DejaVuSans-61" x="1888.318359"/>
     <use xlink:href="#DejaVuSans-20" x="1949.597656"/>
     <use xlink:href="#DejaVuSans-42" x="1981.384766"/>
     <use xlink:href="#DejaVuSans-6c" x="2049.988281"/>
     <use xlink:href="#DejaVuSans-61" x="2077.771484"/>
     <use xlink:href="#DejaVuSans-63" x="2139.050781"/>
     <use xlink:href="#DejaVuSans-6b" x="2194.03125"/>
     <use xlink:href="#DejaVuSans-6d" x="2251.941406"/>
     <use xlink:href="#DejaVuSans-61" x="2349.353516"/>
     <use xlink:href="#DejaVuSans-6e" x="2410.632812"/>
    </g>
   </g>
  </g>
 </g>
 <defs>
  <clipPath id="pde7233319e">
   <rect x="54" y="34.56" width="334.8" height="217.44"/>
  </clipPath>
 </defs>
</svg>
