<?xml version="1.0" encoding="utf-8" standalone="no"?>
<!DOCTYPE svg PUBLIC "-//W3C//DTD SVG 1.1//EN"
  "http://www.w3.org/Graphics/SVG/1.1/DTD/svg11.dtd">
<svg xmlns:xlink="http://www.w3.org/1999/xlink" width="432pt" height="288pt" viewBox="0 0 432 288" xmlns="http://www.w3.org/2000/svg" version="1.1">
 <metadata>
  <rdf:RDF xmlns:dc="http://purl.org/dc/elements/1.1/" xmlns:cc="http://creativecommons.org/ns#" xmlns:rdf="http://www.w3.org/1999/02/22-rdf-syntax-ns#">
   <cc:Work>
    <dc:type rdf:resource="http://purl.org/dc/dcmitype/StillImage"/>
    <dc:date>2022-10-25T15:12:09.748523</dc:date>
    <dc:format>image/svg+xml</dc:format>
    <dc:creator>
     <cc:Agent>
      <dc:title>Matplotlib v3.5.1, https://matplotlib.org/</dc:title>
     </cc:Agent>
    </dc:creator>
   </cc:Work>
  </rdf:RDF>
 </metadata>
 <defs>
  <style type="text/css">*{stroke-linejoin: round; stroke-linecap: butt}</style>
 </defs>
 <g id="figure_1">
  <g id="patch_1">
   <path d="M 0 288 
L 432 288 
L 432 0 
L 0 0 
L 0 288 
z
" style="fill: none"/>
  </g>
  <g id="axes_1">
   <g id="patch_2">
    <path d="M 54 252 
L 388.8 252 
L 388.8 34.56 
L 54 34.56 
z
" style="fill: #ffffff"/>
   </g>
   <g id="matplotlib.axis_1">
    <g id="xtick_1">
     <g id="line2d_1">
      <defs>
       <path id="m004743ca8d" d="M 0 0 
L 0 3.5 
" style="stroke: #000000; stroke-width: 0.8"/>
      </defs>
      <g>
       <use xlink:href="#m004743ca8d" x="87.48" y="252" style="stroke: #000000; stroke-width: 0.8"/>
      </g>
     </g>
     <g id="text_1">
      <!-- −0.4 -->
      <g transform="translate(75.338594 266.598437)scale(0.1 -0.1)">
       <defs>
        <path id="DejaVuSans-2212" d="M 678 2272 
L 4684 2272 
L 4684 1741 
L 678 1741 
L 678 2272 
z
" transform="scale(0.015625)"/>
        <path id="DejaVuSans-30" d="M 2034 4250 
Q 1547 4250 1301 3770 
Q 1056 3291 1056 2328 
Q 1056 1369 1301 889 
Q 1547 409 2034 409 
Q 2525 409 2770 889 
Q 3016 1369 3016 2328 
Q 3016 3291 2770 3770 
Q 2525 4250 2034 4250 
z
M 2034 4750 
Q 2819 4750 3233 4129 
Q 3647 3509 3647 2328 
Q 3647 1150 3233 529 
Q 2819 -91 2034 -91 
Q 1250 -91 836 529 
Q 422 1150 422 2328 
Q 422 3509 836 4129 
Q 1250 4750 2034 4750 
z
" transform="scale(0.015625)"/>
        <path id="DejaVuSans-2e" d="M 684 794 
L 1344 794 
L 1344 0 
L 684 0 
L 684 794 
z
" transform="scale(0.015625)"/>
        <path id="DejaVuSans-34" d="M 2419 4116 
L 825 1625 
L 2419 1625 
L 2419 4116 
z
M 2253 4666 
L 3047 4666 
L 3047 1625 
L 3713 1625 
L 3713 1100 
L 3047 1100 
L 3047 0 
L 2419 0 
L 2419 1100 
L 313 1100 
L 313 1709 
L 2253 4666 
z
" transform="scale(0.015625)"/>
       </defs>
       <use xlink:href="#DejaVuSans-2212"/>
       <use xlink:href="#DejaVuSans-30" x="83.789062"/>
       <use xlink:href="#DejaVuSans-2e" x="147.412109"/>
       <use xlink:href="#DejaVuSans-34" x="179.199219"/>
      </g>
     </g>
    </g>
    <g id="xtick_2">
     <g id="line2d_2">
      <g>
       <use xlink:href="#m004743ca8d" x="154.44" y="252" style="stroke: #000000; stroke-width: 0.8"/>
      </g>
     </g>
     <g id="text_2">
      <!-- −0.2 -->
      <g transform="translate(142.298594 266.598437)scale(0.1 -0.1)">
       <defs>
        <path id="DejaVuSans-32" d="M 1228 531 
L 3431 531 
L 3431 0 
L 469 0 
L 469 531 
Q 828 903 1448 1529 
Q 2069 2156 2228 2338 
Q 2531 2678 2651 2914 
Q 2772 3150 2772 3378 
Q 2772 3750 2511 3984 
Q 2250 4219 1831 4219 
Q 1534 4219 1204 4116 
Q 875 4013 500 3803 
L 500 4441 
Q 881 4594 1212 4672 
Q 1544 4750 1819 4750 
Q 2544 4750 2975 4387 
Q 3406 4025 3406 3419 
Q 3406 3131 3298 2873 
Q 3191 2616 2906 2266 
Q 2828 2175 2409 1742 
Q 1991 1309 1228 531 
z
" transform="scale(0.015625)"/>
       </defs>
       <use xlink:href="#DejaVuSans-2212"/>
       <use xlink:href="#DejaVuSans-30" x="83.789062"/>
       <use xlink:href="#DejaVuSans-2e" x="147.412109"/>
       <use xlink:href="#DejaVuSans-32" x="179.199219"/>
      </g>
     </g>
    </g>
    <g id="xtick_3">
     <g id="line2d_3">
      <g>
       <use xlink:href="#m004743ca8d" x="221.4" y="252" style="stroke: #000000; stroke-width: 0.8"/>
      </g>
     </g>
     <g id="text_3">
      <!-- 0.0 -->
      <g transform="translate(213.448438 266.598437)scale(0.1 -0.1)">
       <use xlink:href="#DejaVuSans-30"/>
       <use xlink:href="#DejaVuSans-2e" x="63.623047"/>
       <use xlink:href="#DejaVuSans-30" x="95.410156"/>
      </g>
     </g>
    </g>
    <g id="xtick_4">
     <g id="line2d_4">
      <g>
       <use xlink:href="#m004743ca8d" x="288.36" y="252" style="stroke: #000000; stroke-width: 0.8"/>
      </g>
     </g>
     <g id="text_4">
      <!-- 0.2 -->
      <g transform="translate(280.408437 266.598437)scale(0.1 -0.1)">
       <use xlink:href="#DejaVuSans-30"/>
       <use xlink:href="#DejaVuSans-2e" x="63.623047"/>
       <use xlink:href="#DejaVuSans-32" x="95.410156"/>
      </g>
     </g>
    </g>
    <g id="xtick_5">
     <g id="line2d_5">
      <g>
       <use xlink:href="#m004743ca8d" x="355.32" y="252" style="stroke: #000000; stroke-width: 0.8"/>
      </g>
     </g>
     <g id="text_5">
      <!-- 0.4 -->
      <g transform="translate(347.368437 266.598437)scale(0.1 -0.1)">
       <use xlink:href="#DejaVuSans-30"/>
       <use xlink:href="#DejaVuSans-2e" x="63.623047"/>
       <use xlink:href="#DejaVuSans-34" x="95.410156"/>
      </g>
     </g>
    </g>
    <g id="text_6">
     <!-- Frecuencia Normalizada [ciclos por muestra] -->
     <g transform="translate(109.807031 280.276563)scale(0.1 -0.1)">
      <defs>
       <path id="DejaVuSans-46" d="M 628 4666 
L 3309 4666 
L 3309 4134 
L 1259 4134 
L 1259 2759 
L 3109 2759 
L 3109 2228 
L 1259 2228 
L 1259 0 
L 628 0 
L 628 4666 
z
" transform="scale(0.015625)"/>
       <path id="DejaVuSans-72" d="M 2631 2963 
Q 2534 3019 2420 3045 
Q 2306 3072 2169 3072 
Q 1681 3072 1420 2755 
Q 1159 2438 1159 1844 
L 1159 0 
L 581 0 
L 581 3500 
L 1159 3500 
L 1159 2956 
Q 1341 3275 1631 3429 
Q 1922 3584 2338 3584 
Q 2397 3584 2469 3576 
Q 2541 3569 2628 3553 
L 2631 2963 
z
" transform="scale(0.015625)"/>
       <path id="DejaVuSans-65" d="M 3597 1894 
L 3597 1613 
L 953 1613 
Q 991 1019 1311 708 
Q 1631 397 2203 397 
Q 2534 397 2845 478 
Q 3156 559 3463 722 
L 3463 178 
Q 3153 47 2828 -22 
Q 2503 -91 2169 -91 
Q 1331 -91 842 396 
Q 353 884 353 1716 
Q 353 2575 817 3079 
Q 1281 3584 2069 3584 
Q 2775 3584 3186 3129 
Q 3597 2675 3597 1894 
z
M 3022 2063 
Q 3016 2534 2758 2815 
Q 2500 3097 2075 3097 
Q 1594 3097 1305 2825 
Q 1016 2553 972 2059 
L 3022 2063 
z
" transform="scale(0.015625)"/>
       <path id="DejaVuSans-63" d="M 3122 3366 
L 3122 2828 
Q 2878 2963 2633 3030 
Q 2388 3097 2138 3097 
Q 1578 3097 1268 2742 
Q 959 2388 959 1747 
Q 959 1106 1268 751 
Q 1578 397 2138 397 
Q 2388 397 2633 464 
Q 2878 531 3122 666 
L 3122 134 
Q 2881 22 2623 -34 
Q 2366 -91 2075 -91 
Q 1284 -91 818 406 
Q 353 903 353 1747 
Q 353 2603 823 3093 
Q 1294 3584 2113 3584 
Q 2378 3584 2631 3529 
Q 2884 3475 3122 3366 
z
" transform="scale(0.015625)"/>
       <path id="DejaVuSans-75" d="M 544 1381 
L 544 3500 
L 1119 3500 
L 1119 1403 
Q 1119 906 1312 657 
Q 1506 409 1894 409 
Q 2359 409 2629 706 
Q 2900 1003 2900 1516 
L 2900 3500 
L 3475 3500 
L 3475 0 
L 2900 0 
L 2900 538 
Q 2691 219 2414 64 
Q 2138 -91 1772 -91 
Q 1169 -91 856 284 
Q 544 659 544 1381 
z
M 1991 3584 
L 1991 3584 
z
" transform="scale(0.015625)"/>
       <path id="DejaVuSans-6e" d="M 3513 2113 
L 3513 0 
L 2938 0 
L 2938 2094 
Q 2938 2591 2744 2837 
Q 2550 3084 2163 3084 
Q 1697 3084 1428 2787 
Q 1159 2491 1159 1978 
L 1159 0 
L 581 0 
L 581 3500 
L 1159 3500 
L 1159 2956 
Q 1366 3272 1645 3428 
Q 1925 3584 2291 3584 
Q 2894 3584 3203 3211 
Q 3513 2838 3513 2113 
z
" transform="scale(0.015625)"/>
       <path id="DejaVuSans-69" d="M 603 3500 
L 1178 3500 
L 1178 0 
L 603 0 
L 603 3500 
z
M 603 4863 
L 1178 4863 
L 1178 4134 
L 603 4134 
L 603 4863 
z
" transform="scale(0.015625)"/>
       <path id="DejaVuSans-61" d="M 2194 1759 
Q 1497 1759 1228 1600 
Q 959 1441 959 1056 
Q 959 750 1161 570 
Q 1363 391 1709 391 
Q 2188 391 2477 730 
Q 2766 1069 2766 1631 
L 2766 1759 
L 2194 1759 
z
M 3341 1997 
L 3341 0 
L 2766 0 
L 2766 531 
Q 2569 213 2275 61 
Q 1981 -91 1556 -91 
Q 1019 -91 701 211 
Q 384 513 384 1019 
Q 384 1609 779 1909 
Q 1175 2209 1959 2209 
L 2766 2209 
L 2766 2266 
Q 2766 2663 2505 2880 
Q 2244 3097 1772 3097 
Q 1472 3097 1187 3025 
Q 903 2953 641 2809 
L 641 3341 
Q 956 3463 1253 3523 
Q 1550 3584 1831 3584 
Q 2591 3584 2966 3190 
Q 3341 2797 3341 1997 
z
" transform="scale(0.015625)"/>
       <path id="DejaVuSans-20" transform="scale(0.015625)"/>
       <path id="DejaVuSans-4e" d="M 628 4666 
L 1478 4666 
L 3547 763 
L 3547 4666 
L 4159 4666 
L 4159 0 
L 3309 0 
L 1241 3903 
L 1241 0 
L 628 0 
L 628 4666 
z
" transform="scale(0.015625)"/>
       <path id="DejaVuSans-6f" d="M 1959 3097 
Q 1497 3097 1228 2736 
Q 959 2375 959 1747 
Q 959 1119 1226 758 
Q 1494 397 1959 397 
Q 2419 397 2687 759 
Q 2956 1122 2956 1747 
Q 2956 2369 2687 2733 
Q 2419 3097 1959 3097 
z
M 1959 3584 
Q 2709 3584 3137 3096 
Q 3566 2609 3566 1747 
Q 3566 888 3137 398 
Q 2709 -91 1959 -91 
Q 1206 -91 779 398 
Q 353 888 353 1747 
Q 353 2609 779 3096 
Q 1206 3584 1959 3584 
z
" transform="scale(0.015625)"/>
       <path id="DejaVuSans-6d" d="M 3328 2828 
Q 3544 3216 3844 3400 
Q 4144 3584 4550 3584 
Q 5097 3584 5394 3201 
Q 5691 2819 5691 2113 
L 5691 0 
L 5113 0 
L 5113 2094 
Q 5113 2597 4934 2840 
Q 4756 3084 4391 3084 
Q 3944 3084 3684 2787 
Q 3425 2491 3425 1978 
L 3425 0 
L 2847 0 
L 2847 2094 
Q 2847 2600 2669 2842 
Q 2491 3084 2119 3084 
Q 1678 3084 1418 2786 
Q 1159 2488 1159 1978 
L 1159 0 
L 581 0 
L 581 3500 
L 1159 3500 
L 1159 2956 
Q 1356 3278 1631 3431 
Q 1906 3584 2284 3584 
Q 2666 3584 2933 3390 
Q 3200 3197 3328 2828 
z
" transform="scale(0.015625)"/>
       <path id="DejaVuSans-6c" d="M 603 4863 
L 1178 4863 
L 1178 0 
L 603 0 
L 603 4863 
z
" transform="scale(0.015625)"/>
       <path id="DejaVuSans-7a" d="M 353 3500 
L 3084 3500 
L 3084 2975 
L 922 459 
L 3084 459 
L 3084 0 
L 275 0 
L 275 525 
L 2438 3041 
L 353 3041 
L 353 3500 
z
" transform="scale(0.015625)"/>
       <path id="DejaVuSans-64" d="M 2906 2969 
L 2906 4863 
L 3481 4863 
L 3481 0 
L 2906 0 
L 2906 525 
Q 2725 213 2448 61 
Q 2172 -91 1784 -91 
Q 1150 -91 751 415 
Q 353 922 353 1747 
Q 353 2572 751 3078 
Q 1150 3584 1784 3584 
Q 2172 3584 2448 3432 
Q 2725 3281 2906 2969 
z
M 947 1747 
Q 947 1113 1208 752 
Q 1469 391 1925 391 
Q 2381 391 2643 752 
Q 2906 1113 2906 1747 
Q 2906 2381 2643 2742 
Q 2381 3103 1925 3103 
Q 1469 3103 1208 2742 
Q 947 2381 947 1747 
z
" transform="scale(0.015625)"/>
       <path id="DejaVuSans-5b" d="M 550 4863 
L 1875 4863 
L 1875 4416 
L 1125 4416 
L 1125 -397 
L 1875 -397 
L 1875 -844 
L 550 -844 
L 550 4863 
z
" transform="scale(0.015625)"/>
       <path id="DejaVuSans-73" d="M 2834 3397 
L 2834 2853 
Q 2591 2978 2328 3040 
Q 2066 3103 1784 3103 
Q 1356 3103 1142 2972 
Q 928 2841 928 2578 
Q 928 2378 1081 2264 
Q 1234 2150 1697 2047 
L 1894 2003 
Q 2506 1872 2764 1633 
Q 3022 1394 3022 966 
Q 3022 478 2636 193 
Q 2250 -91 1575 -91 
Q 1294 -91 989 -36 
Q 684 19 347 128 
L 347 722 
Q 666 556 975 473 
Q 1284 391 1588 391 
Q 1994 391 2212 530 
Q 2431 669 2431 922 
Q 2431 1156 2273 1281 
Q 2116 1406 1581 1522 
L 1381 1569 
Q 847 1681 609 1914 
Q 372 2147 372 2553 
Q 372 3047 722 3315 
Q 1072 3584 1716 3584 
Q 2034 3584 2315 3537 
Q 2597 3491 2834 3397 
z
" transform="scale(0.015625)"/>
       <path id="DejaVuSans-70" d="M 1159 525 
L 1159 -1331 
L 581 -1331 
L 581 3500 
L 1159 3500 
L 1159 2969 
Q 1341 3281 1617 3432 
Q 1894 3584 2278 3584 
Q 2916 3584 3314 3078 
Q 3713 2572 3713 1747 
Q 3713 922 3314 415 
Q 2916 -91 2278 -91 
Q 1894 -91 1617 61 
Q 1341 213 1159 525 
z
M 3116 1747 
Q 3116 2381 2855 2742 
Q 2594 3103 2138 3103 
Q 1681 3103 1420 2742 
Q 1159 2381 1159 1747 
Q 1159 1113 1420 752 
Q 1681 391 2138 391 
Q 2594 391 2855 752 
Q 3116 1113 3116 1747 
z
" transform="scale(0.015625)"/>
       <path id="DejaVuSans-74" d="M 1172 4494 
L 1172 3500 
L 2356 3500 
L 2356 3053 
L 1172 3053 
L 1172 1153 
Q 1172 725 1289 603 
Q 1406 481 1766 481 
L 2356 481 
L 2356 0 
L 1766 0 
Q 1100 0 847 248 
Q 594 497 594 1153 
L 594 3053 
L 172 3053 
L 172 3500 
L 594 3500 
L 594 4494 
L 1172 4494 
z
" transform="scale(0.015625)"/>
       <path id="DejaVuSans-5d" d="M 1947 4863 
L 1947 -844 
L 622 -844 
L 622 -397 
L 1369 -397 
L 1369 4416 
L 622 4416 
L 622 4863 
L 1947 4863 
z
" transform="scale(0.015625)"/>
      </defs>
      <use xlink:href="#DejaVuSans-46"/>
      <use xlink:href="#DejaVuSans-72" x="50.269531"/>
      <use xlink:href="#DejaVuSans-65" x="89.132812"/>
      <use xlink:href="#DejaVuSans-63" x="150.65625"/>
      <use xlink:href="#DejaVuSans-75" x="205.636719"/>
      <use xlink:href="#DejaVuSans-65" x="269.015625"/>
      <use xlink:href="#DejaVuSans-6e" x="330.539062"/>
      <use xlink:href="#DejaVuSans-63" x="393.917969"/>
      <use xlink:href="#DejaVuSans-69" x="448.898438"/>
      <use xlink:href="#DejaVuSans-61" x="476.681641"/>
      <use xlink:href="#DejaVuSans-20" x="537.960938"/>
      <use xlink:href="#DejaVuSans-4e" x="569.748047"/>
      <use xlink:href="#DejaVuSans-6f" x="644.552734"/>
      <use xlink:href="#DejaVuSans-72" x="705.734375"/>
      <use xlink:href="#DejaVuSans-6d" x="745.097656"/>
      <use xlink:href="#DejaVuSans-61" x="842.509766"/>
      <use xlink:href="#DejaVuSans-6c" x="903.789062"/>
      <use xlink:href="#DejaVuSans-69" x="931.572266"/>
      <use xlink:href="#DejaVuSans-7a" x="959.355469"/>
      <use xlink:href="#DejaVuSans-61" x="1011.845703"/>
      <use xlink:href="#DejaVuSans-64" x="1073.125"/>
      <use xlink:href="#DejaVuSans-61" x="1136.601562"/>
      <use xlink:href="#DejaVuSans-20" x="1197.880859"/>
      <use xlink:href="#DejaVuSans-5b" x="1229.667969"/>
      <use xlink:href="#DejaVuSans-63" x="1268.681641"/>
      <use xlink:href="#DejaVuSans-69" x="1323.662109"/>
      <use xlink:href="#DejaVuSans-63" x="1351.445312"/>
      <use xlink:href="#DejaVuSans-6c" x="1406.425781"/>
      <use xlink:href="#DejaVuSans-6f" x="1434.208984"/>
      <use xlink:href="#DejaVuSans-73" x="1495.390625"/>
      <use xlink:href="#DejaVuSans-20" x="1547.490234"/>
      <use xlink:href="#DejaVuSans-70" x="1579.277344"/>
      <use xlink:href="#DejaVuSans-6f" x="1642.753906"/>
      <use xlink:href="#DejaVuSans-72" x="1703.935547"/>
      <use xlink:href="#DejaVuSans-20" x="1745.048828"/>
      <use xlink:href="#DejaVuSans-6d" x="1776.835938"/>
      <use xlink:href="#DejaVuSans-75" x="1874.248047"/>
      <use xlink:href="#DejaVuSans-65" x="1937.626953"/>
      <use xlink:href="#DejaVuSans-73" x="1999.150391"/>
      <use xlink:href="#DejaVuSans-74" x="2051.25"/>
      <use xlink:href="#DejaVuSans-72" x="2090.458984"/>
      <use xlink:href="#DejaVuSans-61" x="2131.572266"/>
      <use xlink:href="#DejaVuSans-5d" x="2192.851562"/>
     </g>
    </g>
   </g>
   <g id="matplotlib.axis_2">
    <g id="ytick_1">
     <g id="line2d_6">
      <defs>
       <path id="m1c1a57372a" d="M 0 0 
L -3.5 0 
" style="stroke: #000000; stroke-width: 0.8"/>
      </defs>
      <g>
       <use xlink:href="#m1c1a57372a" x="54" y="252" style="stroke: #000000; stroke-width: 0.8"/>
      </g>
     </g>
     <g id="text_7">
      <!-- −120 -->
      <g transform="translate(19.532812 255.799219)scale(0.1 -0.1)">
       <defs>
        <path id="DejaVuSans-31" d="M 794 531 
L 1825 531 
L 1825 4091 
L 703 3866 
L 703 4441 
L 1819 4666 
L 2450 4666 
L 2450 531 
L 3481 531 
L 3481 0 
L 794 0 
L 794 531 
z
" transform="scale(0.015625)"/>
       </defs>
       <use xlink:href="#DejaVuSans-2212"/>
       <use xlink:href="#DejaVuSans-31" x="83.789062"/>
       <use xlink:href="#DejaVuSans-32" x="147.412109"/>
       <use xlink:href="#DejaVuSans-30" x="211.035156"/>
      </g>
     </g>
    </g>
    <g id="ytick_2">
     <g id="line2d_7">
      <g>
       <use xlink:href="#m1c1a57372a" x="54" y="215.76" style="stroke: #000000; stroke-width: 0.8"/>
      </g>
     </g>
     <g id="text_8">
      <!-- −100 -->
      <g transform="translate(19.532812 219.559219)scale(0.1 -0.1)">
       <use xlink:href="#DejaVuSans-2212"/>
       <use xlink:href="#DejaVuSans-31" x="83.789062"/>
       <use xlink:href="#DejaVuSans-30" x="147.412109"/>
       <use xlink:href="#DejaVuSans-30" x="211.035156"/>
      </g>
     </g>
    </g>
    <g id="ytick_3">
     <g id="line2d_8">
      <g>
       <use xlink:href="#m1c1a57372a" x="54" y="179.52" style="stroke: #000000; stroke-width: 0.8"/>
      </g>
     </g>
     <g id="text_9">
      <!-- −80 -->
      <g transform="translate(25.895312 183.319219)scale(0.1 -0.1)">
       <defs>
        <path id="DejaVuSans-38" d="M 2034 2216 
Q 1584 2216 1326 1975 
Q 1069 1734 1069 1313 
Q 1069 891 1326 650 
Q 1584 409 2034 409 
Q 2484 409 2743 651 
Q 3003 894 3003 1313 
Q 3003 1734 2745 1975 
Q 2488 2216 2034 2216 
z
M 1403 2484 
Q 997 2584 770 2862 
Q 544 3141 544 3541 
Q 544 4100 942 4425 
Q 1341 4750 2034 4750 
Q 2731 4750 3128 4425 
Q 3525 4100 3525 3541 
Q 3525 3141 3298 2862 
Q 3072 2584 2669 2484 
Q 3125 2378 3379 2068 
Q 3634 1759 3634 1313 
Q 3634 634 3220 271 
Q 2806 -91 2034 -91 
Q 1263 -91 848 271 
Q 434 634 434 1313 
Q 434 1759 690 2068 
Q 947 2378 1403 2484 
z
M 1172 3481 
Q 1172 3119 1398 2916 
Q 1625 2713 2034 2713 
Q 2441 2713 2670 2916 
Q 2900 3119 2900 3481 
Q 2900 3844 2670 4047 
Q 2441 4250 2034 4250 
Q 1625 4250 1398 4047 
Q 1172 3844 1172 3481 
z
" transform="scale(0.015625)"/>
       </defs>
       <use xlink:href="#DejaVuSans-2212"/>
       <use xlink:href="#DejaVuSans-38" x="83.789062"/>
       <use xlink:href="#DejaVuSans-30" x="147.412109"/>
      </g>
     </g>
    </g>
    <g id="ytick_4">
     <g id="line2d_9">
      <g>
       <use xlink:href="#m1c1a57372a" x="54" y="143.28" style="stroke: #000000; stroke-width: 0.8"/>
      </g>
     </g>
     <g id="text_10">
      <!-- −60 -->
      <g transform="translate(25.895312 147.079219)scale(0.1 -0.1)">
       <defs>
        <path id="DejaVuSans-36" d="M 2113 2584 
Q 1688 2584 1439 2293 
Q 1191 2003 1191 1497 
Q 1191 994 1439 701 
Q 1688 409 2113 409 
Q 2538 409 2786 701 
Q 3034 994 3034 1497 
Q 3034 2003 2786 2293 
Q 2538 2584 2113 2584 
z
M 3366 4563 
L 3366 3988 
Q 3128 4100 2886 4159 
Q 2644 4219 2406 4219 
Q 1781 4219 1451 3797 
Q 1122 3375 1075 2522 
Q 1259 2794 1537 2939 
Q 1816 3084 2150 3084 
Q 2853 3084 3261 2657 
Q 3669 2231 3669 1497 
Q 3669 778 3244 343 
Q 2819 -91 2113 -91 
Q 1303 -91 875 529 
Q 447 1150 447 2328 
Q 447 3434 972 4092 
Q 1497 4750 2381 4750 
Q 2619 4750 2861 4703 
Q 3103 4656 3366 4563 
z
" transform="scale(0.015625)"/>
       </defs>
       <use xlink:href="#DejaVuSans-2212"/>
       <use xlink:href="#DejaVuSans-36" x="83.789062"/>
       <use xlink:href="#DejaVuSans-30" x="147.412109"/>
      </g>
     </g>
    </g>
    <g id="ytick_5">
     <g id="line2d_10">
      <g>
       <use xlink:href="#m1c1a57372a" x="54" y="107.04" style="stroke: #000000; stroke-width: 0.8"/>
      </g>
     </g>
     <g id="text_11">
      <!-- −40 -->
      <g transform="translate(25.895312 110.839219)scale(0.1 -0.1)">
       <use xlink:href="#DejaVuSans-2212"/>
       <use xlink:href="#DejaVuSans-34" x="83.789062"/>
       <use xlink:href="#DejaVuSans-30" x="147.412109"/>
      </g>
     </g>
    </g>
    <g id="ytick_6">
     <g id="line2d_11">
      <g>
       <use xlink:href="#m1c1a57372a" x="54" y="70.8" style="stroke: #000000; stroke-width: 0.8"/>
      </g>
     </g>
     <g id="text_12">
      <!-- −20 -->
      <g transform="translate(25.895312 74.599219)scale(0.1 -0.1)">
       <use xlink:href="#DejaVuSans-2212"/>
       <use xlink:href="#DejaVuSans-32" x="83.789062"/>
       <use xlink:href="#DejaVuSans-30" x="147.412109"/>
      </g>
     </g>
    </g>
    <g id="ytick_7">
     <g id="line2d_12">
      <g>
       <use xlink:href="#m1c1a57372a" x="54" y="34.56" style="stroke: #000000; stroke-width: 0.8"/>
      </g>
     </g>
     <g id="text_13">
      <!-- 0 -->
      <g transform="translate(40.6375 38.359219)scale(0.1 -0.1)">
       <use xlink:href="#DejaVuSans-30"/>
      </g>
     </g>
    </g>
    <g id="text_14">
     <!-- Magnitud Normalizada [dB] -->
     <g transform="translate(13.453125 211.784688)rotate(-90)scale(0.1 -0.1)">
      <defs>
       <path id="DejaVuSans-4d" d="M 628 4666 
L 1569 4666 
L 2759 1491 
L 3956 4666 
L 4897 4666 
L 4897 0 
L 4281 0 
L 4281 4097 
L 3078 897 
L 2444 897 
L 1241 4097 
L 1241 0 
L 628 0 
L 628 4666 
z
" transform="scale(0.015625)"/>
       <path id="DejaVuSans-67" d="M 2906 1791 
Q 2906 2416 2648 2759 
Q 2391 3103 1925 3103 
Q 1463 3103 1205 2759 
Q 947 2416 947 1791 
Q 947 1169 1205 825 
Q 1463 481 1925 481 
Q 2391 481 2648 825 
Q 2906 1169 2906 1791 
z
M 3481 434 
Q 3481 -459 3084 -895 
Q 2688 -1331 1869 -1331 
Q 1566 -1331 1297 -1286 
Q 1028 -1241 775 -1147 
L 775 -588 
Q 1028 -725 1275 -790 
Q 1522 -856 1778 -856 
Q 2344 -856 2625 -561 
Q 2906 -266 2906 331 
L 2906 616 
Q 2728 306 2450 153 
Q 2172 0 1784 0 
Q 1141 0 747 490 
Q 353 981 353 1791 
Q 353 2603 747 3093 
Q 1141 3584 1784 3584 
Q 2172 3584 2450 3431 
Q 2728 3278 2906 2969 
L 2906 3500 
L 3481 3500 
L 3481 434 
z
" transform="scale(0.015625)"/>
       <path id="DejaVuSans-42" d="M 1259 2228 
L 1259 519 
L 2272 519 
Q 2781 519 3026 730 
Q 3272 941 3272 1375 
Q 3272 1813 3026 2020 
Q 2781 2228 2272 2228 
L 1259 2228 
z
M 1259 4147 
L 1259 2741 
L 2194 2741 
Q 2656 2741 2882 2914 
Q 3109 3088 3109 3444 
Q 3109 3797 2882 3972 
Q 2656 4147 2194 4147 
L 1259 4147 
z
M 628 4666 
L 2241 4666 
Q 2963 4666 3353 4366 
Q 3744 4066 3744 3513 
Q 3744 3084 3544 2831 
Q 3344 2578 2956 2516 
Q 3422 2416 3680 2098 
Q 3938 1781 3938 1306 
Q 3938 681 3513 340 
Q 3088 0 2303 0 
L 628 0 
L 628 4666 
z
" transform="scale(0.015625)"/>
      </defs>
      <use xlink:href="#DejaVuSans-4d"/>
      <use xlink:href="#DejaVuSans-61" x="86.279297"/>
      <use xlink:href="#DejaVuSans-67" x="147.558594"/>
      <use xlink:href="#DejaVuSans-6e" x="211.035156"/>
      <use xlink:href="#DejaVuSans-69" x="274.414062"/>
      <use xlink:href="#DejaVuSans-74" x="302.197266"/>
      <use xlink:href="#DejaVuSans-75" x="341.40625"/>
      <use xlink:href="#DejaVuSans-64" x="404.785156"/>
      <use xlink:href="#DejaVuSans-20" x="468.261719"/>
      <use xlink:href="#DejaVuSans-4e" x="500.048828"/>
      <use xlink:href="#DejaVuSans-6f" x="574.853516"/>
      <use xlink:href="#DejaVuSans-72" x="636.035156"/>
      <use xlink:href="#DejaVuSans-6d" x="675.398438"/>
      <use xlink:href="#DejaVuSans-61" x="772.810547"/>
      <use xlink:href="#DejaVuSans-6c" x="834.089844"/>
      <use xlink:href="#DejaVuSans-69" x="861.873047"/>
      <use xlink:href="#DejaVuSans-7a" x="889.65625"/>
      <use xlink:href="#DejaVuSans-61" x="942.146484"/>
      <use xlink:href="#DejaVuSans-64" x="1003.425781"/>
      <use xlink:href="#DejaVuSans-61" x="1066.902344"/>
      <use xlink:href="#DejaVuSans-20" x="1128.181641"/>
      <use xlink:href="#DejaVuSans-5b" x="1159.96875"/>
      <use xlink:href="#DejaVuSans-64" x="1198.982422"/>
      <use xlink:href="#DejaVuSans-42" x="1262.458984"/>
      <use xlink:href="#DejaVuSans-5d" x="1331.0625"/>
     </g>
    </g>
   </g>
   <g id="line2d_13">
    <path d="M 54 184.567363 
L 54.327113 184.762703 
L 54.654226 185.358675 
L 54.981339 186.387258 
L 55.472008 188.887439 
L 55.962677 192.951109 
L 56.453346 199.731246 
L 56.780459 207.557057 
L 56.944016 213.916328 
L 57.107572 224.955104 
L 57.271128 284.476781 
L 57.434685 224.254617 
L 57.761798 207.323716 
L 58.252467 196.914058 
L 58.743136 191.299366 
L 59.233806 187.853108 
L 59.724475 185.772135 
L 60.215144 184.728884 
L 60.542257 184.539507 
L 60.86937 184.740828 
L 61.196483 185.343255 
L 61.523596 186.379326 
L 62.014265 188.894581 
L 62.504934 192.983413 
L 62.995603 199.818104 
L 63.322716 207.741303 
L 63.486273 214.223854 
L 63.649829 225.644001 
L 63.813385 266.95921 
L 63.976942 223.516841 
L 64.304055 207.033672 
L 64.794724 196.740368 
L 65.285393 191.165301 
L 65.776063 187.739597 
L 66.266732 185.671936 
L 66.757401 184.63894 
L 67.084514 184.455777 
L 67.411627 184.663369 
L 67.73874 185.272598 
L 68.065852 186.316586 
L 68.556522 188.847823 
L 69.047191 192.963399 
L 69.53786 199.856287 
L 69.864973 207.884302 
L 70.02853 214.50142 
L 70.192086 226.352133 
L 70.355642 258.468298 
L 70.519199 222.719526 
L 70.846312 206.679312 
L 71.336981 196.505481 
L 71.82765 190.971668 
L 72.318319 187.567581 
L 72.808989 185.514077 
L 73.299658 184.49211 
L 73.626771 184.315689 
L 73.953884 184.530123 
L 74.280997 185.146799 
L 74.608109 186.199473 
L 75.098779 188.748254 
L 75.589448 192.893182 
L 76.080117 199.8501 
L 76.40723 207.994451 
L 76.570787 214.763228 
L 76.734343 227.118181 
L 76.897899 252.501397 
L 77.061456 221.842822 
L 77.388569 206.252813 
L 77.879238 196.205133 
L 78.369907 190.715562 
L 78.860576 187.334936 
L 79.351246 185.296987 
L 79.841915 184.287288 
L 80.169028 184.118431 
L 80.496141 184.340576 
L 80.823254 184.965667 
L 81.150366 186.02816 
L 81.641036 188.596756 
L 82.131705 192.774791 
L 82.622374 199.804057 
L 82.949487 208.081117 
L 83.113043 215.025906 
L 83.440156 247.660559 
L 83.767269 211.511012 
L 84.094382 201.607307 
L 84.585051 193.704778 
L 85.075721 189.095261 
L 85.56639 186.238019 
L 86.057059 184.58177 
L 86.384172 184.023007 
L 86.711285 183.862853 
L 87.038398 184.093903 
L 87.365511 184.72873 
L 87.692623 185.802583 
L 88.183293 188.394066 
L 88.673962 192.610268 
L 89.164631 199.723116 
L 89.491744 208.155196 
L 89.6553 215.309803 
L 89.982413 243.409425 
L 90.309526 210.777782 
L 90.636639 201.08443 
L 91.127308 193.28151 
L 91.617978 188.71508 
L 92.108647 185.883371 
L 92.599316 184.245574 
L 92.926429 183.697411 
L 93.253542 183.547452 
L 93.580655 183.78897 
L 93.907767 184.435255 
L 94.23488 185.522473 
L 94.72555 188.140837 
L 95.216219 192.4018 
L 95.706888 199.612982 
L 96.034001 208.229933 
L 96.197557 215.640965 
L 96.52467 239.487149 
L 96.851783 209.933736 
L 97.178896 200.470763 
L 97.669565 192.779593 
L 98.160234 188.262297 
L 98.650904 185.460096 
L 99.141573 183.843889 
L 99.468686 183.308236 
L 99.795799 183.170367 
L 100.122912 183.424337 
L 100.450024 184.084267 
L 100.777137 185.187398 
L 101.267807 187.837729 
L 101.758476 192.151897 
L 102.085589 196.534755 
L 102.412702 203.236655 
L 102.739814 216.054316 
L 102.903371 232.199642 
L 103.066927 235.748388 
L 103.39404 208.966542 
L 103.721153 199.757504 
L 104.211822 192.192773 
L 104.702491 187.732037 
L 105.193161 184.964262 
L 105.68383 183.373541 
L 106.010943 182.852777 
L 106.338056 182.729363 
L 106.665169 182.998263 
L 106.992281 183.674578 
L 107.319394 184.796823 
L 107.810064 187.485535 
L 108.300733 191.863642 
L 108.627846 196.324662 
L 108.954958 203.190351 
L 109.282071 216.599004 
L 109.445628 234.787923 
L 109.609184 232.104178 
L 109.936297 207.863214 
L 110.26341 198.934807 
L 110.754079 191.513856 
L 111.244748 187.118625 
L 111.735418 184.391265 
L 112.226087 182.83081 
L 112.5532 182.327863 
L 112.880313 182.221829 
L 113.207426 182.508735 
L 113.534538 183.204846 
L 113.861651 184.350202 
L 114.35232 187.08536 
L 114.84299 191.541051 
L 115.170103 196.097548 
L 115.497215 203.166328 
L 115.824328 217.348006 
L 115.987885 238.839848 
L 116.64211 201.673211 
L 117.13278 192.713509 
L 117.623449 187.635232 
L 118.114118 184.484788 
L 118.604787 182.607302 
L 118.9319 181.920101 
L 119.259013 181.638394 
L 119.586126 181.74933 
L 119.913239 182.260193 
L 120.240352 183.199951 
L 120.731021 185.550284 
L 121.22169 189.417603 
L 121.71236 195.864158 
L 122.039472 203.188946 
L 122.366585 218.41674 
L 122.530142 246.321993 
L 122.857255 212.100327 
L 123.184367 200.471376 
L 123.675037 191.779486 
L 124.165706 186.810331 
L 124.656375 183.723859 
L 125.147044 181.892694 
L 125.474157 181.232097 
L 125.80127 180.975824 
L 126.128383 181.112554 
L 126.455496 181.651121 
L 126.782609 182.622405 
L 127.273278 185.033745 
L 127.763947 188.997231 
L 128.254617 195.63959 
L 128.581729 203.29335 
L 128.745286 209.469581 
L 128.908842 220.003189 
L 129.072399 271.186461 
L 129.235955 221.227922 
L 129.563068 203.594774 
L 130.053737 192.963308 
L 130.544406 187.238366 
L 131.035076 183.71119 
L 131.525745 181.562467 
L 132.016414 180.459632 
L 132.343527 180.234223 
L 132.67064 180.402414 
L 132.997753 180.974915 
L 133.324866 181.984959 
L 133.815535 184.471677 
L 134.306204 188.554992 
L 134.796873 195.445786 
L 135.123986 203.532451 
L 135.287543 210.253723 
L 135.451099 222.488253 
L 135.614656 249.04194 
L 135.778212 217.509502 
L 136.105325 201.800731 
L 136.595994 191.683139 
L 137.086663 186.142328 
L 137.577333 182.717543 
L 138.068002 180.640624 
L 138.558671 179.597262 
L 138.885784 179.409471 
L 139.212897 179.616234 
L 139.54001 180.230561 
L 139.867123 181.288615 
L 140.357792 183.869336 
L 140.848461 188.103835 
L 141.175574 192.416984 
L 141.502687 199.007289 
L 141.8298 211.508119 
L 142.156913 233.64557 
L 142.484025 205.218798 
L 142.811138 195.83116 
L 143.301808 188.15497 
L 143.792477 183.62832 
L 144.283146 180.811657 
L 144.773815 179.181876 
L 145.100928 178.639429 
L 145.428041 178.497743 
L 145.755154 178.752116 
L 146.082267 179.418403 
L 146.40938 180.536478 
L 146.900049 183.235796 
L 147.390718 187.664038 
L 147.717831 192.211174 
L 148.044944 199.290121 
L 148.372057 213.584199 
L 148.535613 235.74172 
L 149.026282 202.468399 
L 149.516952 190.975914 
L 150.007621 184.944919 
L 150.49829 181.244006 
L 150.988959 178.973067 
L 151.479629 177.772529 
L 151.806742 177.489265 
L 152.133854 177.602626 
L 152.460967 178.121352 
L 152.78808 179.076612 
L 153.278749 181.473058 
L 153.769419 185.43978 
L 154.260088 192.130435 
L 154.587201 199.903875 
L 154.750757 206.243305 
L 154.914314 217.281665 
L 155.07787 274.452776 
L 155.241426 216.41707 
L 155.568539 199.4678 
L 156.059209 188.991147 
L 156.549878 183.30903 
L 157.040547 179.800245 
L 157.531216 177.663921 
L 158.021886 176.574999 
L 158.348999 176.362318 
L 158.676111 176.547936 
L 159.003224 177.144762 
L 159.330337 178.189263 
L 159.821006 180.759156 
L 160.311676 185.002032 
L 160.638788 189.344043 
L 160.965901 196.015627 
L 161.293014 208.844631 
L 161.456571 225.144731 
L 161.620127 228.066306 
L 161.94724 201.51962 
L 162.274353 192.302297 
L 162.765022 184.702405 
L 163.255691 180.20547 
L 163.746361 177.406946 
L 164.23703 175.794331 
L 164.564143 175.265682 
L 164.891255 175.14146 
L 165.218368 175.418767 
L 165.545481 176.115909 
L 165.872594 177.276479 
L 166.363263 180.076186 
L 166.853933 184.696704 
L 167.181045 189.500682 
L 167.508158 197.164872 
L 167.671715 203.381368 
L 167.835271 214.066918 
L 167.998828 277.652124 
L 168.162384 214.558505 
L 168.489497 197.140977 
L 168.980166 186.53254 
L 169.470835 180.797955 
L 169.961505 177.259467 
L 170.452174 175.105489 
L 170.942843 174.008281 
L 171.269956 173.795311 
L 171.597069 173.985465 
L 171.924182 174.592783 
L 172.251295 175.655672 
L 172.741964 178.276106 
L 173.232633 182.623516 
L 173.559746 187.106882 
L 173.886859 194.090772 
L 174.213972 208.105221 
L 174.377528 229.019791 
L 175.19531 188.866744 
L 175.685979 181.536221 
L 176.176649 177.167047 
L 176.667318 174.454383 
L 177.157987 172.915003 
L 177.4851 172.435289 
L 177.812213 172.363837 
L 178.139326 172.701078 
L 178.466439 173.469535 
L 178.793552 174.718961 
L 179.284221 177.709166 
L 179.77489 182.66878 
L 180.102003 187.916803 
L 180.429116 196.632529 
L 180.592672 204.239864 
L 180.919785 225.05822 
L 181.246898 197.480148 
L 181.574011 188.166289 
L 182.06468 180.537199 
L 182.555349 176.060434 
L 183.046019 173.320119 
L 183.536688 171.811489 
L 183.863801 171.386985 
L 184.190914 171.406273 
L 184.518026 171.882814 
L 184.845139 172.861756 
L 185.172252 174.433297 
L 185.662921 178.306814 
L 185.990034 182.493468 
L 186.317147 189.243364 
L 186.64426 203.446968 
L 186.807816 227.28277 
L 187.298486 190.52308 
L 187.789155 178.330023 
L 188.279824 171.352581 
L 188.93405 165.144277 
L 189.751832 159.757704 
L 190.73317 154.864303 
L 192.695848 145.430234 
L 193.840743 138.558309 
L 195.639863 126.085464 
L 198.420322 106.931766 
L 200.383 94.908231 
L 202.345677 84.158104 
L 204.308354 74.533724 
L 206.271031 65.949716 
L 208.233708 58.38426 
L 210.032829 52.3511 
L 211.668393 47.624444 
L 213.140401 43.992707 
L 214.612408 40.952365 
L 215.92086 38.746272 
L 217.065755 37.198548 
L 218.21065 36.007118 
L 219.191988 35.268881 
L 220.173327 34.791427 
L 221.154665 34.574463 
L 222.136004 34.617852 
L 223.117342 34.921623 
L 224.098681 35.485966 
L 225.08002 36.311217 
L 226.224915 37.604363 
L 227.369809 39.254031 
L 228.678261 41.57687 
L 229.986712 44.367043 
L 231.45872 48.064421 
L 232.930728 52.3511 
L 234.566292 57.799961 
L 236.365413 64.618047 
L 238.164533 72.291878 
L 240.127211 81.651154 
L 242.089888 92.10756 
L 244.052565 103.798926 
L 246.015242 116.824981 
L 249.940596 143.589819 
L 251.085491 149.609051 
L 253.538837 161.701157 
L 254.193063 166.483387 
L 254.683732 171.352581 
L 255.174402 178.330023 
L 255.501514 185.413274 
L 255.828627 197.931794 
L 256.15574 227.28277 
L 256.482853 194.643217 
L 256.809966 185.411192 
L 257.300635 178.306814 
L 257.791304 174.433297 
L 258.281974 172.305151 
L 258.609086 171.585405 
L 258.936199 171.340975 
L 259.263312 171.543521 
L 259.590425 172.193532 
L 259.917538 173.320119 
L 260.408207 176.060434 
L 260.898876 180.537199 
L 261.225989 185.094196 
L 261.553102 192.101635 
L 261.880215 205.844469 
L 262.043771 225.05822 
L 262.207328 219.916461 
L 262.534441 196.632529 
L 262.861553 187.916803 
L 263.352223 180.722821 
L 263.842892 176.539291 
L 264.333561 174.029677 
L 264.824231 172.701078 
L 265.151343 172.363837 
L 265.478456 172.435289 
L 265.805569 172.915003 
L 266.132682 173.824562 
L 266.623351 176.111305 
L 267.114021 179.844244 
L 267.60469 185.932842 
L 267.931803 192.583077 
L 268.258915 205.019078 
L 268.586028 229.019791 
L 268.913141 199.520983 
L 269.240254 190.156034 
L 269.730923 182.623516 
L 270.221593 178.276106 
L 270.712262 175.655672 
L 271.202931 174.235221 
L 271.530044 173.839631 
L 271.857157 173.851449 
L 272.18427 174.267352 
L 272.511383 175.105489 
L 273.002052 177.259467 
L 273.492721 180.797955 
L 273.98339 186.53254 
L 274.310503 192.671517 
L 274.637616 203.521518 
L 274.801172 214.558505 
L 274.964729 277.652124 
L 275.128285 214.066918 
L 275.455398 197.164872 
L 275.946067 186.860933 
L 276.436737 181.367623 
L 276.927406 178.053549 
L 277.418075 176.115909 
L 277.745188 175.418767 
L 278.072301 175.14146 
L 278.399414 175.265682 
L 278.726527 175.794331 
L 279.053639 176.752145 
L 279.544309 179.118455 
L 280.034978 182.959854 
L 280.525647 189.247997 
L 280.85276 196.204905 
L 281.179873 209.727684 
L 281.343429 228.066306 
L 281.506986 225.144731 
L 281.834099 201.095793 
L 282.161212 192.272701 
L 282.651881 185.002032 
L 283.14255 180.759156 
L 283.633219 178.189263 
L 284.123889 176.793287 
L 284.451001 176.405029 
L 284.778114 176.418867 
L 285.105227 176.832319 
L 285.43234 177.663921 
L 285.923009 179.800245 
L 286.413679 183.30903 
L 286.904348 188.991147 
L 287.231461 195.061607 
L 287.558574 205.727847 
L 287.72213 216.41707 
L 287.885686 274.452776 
L 288.049243 217.281665 
L 288.376356 199.903875 
L 288.867025 189.458436 
L 289.357694 183.896612 
L 289.848363 180.529281 
L 290.339033 178.54144 
L 290.666146 177.809949 
L 290.993258 177.496303 
L 291.320371 177.581071 
L 291.647484 178.065745 
L 291.974597 178.973067 
L 292.465266 181.244006 
L 292.955936 184.944919 
L 293.446605 190.975914 
L 293.773718 197.552588 
L 294.10083 209.781764 
L 294.427943 235.74172 
L 294.755056 204.807041 
L 295.082169 195.300979 
L 295.572838 187.664038 
L 296.063508 183.235796 
L 296.554177 180.536478 
L 297.044846 179.031917 
L 297.371959 178.57493 
L 297.699072 178.519257 
L 298.026185 178.859463 
L 298.353298 179.61063 
L 298.843967 181.601662 
L 299.334636 184.906101 
L 299.825305 190.235724 
L 300.152418 195.83116 
L 300.479531 205.218798 
L 300.643087 213.701691 
L 300.806644 233.64557 
L 300.9702 226.752916 
L 301.297313 203.989969 
L 301.787982 192.416984 
L 302.278652 186.456359 
L 302.769321 182.85833 
L 303.25999 180.700776 
L 303.75066 179.616234 
L 304.077772 179.409471 
L 304.404885 179.597262 
L 304.731998 180.186937 
L 305.059111 181.207735 
L 305.54978 183.685265 
L 306.040449 187.691508 
L 306.531119 194.306787 
L 306.858232 201.800731 
L 307.185344 217.509502 
L 307.348901 249.04194 
L 307.676014 210.253723 
L 308.003127 198.921074 
L 308.493796 190.435134 
L 308.984465 185.619736 
L 309.475134 182.672354 
L 309.965804 180.974915 
L 310.292916 180.402414 
L 310.620029 180.234223 
L 310.947142 180.459632 
L 311.274255 181.088144 
L 311.601368 182.151524 
L 312.092037 184.708231 
L 312.582706 188.83517 
L 313.073376 195.692456 
L 313.400489 203.594774 
L 313.564045 210.021723 
L 313.727601 221.227922 
L 313.891158 271.186461 
L 314.054714 220.003189 
L 314.381827 203.29335 
L 314.872496 192.992599 
L 315.363166 187.458071 
L 315.853835 184.086476 
L 316.344504 182.079734 
L 316.671617 181.330247 
L 316.99873 180.994985 
L 317.325843 181.054607 
L 317.652956 181.510325 
L 317.980068 182.384163 
L 318.470738 184.593085 
L 318.961407 188.207467 
L 319.452076 194.092696 
L 319.779189 200.471376 
L 320.106302 212.100327 
L 320.433415 246.321993 
L 320.760528 208.972464 
L 321.08764 199.051539 
L 321.57831 191.18962 
L 322.068979 186.638903 
L 322.559648 183.847133 
L 323.050318 182.260193 
L 323.37743 181.74933 
L 323.704543 181.638394 
L 324.031656 181.920101 
L 324.358769 182.607302 
L 324.849438 184.484788 
L 325.340107 187.635232 
L 325.830777 192.713509 
L 326.15789 197.991617 
L 326.485002 206.610018 
L 326.648559 213.98071 
L 326.975672 238.839848 
L 327.302785 208.656083 
L 327.629897 199.186299 
L 328.120567 191.541051 
L 328.611236 187.08536 
L 329.101905 184.350202 
L 329.592574 182.80377 
L 329.919687 182.315641 
L 330.2468 182.225944 
L 330.573913 182.528689 
L 330.901026 183.238019 
L 331.391695 185.154375 
L 331.882364 188.359183 
L 332.373034 193.531691 
L 332.700147 198.934807 
L 333.027259 207.863214 
L 333.190816 215.675621 
L 333.354372 232.104178 
L 333.517929 234.787923 
L 333.845042 208.453977 
L 334.172154 199.334506 
L 334.662824 191.863642 
L 335.153493 187.485535 
L 335.644162 184.796823 
L 336.134831 183.283707 
L 336.461944 182.814318 
L 336.789057 182.74218 
L 337.11617 183.062388 
L 337.443283 183.790185 
L 337.933952 185.739258 
L 338.424621 188.990387 
L 338.915291 194.244402 
L 339.242404 199.757504 
L 339.569516 208.966542 
L 339.733073 217.19807 
L 339.896629 235.748388 
L 340.060186 232.199642 
L 340.387298 208.322125 
L 340.714411 199.480546 
L 341.205081 192.151897 
L 341.69575 187.837729 
L 342.186419 185.187398 
L 342.677088 183.701839 
L 343.004201 183.247973 
L 343.331314 183.190415 
L 343.658427 183.525179 
L 343.98554 184.268449 
L 344.476209 186.245172 
L 344.966878 189.535927 
L 345.457548 194.860689 
L 345.78466 200.470763 
L 346.111773 209.933736 
L 346.27533 218.561529 
L 346.438886 239.487149 
L 347.256668 199.612982 
L 347.747338 192.4018 
L 348.238007 188.140837 
L 348.728676 185.522473 
L 349.219345 184.059858 
L 349.546458 183.618927 
L 349.873571 183.573542 
L 350.200684 183.920505 
L 350.527797 184.676816 
L 351.018466 186.677049 
L 351.509135 190.001914 
L 351.999805 195.388443 
L 352.326917 201.08443 
L 352.65403 210.777782 
L 352.817587 219.780092 
L 352.981143 243.409425 
L 353.471812 208.155196 
L 353.962482 196.874061 
L 354.453151 190.973833 
L 354.94382 187.381685 
L 355.434489 185.207514 
L 355.925159 184.093903 
L 356.252272 183.862853 
L 356.579384 184.023007 
L 356.906497 184.58177 
L 357.23361 185.568098 
L 357.724279 187.985351 
L 358.214949 191.914263 
L 358.705618 198.410222 
L 359.032731 205.745969 
L 359.359844 220.86861 
L 359.5234 247.660559 
L 359.850513 215.025906 
L 360.177626 203.35429 
L 360.668295 194.69317 
L 361.158964 189.774193 
L 361.649634 186.742172 
L 362.140303 184.965667 
L 362.467416 184.340576 
L 362.794529 184.118431 
L 363.121641 184.287288 
L 363.448754 184.855149 
L 363.775867 185.851668 
L 364.266536 188.288547 
L 364.757206 192.248655 
L 365.247875 198.80893 
L 365.574988 206.252813 
L 365.902101 221.842822 
L 366.065657 252.501397 
L 366.39277 214.763228 
L 366.719883 203.351317 
L 367.210552 194.794394 
L 367.701221 189.916765 
L 368.191891 186.907746 
L 368.68256 185.146799 
L 369.009673 184.530123 
L 369.336786 184.315689 
L 369.663898 184.49211 
L 369.991011 185.067926 
L 370.318124 186.073421 
L 370.808793 188.527777 
L 371.299463 192.516029 
L 371.790132 199.135111 
L 372.117245 206.679312 
L 372.444358 222.719526 
L 372.607914 258.468298 
L 372.935027 214.50142 
L 373.26214 203.314346 
L 373.752809 194.849392 
L 374.243478 190.008425 
L 374.734148 187.01978 
L 375.224817 185.272598 
L 375.55193 184.663369 
L 375.879043 184.455777 
L 376.206155 184.63894 
L 376.533268 185.221893 
L 376.860381 186.235506 
L 377.35105 188.705833 
L 377.84172 192.720121 
L 378.332389 199.394272 
L 378.659502 207.033672 
L 378.823058 213.161734 
L 378.986615 223.516841 
L 379.150171 266.95921 
L 379.313727 225.644001 
L 379.64084 207.741303 
L 380.13151 197.093058 
L 380.622179 191.398504 
L 381.112848 187.911257 
L 381.603517 185.804029 
L 382.094187 184.740828 
L 382.421299 184.539507 
L 382.748412 184.728884 
L 383.075525 185.318459 
L 383.402638 186.339662 
L 383.893307 188.825066 
L 384.383977 192.864192 
L 384.874646 199.591434 
L 385.201759 207.323716 
L 385.365315 213.566191 
L 385.528872 224.254617 
L 385.692428 284.476781 
L 385.855984 224.955104 
L 386.183097 207.557057 
L 386.673766 197.030426 
L 387.164436 191.376373 
L 387.655105 187.90986 
L 388.145774 185.815876 
L 388.636444 184.762703 
L 388.8 184.616047 
L 388.8 184.616047 
" clip-path="url(#p2fec48ec99)" style="fill: none; stroke: #1f77b4; stroke-width: 1.5; stroke-linecap: square"/>
   </g>
   <g id="patch_3">
    <path d="M 54 252 
L 54 34.56 
" style="fill: none; stroke: #000000; stroke-width: 0.8; stroke-linejoin: miter; stroke-linecap: square"/>
   </g>
   <g id="patch_4">
    <path d="M 388.8 252 
L 388.8 34.56 
" style="fill: none; stroke: #000000; stroke-width: 0.8; stroke-linejoin: miter; stroke-linecap: square"/>
   </g>
   <g id="patch_5">
    <path d="M 54 252 
L 388.8 252 
" style="fill: none; stroke: #000000; stroke-width: 0.8; stroke-linejoin: miter; stroke-linecap: square"/>
   </g>
   <g id="patch_6">
    <path d="M 54 34.56 
L 388.8 34.56 
" style="fill: none; stroke: #000000; stroke-width: 0.8; stroke-linejoin: miter; stroke-linecap: square"/>
   </g>
   <g id="text_15">
    <!-- Respuesta en frecuencia de ventana Gaussian ($\sigma$=7) -->
    <g transform="translate(62.58 28.56)scale(0.12 -0.12)">
     <defs>
      <path id="DejaVuSans-52" d="M 2841 2188 
Q 3044 2119 3236 1894 
Q 3428 1669 3622 1275 
L 4263 0 
L 3584 0 
L 2988 1197 
Q 2756 1666 2539 1819 
Q 2322 1972 1947 1972 
L 1259 1972 
L 1259 0 
L 628 0 
L 628 4666 
L 2053 4666 
Q 2853 4666 3247 4331 
Q 3641 3997 3641 3322 
Q 3641 2881 3436 2590 
Q 3231 2300 2841 2188 
z
M 1259 4147 
L 1259 2491 
L 2053 2491 
Q 2509 2491 2742 2702 
Q 2975 2913 2975 3322 
Q 2975 3731 2742 3939 
Q 2509 4147 2053 4147 
L 1259 4147 
z
" transform="scale(0.015625)"/>
      <path id="DejaVuSans-66" d="M 2375 4863 
L 2375 4384 
L 1825 4384 
Q 1516 4384 1395 4259 
Q 1275 4134 1275 3809 
L 1275 3500 
L 2222 3500 
L 2222 3053 
L 1275 3053 
L 1275 0 
L 697 0 
L 697 3053 
L 147 3053 
L 147 3500 
L 697 3500 
L 697 3744 
Q 697 4328 969 4595 
Q 1241 4863 1831 4863 
L 2375 4863 
z
" transform="scale(0.015625)"/>
      <path id="DejaVuSans-76" d="M 191 3500 
L 800 3500 
L 1894 563 
L 2988 3500 
L 3597 3500 
L 2284 0 
L 1503 0 
L 191 3500 
z
" transform="scale(0.015625)"/>
      <path id="DejaVuSans-47" d="M 3809 666 
L 3809 1919 
L 2778 1919 
L 2778 2438 
L 4434 2438 
L 4434 434 
Q 4069 175 3628 42 
Q 3188 -91 2688 -91 
Q 1594 -91 976 548 
Q 359 1188 359 2328 
Q 359 3472 976 4111 
Q 1594 4750 2688 4750 
Q 3144 4750 3555 4637 
Q 3966 4525 4313 4306 
L 4313 3634 
Q 3963 3931 3569 4081 
Q 3175 4231 2741 4231 
Q 1884 4231 1454 3753 
Q 1025 3275 1025 2328 
Q 1025 1384 1454 906 
Q 1884 428 2741 428 
Q 3075 428 3337 486 
Q 3600 544 3809 666 
z
" transform="scale(0.015625)"/>
      <path id="DejaVuSans-28" d="M 1984 4856 
Q 1566 4138 1362 3434 
Q 1159 2731 1159 2009 
Q 1159 1288 1364 580 
Q 1569 -128 1984 -844 
L 1484 -844 
Q 1016 -109 783 600 
Q 550 1309 550 2009 
Q 550 2706 781 3412 
Q 1013 4119 1484 4856 
L 1984 4856 
z
" transform="scale(0.015625)"/>
      <path id="DejaVuSans-Oblique-3c3" d="M 2219 3044 
Q 1744 3044 1422 2700 
Q 1081 2341 969 1747 
Q 844 1119 1044 756 
Q 1241 397 1706 397 
Q 2166 397 2503 759 
Q 2844 1122 2966 1747 
Q 3075 2319 2881 2700 
Q 2700 3044 2219 3044 
z
M 2309 3503 
L 4219 3500 
L 4106 2925 
L 3463 2925 
Q 3706 2438 3575 1747 
Q 3406 888 2884 400 
Q 2359 -91 1609 -91 
Q 856 -91 525 400 
Q 194 888 363 1747 
Q 528 2609 1050 3097 
Q 1484 3503 2309 3503 
z
" transform="scale(0.015625)"/>
      <path id="DejaVuSans-3d" d="M 678 2906 
L 4684 2906 
L 4684 2381 
L 678 2381 
L 678 2906 
z
M 678 1631 
L 4684 1631 
L 4684 1100 
L 678 1100 
L 678 1631 
z
" transform="scale(0.015625)"/>
      <path id="DejaVuSans-37" d="M 525 4666 
L 3525 4666 
L 3525 4397 
L 1831 0 
L 1172 0 
L 2766 4134 
L 525 4134 
L 525 4666 
z
" transform="scale(0.015625)"/>
      <path id="DejaVuSans-29" d="M 513 4856 
L 1013 4856 
Q 1481 4119 1714 3412 
Q 1947 2706 1947 2009 
Q 1947 1309 1714 600 
Q 1481 -109 1013 -844 
L 513 -844 
Q 928 -128 1133 580 
Q 1338 1288 1338 2009 
Q 1338 2731 1133 3434 
Q 928 4138 513 4856 
z
" transform="scale(0.015625)"/>
     </defs>
     <use xlink:href="#DejaVuSans-52" transform="translate(0 0.015625)"/>
     <use xlink:href="#DejaVuSans-65" transform="translate(69.482422 0.015625)"/>
     <use xlink:href="#DejaVuSans-73" transform="translate(131.005859 0.015625)"/>
     <use xlink:href="#DejaVuSans-70" transform="translate(183.105469 0.015625)"/>
     <use xlink:href="#DejaVuSans-75" transform="translate(246.582031 0.015625)"/>
     <use xlink:href="#DejaVuSans-65" transform="translate(309.960938 0.015625)"/>
     <use xlink:href="#DejaVuSans-73" transform="translate(371.484375 0.015625)"/>
     <use xlink:href="#DejaVuSans-74" transform="translate(423.583984 0.015625)"/>
     <use xlink:href="#DejaVuSans-61" transform="translate(462.792969 0.015625)"/>
     <use xlink:href="#DejaVuSans-20" transform="translate(524.072266 0.015625)"/>
     <use xlink:href="#DejaVuSans-65" transform="translate(555.859375 0.015625)"/>
     <use xlink:href="#DejaVuSans-6e" transform="translate(617.382812 0.015625)"/>
     <use xlink:href="#DejaVuSans-20" transform="translate(680.761719 0.015625)"/>
     <use xlink:href="#DejaVuSans-66" transform="translate(712.548828 0.015625)"/>
     <use xlink:href="#DejaVuSans-72" transform="translate(747.753906 0.015625)"/>
     <use xlink:href="#DejaVuSans-65" transform="translate(788.867188 0.015625)"/>
     <use xlink:href="#DejaVuSans-63" transform="translate(850.390625 0.015625)"/>
     <use xlink:href="#DejaVuSans-75" transform="translate(905.371094 0.015625)"/>
     <use xlink:href="#DejaVuSans-65" transform="translate(968.75 0.015625)"/>
     <use xlink:href="#DejaVuSans-6e" transform="translate(1030.273438 0.015625)"/>
     <use xlink:href="#DejaVuSans-63" transform="translate(1093.652344 0.015625)"/>
     <use xlink:href="#DejaVuSans-69" transform="translate(1148.632812 0.015625)"/>
     <use xlink:href="#DejaVuSans-61" transform="translate(1176.416016 0.015625)"/>
     <use xlink:href="#DejaVuSans-20" transform="translate(1237.695312 0.015625)"/>
     <use xlink:href="#DejaVuSans-64" transform="translate(1269.482422 0.015625)"/>
     <use xlink:href="#DejaVuSans-65" transform="translate(1332.958984 0.015625)"/>
     <use xlink:href="#DejaVuSans-20" transform="translate(1394.482422 0.015625)"/>
     <use xlink:href="#DejaVuSans-76" transform="translate(1426.269531 0.015625)"/>
     <use xlink:href="#DejaVuSans-65" transform="translate(1485.449219 0.015625)"/>
     <use xlink:href="#DejaVuSans-6e" transform="translate(1546.972656 0.015625)"/>
     <use xlink:href="#DejaVuSans-74" transform="translate(1610.351562 0.015625)"/>
     <use xlink:href="#DejaVuSans-61" transform="translate(1649.560547 0.015625)"/>
     <use xlink:href="#DejaVuSans-6e" transform="translate(1710.839844 0.015625)"/>
     <use xlink:href="#DejaVuSans-61" transform="translate(1774.21875 0.015625)"/>
     <use xlink:href="#DejaVuSans-20" transform="translate(1835.498047 0.015625)"/>
     <use xlink:href="#DejaVuSans-47" transform="translate(1867.285156 0.015625)"/>
     <use xlink:href="#DejaVuSans-61" transform="translate(1944.775391 0.015625)"/>
     <use xlink:href="#DejaVuSans-75" transform="translate(2006.054688 0.015625)"/>
     <use xlink:href="#DejaVuSans-73" transform="translate(2069.433594 0.015625)"/>
     <use xlink:href="#DejaVuSans-73" transform="translate(2121.533203 0.015625)"/>
     <use xlink:href="#DejaVuSans-69" transform="translate(2173.632812 0.015625)"/>
     <use xlink:href="#DejaVuSans-61" transform="translate(2201.416016 0.015625)"/>
     <use xlink:href="#DejaVuSans-6e" transform="translate(2262.695312 0.015625)"/>
     <use xlink:href="#DejaVuSans-20" transform="translate(2326.074219 0.015625)"/>
     <use xlink:href="#DejaVuSans-28" transform="translate(2357.861328 0.015625)"/>
     <use xlink:href="#DejaVuSans-Oblique-3c3" transform="translate(2396.875 0.015625)"/>
     <use xlink:href="#DejaVuSans-3d" transform="translate(2460.253906 0.015625)"/>
     <use xlink:href="#DejaVuSans-37" transform="translate(2544.042969 0.015625)"/>
     <use xlink:href="#DejaVuSans-29" transform="translate(2607.666016 0.015625)"/>
    </g>
   </g>
  </g>
 </g>
 <defs>
  <clipPath id="p2fec48ec99">
   <rect x="54" y="34.56" width="334.8" height="217.44"/>
  </clipPath>
 </defs>
</svg>
