<?xml version="1.0" encoding="utf-8" standalone="no"?>
<!DOCTYPE svg PUBLIC "-//W3C//DTD SVG 1.1//EN"
  "http://www.w3.org/Graphics/SVG/1.1/DTD/svg11.dtd">
<svg xmlns:xlink="http://www.w3.org/1999/xlink" width="432pt" height="288pt" viewBox="0 0 432 288" xmlns="http://www.w3.org/2000/svg" version="1.1">
 <metadata>
  <rdf:RDF xmlns:dc="http://purl.org/dc/elements/1.1/" xmlns:cc="http://creativecommons.org/ns#" xmlns:rdf="http://www.w3.org/1999/02/22-rdf-syntax-ns#">
   <cc:Work>
    <dc:type rdf:resource="http://purl.org/dc/dcmitype/StillImage"/>
    <dc:date>2022-10-25T16:08:06.585557</dc:date>
    <dc:format>image/svg+xml</dc:format>
    <dc:creator>
     <cc:Agent>
      <dc:title>Matplotlib v3.5.1, https://matplotlib.org/</dc:title>
     </cc:Agent>
    </dc:creator>
   </cc:Work>
  </rdf:RDF>
 </metadata>
 <defs>
  <style type="text/css">*{stroke-linejoin: round; stroke-linecap: butt}</style>
 </defs>
 <g id="figure_1">
  <g id="patch_1">
   <path d="M 0 288 
L 432 288 
L 432 0 
L 0 0 
L 0 288 
z
" style="fill: none"/>
  </g>
  <g id="axes_1">
   <g id="patch_2">
    <path d="M 54 252 
L 388.8 252 
L 388.8 34.56 
L 54 34.56 
z
" style="fill: #ffffff"/>
   </g>
   <g id="matplotlib.axis_1">
    <g id="xtick_1">
     <g id="line2d_1">
      <defs>
       <path id="mcf49ce96f8" d="M 0 0 
L 0 3.5 
" style="stroke: #000000; stroke-width: 0.8"/>
      </defs>
      <g>
       <use xlink:href="#mcf49ce96f8" x="87.48" y="252" style="stroke: #000000; stroke-width: 0.8"/>
      </g>
     </g>
     <g id="text_1">
      <!-- −0.4 -->
      <g transform="translate(75.338594 266.598437)scale(0.1 -0.1)">
       <defs>
        <path id="DejaVuSans-2212" d="M 678 2272 
L 4684 2272 
L 4684 1741 
L 678 1741 
L 678 2272 
z
" transform="scale(0.015625)"/>
        <path id="DejaVuSans-30" d="M 2034 4250 
Q 1547 4250 1301 3770 
Q 1056 3291 1056 2328 
Q 1056 1369 1301 889 
Q 1547 409 2034 409 
Q 2525 409 2770 889 
Q 3016 1369 3016 2328 
Q 3016 3291 2770 3770 
Q 2525 4250 2034 4250 
z
M 2034 4750 
Q 2819 4750 3233 4129 
Q 3647 3509 3647 2328 
Q 3647 1150 3233 529 
Q 2819 -91 2034 -91 
Q 1250 -91 836 529 
Q 422 1150 422 2328 
Q 422 3509 836 4129 
Q 1250 4750 2034 4750 
z
" transform="scale(0.015625)"/>
        <path id="DejaVuSans-2e" d="M 684 794 
L 1344 794 
L 1344 0 
L 684 0 
L 684 794 
z
" transform="scale(0.015625)"/>
        <path id="DejaVuSans-34" d="M 2419 4116 
L 825 1625 
L 2419 1625 
L 2419 4116 
z
M 2253 4666 
L 3047 4666 
L 3047 1625 
L 3713 1625 
L 3713 1100 
L 3047 1100 
L 3047 0 
L 2419 0 
L 2419 1100 
L 313 1100 
L 313 1709 
L 2253 4666 
z
" transform="scale(0.015625)"/>
       </defs>
       <use xlink:href="#DejaVuSans-2212"/>
       <use xlink:href="#DejaVuSans-30" x="83.789062"/>
       <use xlink:href="#DejaVuSans-2e" x="147.412109"/>
       <use xlink:href="#DejaVuSans-34" x="179.199219"/>
      </g>
     </g>
    </g>
    <g id="xtick_2">
     <g id="line2d_2">
      <g>
       <use xlink:href="#mcf49ce96f8" x="154.44" y="252" style="stroke: #000000; stroke-width: 0.8"/>
      </g>
     </g>
     <g id="text_2">
      <!-- −0.2 -->
      <g transform="translate(142.298594 266.598437)scale(0.1 -0.1)">
       <defs>
        <path id="DejaVuSans-32" d="M 1228 531 
L 3431 531 
L 3431 0 
L 469 0 
L 469 531 
Q 828 903 1448 1529 
Q 2069 2156 2228 2338 
Q 2531 2678 2651 2914 
Q 2772 3150 2772 3378 
Q 2772 3750 2511 3984 
Q 2250 4219 1831 4219 
Q 1534 4219 1204 4116 
Q 875 4013 500 3803 
L 500 4441 
Q 881 4594 1212 4672 
Q 1544 4750 1819 4750 
Q 2544 4750 2975 4387 
Q 3406 4025 3406 3419 
Q 3406 3131 3298 2873 
Q 3191 2616 2906 2266 
Q 2828 2175 2409 1742 
Q 1991 1309 1228 531 
z
" transform="scale(0.015625)"/>
       </defs>
       <use xlink:href="#DejaVuSans-2212"/>
       <use xlink:href="#DejaVuSans-30" x="83.789062"/>
       <use xlink:href="#DejaVuSans-2e" x="147.412109"/>
       <use xlink:href="#DejaVuSans-32" x="179.199219"/>
      </g>
     </g>
    </g>
    <g id="xtick_3">
     <g id="line2d_3">
      <g>
       <use xlink:href="#mcf49ce96f8" x="221.4" y="252" style="stroke: #000000; stroke-width: 0.8"/>
      </g>
     </g>
     <g id="text_3">
      <!-- 0.0 -->
      <g transform="translate(213.448438 266.598437)scale(0.1 -0.1)">
       <use xlink:href="#DejaVuSans-30"/>
       <use xlink:href="#DejaVuSans-2e" x="63.623047"/>
       <use xlink:href="#DejaVuSans-30" x="95.410156"/>
      </g>
     </g>
    </g>
    <g id="xtick_4">
     <g id="line2d_4">
      <g>
       <use xlink:href="#mcf49ce96f8" x="288.36" y="252" style="stroke: #000000; stroke-width: 0.8"/>
      </g>
     </g>
     <g id="text_4">
      <!-- 0.2 -->
      <g transform="translate(280.408437 266.598437)scale(0.1 -0.1)">
       <use xlink:href="#DejaVuSans-30"/>
       <use xlink:href="#DejaVuSans-2e" x="63.623047"/>
       <use xlink:href="#DejaVuSans-32" x="95.410156"/>
      </g>
     </g>
    </g>
    <g id="xtick_5">
     <g id="line2d_5">
      <g>
       <use xlink:href="#mcf49ce96f8" x="355.32" y="252" style="stroke: #000000; stroke-width: 0.8"/>
      </g>
     </g>
     <g id="text_5">
      <!-- 0.4 -->
      <g transform="translate(347.368437 266.598437)scale(0.1 -0.1)">
       <use xlink:href="#DejaVuSans-30"/>
       <use xlink:href="#DejaVuSans-2e" x="63.623047"/>
       <use xlink:href="#DejaVuSans-34" x="95.410156"/>
      </g>
     </g>
    </g>
    <g id="text_6">
     <!-- Frecuencia Normalizada [ciclos por muestra] -->
     <g transform="translate(109.807031 280.276563)scale(0.1 -0.1)">
      <defs>
       <path id="DejaVuSans-46" d="M 628 4666 
L 3309 4666 
L 3309 4134 
L 1259 4134 
L 1259 2759 
L 3109 2759 
L 3109 2228 
L 1259 2228 
L 1259 0 
L 628 0 
L 628 4666 
z
" transform="scale(0.015625)"/>
       <path id="DejaVuSans-72" d="M 2631 2963 
Q 2534 3019 2420 3045 
Q 2306 3072 2169 3072 
Q 1681 3072 1420 2755 
Q 1159 2438 1159 1844 
L 1159 0 
L 581 0 
L 581 3500 
L 1159 3500 
L 1159 2956 
Q 1341 3275 1631 3429 
Q 1922 3584 2338 3584 
Q 2397 3584 2469 3576 
Q 2541 3569 2628 3553 
L 2631 2963 
z
" transform="scale(0.015625)"/>
       <path id="DejaVuSans-65" d="M 3597 1894 
L 3597 1613 
L 953 1613 
Q 991 1019 1311 708 
Q 1631 397 2203 397 
Q 2534 397 2845 478 
Q 3156 559 3463 722 
L 3463 178 
Q 3153 47 2828 -22 
Q 2503 -91 2169 -91 
Q 1331 -91 842 396 
Q 353 884 353 1716 
Q 353 2575 817 3079 
Q 1281 3584 2069 3584 
Q 2775 3584 3186 3129 
Q 3597 2675 3597 1894 
z
M 3022 2063 
Q 3016 2534 2758 2815 
Q 2500 3097 2075 3097 
Q 1594 3097 1305 2825 
Q 1016 2553 972 2059 
L 3022 2063 
z
" transform="scale(0.015625)"/>
       <path id="DejaVuSans-63" d="M 3122 3366 
L 3122 2828 
Q 2878 2963 2633 3030 
Q 2388 3097 2138 3097 
Q 1578 3097 1268 2742 
Q 959 2388 959 1747 
Q 959 1106 1268 751 
Q 1578 397 2138 397 
Q 2388 397 2633 464 
Q 2878 531 3122 666 
L 3122 134 
Q 2881 22 2623 -34 
Q 2366 -91 2075 -91 
Q 1284 -91 818 406 
Q 353 903 353 1747 
Q 353 2603 823 3093 
Q 1294 3584 2113 3584 
Q 2378 3584 2631 3529 
Q 2884 3475 3122 3366 
z
" transform="scale(0.015625)"/>
       <path id="DejaVuSans-75" d="M 544 1381 
L 544 3500 
L 1119 3500 
L 1119 1403 
Q 1119 906 1312 657 
Q 1506 409 1894 409 
Q 2359 409 2629 706 
Q 2900 1003 2900 1516 
L 2900 3500 
L 3475 3500 
L 3475 0 
L 2900 0 
L 2900 538 
Q 2691 219 2414 64 
Q 2138 -91 1772 -91 
Q 1169 -91 856 284 
Q 544 659 544 1381 
z
M 1991 3584 
L 1991 3584 
z
" transform="scale(0.015625)"/>
       <path id="DejaVuSans-6e" d="M 3513 2113 
L 3513 0 
L 2938 0 
L 2938 2094 
Q 2938 2591 2744 2837 
Q 2550 3084 2163 3084 
Q 1697 3084 1428 2787 
Q 1159 2491 1159 1978 
L 1159 0 
L 581 0 
L 581 3500 
L 1159 3500 
L 1159 2956 
Q 1366 3272 1645 3428 
Q 1925 3584 2291 3584 
Q 2894 3584 3203 3211 
Q 3513 2838 3513 2113 
z
" transform="scale(0.015625)"/>
       <path id="DejaVuSans-69" d="M 603 3500 
L 1178 3500 
L 1178 0 
L 603 0 
L 603 3500 
z
M 603 4863 
L 1178 4863 
L 1178 4134 
L 603 4134 
L 603 4863 
z
" transform="scale(0.015625)"/>
       <path id="DejaVuSans-61" d="M 2194 1759 
Q 1497 1759 1228 1600 
Q 959 1441 959 1056 
Q 959 750 1161 570 
Q 1363 391 1709 391 
Q 2188 391 2477 730 
Q 2766 1069 2766 1631 
L 2766 1759 
L 2194 1759 
z
M 3341 1997 
L 3341 0 
L 2766 0 
L 2766 531 
Q 2569 213 2275 61 
Q 1981 -91 1556 -91 
Q 1019 -91 701 211 
Q 384 513 384 1019 
Q 384 1609 779 1909 
Q 1175 2209 1959 2209 
L 2766 2209 
L 2766 2266 
Q 2766 2663 2505 2880 
Q 2244 3097 1772 3097 
Q 1472 3097 1187 3025 
Q 903 2953 641 2809 
L 641 3341 
Q 956 3463 1253 3523 
Q 1550 3584 1831 3584 
Q 2591 3584 2966 3190 
Q 3341 2797 3341 1997 
z
" transform="scale(0.015625)"/>
       <path id="DejaVuSans-20" transform="scale(0.015625)"/>
       <path id="DejaVuSans-4e" d="M 628 4666 
L 1478 4666 
L 3547 763 
L 3547 4666 
L 4159 4666 
L 4159 0 
L 3309 0 
L 1241 3903 
L 1241 0 
L 628 0 
L 628 4666 
z
" transform="scale(0.015625)"/>
       <path id="DejaVuSans-6f" d="M 1959 3097 
Q 1497 3097 1228 2736 
Q 959 2375 959 1747 
Q 959 1119 1226 758 
Q 1494 397 1959 397 
Q 2419 397 2687 759 
Q 2956 1122 2956 1747 
Q 2956 2369 2687 2733 
Q 2419 3097 1959 3097 
z
M 1959 3584 
Q 2709 3584 3137 3096 
Q 3566 2609 3566 1747 
Q 3566 888 3137 398 
Q 2709 -91 1959 -91 
Q 1206 -91 779 398 
Q 353 888 353 1747 
Q 353 2609 779 3096 
Q 1206 3584 1959 3584 
z
" transform="scale(0.015625)"/>
       <path id="DejaVuSans-6d" d="M 3328 2828 
Q 3544 3216 3844 3400 
Q 4144 3584 4550 3584 
Q 5097 3584 5394 3201 
Q 5691 2819 5691 2113 
L 5691 0 
L 5113 0 
L 5113 2094 
Q 5113 2597 4934 2840 
Q 4756 3084 4391 3084 
Q 3944 3084 3684 2787 
Q 3425 2491 3425 1978 
L 3425 0 
L 2847 0 
L 2847 2094 
Q 2847 2600 2669 2842 
Q 2491 3084 2119 3084 
Q 1678 3084 1418 2786 
Q 1159 2488 1159 1978 
L 1159 0 
L 581 0 
L 581 3500 
L 1159 3500 
L 1159 2956 
Q 1356 3278 1631 3431 
Q 1906 3584 2284 3584 
Q 2666 3584 2933 3390 
Q 3200 3197 3328 2828 
z
" transform="scale(0.015625)"/>
       <path id="DejaVuSans-6c" d="M 603 4863 
L 1178 4863 
L 1178 0 
L 603 0 
L 603 4863 
z
" transform="scale(0.015625)"/>
       <path id="DejaVuSans-7a" d="M 353 3500 
L 3084 3500 
L 3084 2975 
L 922 459 
L 3084 459 
L 3084 0 
L 275 0 
L 275 525 
L 2438 3041 
L 353 3041 
L 353 3500 
z
" transform="scale(0.015625)"/>
       <path id="DejaVuSans-64" d="M 2906 2969 
L 2906 4863 
L 3481 4863 
L 3481 0 
L 2906 0 
L 2906 525 
Q 2725 213 2448 61 
Q 2172 -91 1784 -91 
Q 1150 -91 751 415 
Q 353 922 353 1747 
Q 353 2572 751 3078 
Q 1150 3584 1784 3584 
Q 2172 3584 2448 3432 
Q 2725 3281 2906 2969 
z
M 947 1747 
Q 947 1113 1208 752 
Q 1469 391 1925 391 
Q 2381 391 2643 752 
Q 2906 1113 2906 1747 
Q 2906 2381 2643 2742 
Q 2381 3103 1925 3103 
Q 1469 3103 1208 2742 
Q 947 2381 947 1747 
z
" transform="scale(0.015625)"/>
       <path id="DejaVuSans-5b" d="M 550 4863 
L 1875 4863 
L 1875 4416 
L 1125 4416 
L 1125 -397 
L 1875 -397 
L 1875 -844 
L 550 -844 
L 550 4863 
z
" transform="scale(0.015625)"/>
       <path id="DejaVuSans-73" d="M 2834 3397 
L 2834 2853 
Q 2591 2978 2328 3040 
Q 2066 3103 1784 3103 
Q 1356 3103 1142 2972 
Q 928 2841 928 2578 
Q 928 2378 1081 2264 
Q 1234 2150 1697 2047 
L 1894 2003 
Q 2506 1872 2764 1633 
Q 3022 1394 3022 966 
Q 3022 478 2636 193 
Q 2250 -91 1575 -91 
Q 1294 -91 989 -36 
Q 684 19 347 128 
L 347 722 
Q 666 556 975 473 
Q 1284 391 1588 391 
Q 1994 391 2212 530 
Q 2431 669 2431 922 
Q 2431 1156 2273 1281 
Q 2116 1406 1581 1522 
L 1381 1569 
Q 847 1681 609 1914 
Q 372 2147 372 2553 
Q 372 3047 722 3315 
Q 1072 3584 1716 3584 
Q 2034 3584 2315 3537 
Q 2597 3491 2834 3397 
z
" transform="scale(0.015625)"/>
       <path id="DejaVuSans-70" d="M 1159 525 
L 1159 -1331 
L 581 -1331 
L 581 3500 
L 1159 3500 
L 1159 2969 
Q 1341 3281 1617 3432 
Q 1894 3584 2278 3584 
Q 2916 3584 3314 3078 
Q 3713 2572 3713 1747 
Q 3713 922 3314 415 
Q 2916 -91 2278 -91 
Q 1894 -91 1617 61 
Q 1341 213 1159 525 
z
M 3116 1747 
Q 3116 2381 2855 2742 
Q 2594 3103 2138 3103 
Q 1681 3103 1420 2742 
Q 1159 2381 1159 1747 
Q 1159 1113 1420 752 
Q 1681 391 2138 391 
Q 2594 391 2855 752 
Q 3116 1113 3116 1747 
z
" transform="scale(0.015625)"/>
       <path id="DejaVuSans-74" d="M 1172 4494 
L 1172 3500 
L 2356 3500 
L 2356 3053 
L 1172 3053 
L 1172 1153 
Q 1172 725 1289 603 
Q 1406 481 1766 481 
L 2356 481 
L 2356 0 
L 1766 0 
Q 1100 0 847 248 
Q 594 497 594 1153 
L 594 3053 
L 172 3053 
L 172 3500 
L 594 3500 
L 594 4494 
L 1172 4494 
z
" transform="scale(0.015625)"/>
       <path id="DejaVuSans-5d" d="M 1947 4863 
L 1947 -844 
L 622 -844 
L 622 -397 
L 1369 -397 
L 1369 4416 
L 622 4416 
L 622 4863 
L 1947 4863 
z
" transform="scale(0.015625)"/>
      </defs>
      <use xlink:href="#DejaVuSans-46"/>
      <use xlink:href="#DejaVuSans-72" x="50.269531"/>
      <use xlink:href="#DejaVuSans-65" x="89.132812"/>
      <use xlink:href="#DejaVuSans-63" x="150.65625"/>
      <use xlink:href="#DejaVuSans-75" x="205.636719"/>
      <use xlink:href="#DejaVuSans-65" x="269.015625"/>
      <use xlink:href="#DejaVuSans-6e" x="330.539062"/>
      <use xlink:href="#DejaVuSans-63" x="393.917969"/>
      <use xlink:href="#DejaVuSans-69" x="448.898438"/>
      <use xlink:href="#DejaVuSans-61" x="476.681641"/>
      <use xlink:href="#DejaVuSans-20" x="537.960938"/>
      <use xlink:href="#DejaVuSans-4e" x="569.748047"/>
      <use xlink:href="#DejaVuSans-6f" x="644.552734"/>
      <use xlink:href="#DejaVuSans-72" x="705.734375"/>
      <use xlink:href="#DejaVuSans-6d" x="745.097656"/>
      <use xlink:href="#DejaVuSans-61" x="842.509766"/>
      <use xlink:href="#DejaVuSans-6c" x="903.789062"/>
      <use xlink:href="#DejaVuSans-69" x="931.572266"/>
      <use xlink:href="#DejaVuSans-7a" x="959.355469"/>
      <use xlink:href="#DejaVuSans-61" x="1011.845703"/>
      <use xlink:href="#DejaVuSans-64" x="1073.125"/>
      <use xlink:href="#DejaVuSans-61" x="1136.601562"/>
      <use xlink:href="#DejaVuSans-20" x="1197.880859"/>
      <use xlink:href="#DejaVuSans-5b" x="1229.667969"/>
      <use xlink:href="#DejaVuSans-63" x="1268.681641"/>
      <use xlink:href="#DejaVuSans-69" x="1323.662109"/>
      <use xlink:href="#DejaVuSans-63" x="1351.445312"/>
      <use xlink:href="#DejaVuSans-6c" x="1406.425781"/>
      <use xlink:href="#DejaVuSans-6f" x="1434.208984"/>
      <use xlink:href="#DejaVuSans-73" x="1495.390625"/>
      <use xlink:href="#DejaVuSans-20" x="1547.490234"/>
      <use xlink:href="#DejaVuSans-70" x="1579.277344"/>
      <use xlink:href="#DejaVuSans-6f" x="1642.753906"/>
      <use xlink:href="#DejaVuSans-72" x="1703.935547"/>
      <use xlink:href="#DejaVuSans-20" x="1745.048828"/>
      <use xlink:href="#DejaVuSans-6d" x="1776.835938"/>
      <use xlink:href="#DejaVuSans-75" x="1874.248047"/>
      <use xlink:href="#DejaVuSans-65" x="1937.626953"/>
      <use xlink:href="#DejaVuSans-73" x="1999.150391"/>
      <use xlink:href="#DejaVuSans-74" x="2051.25"/>
      <use xlink:href="#DejaVuSans-72" x="2090.458984"/>
      <use xlink:href="#DejaVuSans-61" x="2131.572266"/>
      <use xlink:href="#DejaVuSans-5d" x="2192.851562"/>
     </g>
    </g>
   </g>
   <g id="matplotlib.axis_2">
    <g id="ytick_1">
     <g id="line2d_6">
      <defs>
       <path id="m512b3bdf8c" d="M 0 0 
L -3.5 0 
" style="stroke: #000000; stroke-width: 0.8"/>
      </defs>
      <g>
       <use xlink:href="#m512b3bdf8c" x="54" y="252" style="stroke: #000000; stroke-width: 0.8"/>
      </g>
     </g>
     <g id="text_7">
      <!-- −120 -->
      <g transform="translate(19.532812 255.799219)scale(0.1 -0.1)">
       <defs>
        <path id="DejaVuSans-31" d="M 794 531 
L 1825 531 
L 1825 4091 
L 703 3866 
L 703 4441 
L 1819 4666 
L 2450 4666 
L 2450 531 
L 3481 531 
L 3481 0 
L 794 0 
L 794 531 
z
" transform="scale(0.015625)"/>
       </defs>
       <use xlink:href="#DejaVuSans-2212"/>
       <use xlink:href="#DejaVuSans-31" x="83.789062"/>
       <use xlink:href="#DejaVuSans-32" x="147.412109"/>
       <use xlink:href="#DejaVuSans-30" x="211.035156"/>
      </g>
     </g>
    </g>
    <g id="ytick_2">
     <g id="line2d_7">
      <g>
       <use xlink:href="#m512b3bdf8c" x="54" y="215.76" style="stroke: #000000; stroke-width: 0.8"/>
      </g>
     </g>
     <g id="text_8">
      <!-- −100 -->
      <g transform="translate(19.532812 219.559219)scale(0.1 -0.1)">
       <use xlink:href="#DejaVuSans-2212"/>
       <use xlink:href="#DejaVuSans-31" x="83.789062"/>
       <use xlink:href="#DejaVuSans-30" x="147.412109"/>
       <use xlink:href="#DejaVuSans-30" x="211.035156"/>
      </g>
     </g>
    </g>
    <g id="ytick_3">
     <g id="line2d_8">
      <g>
       <use xlink:href="#m512b3bdf8c" x="54" y="179.52" style="stroke: #000000; stroke-width: 0.8"/>
      </g>
     </g>
     <g id="text_9">
      <!-- −80 -->
      <g transform="translate(25.895312 183.319219)scale(0.1 -0.1)">
       <defs>
        <path id="DejaVuSans-38" d="M 2034 2216 
Q 1584 2216 1326 1975 
Q 1069 1734 1069 1313 
Q 1069 891 1326 650 
Q 1584 409 2034 409 
Q 2484 409 2743 651 
Q 3003 894 3003 1313 
Q 3003 1734 2745 1975 
Q 2488 2216 2034 2216 
z
M 1403 2484 
Q 997 2584 770 2862 
Q 544 3141 544 3541 
Q 544 4100 942 4425 
Q 1341 4750 2034 4750 
Q 2731 4750 3128 4425 
Q 3525 4100 3525 3541 
Q 3525 3141 3298 2862 
Q 3072 2584 2669 2484 
Q 3125 2378 3379 2068 
Q 3634 1759 3634 1313 
Q 3634 634 3220 271 
Q 2806 -91 2034 -91 
Q 1263 -91 848 271 
Q 434 634 434 1313 
Q 434 1759 690 2068 
Q 947 2378 1403 2484 
z
M 1172 3481 
Q 1172 3119 1398 2916 
Q 1625 2713 2034 2713 
Q 2441 2713 2670 2916 
Q 2900 3119 2900 3481 
Q 2900 3844 2670 4047 
Q 2441 4250 2034 4250 
Q 1625 4250 1398 4047 
Q 1172 3844 1172 3481 
z
" transform="scale(0.015625)"/>
       </defs>
       <use xlink:href="#DejaVuSans-2212"/>
       <use xlink:href="#DejaVuSans-38" x="83.789062"/>
       <use xlink:href="#DejaVuSans-30" x="147.412109"/>
      </g>
     </g>
    </g>
    <g id="ytick_4">
     <g id="line2d_9">
      <g>
       <use xlink:href="#m512b3bdf8c" x="54" y="143.28" style="stroke: #000000; stroke-width: 0.8"/>
      </g>
     </g>
     <g id="text_10">
      <!-- −60 -->
      <g transform="translate(25.895312 147.079219)scale(0.1 -0.1)">
       <defs>
        <path id="DejaVuSans-36" d="M 2113 2584 
Q 1688 2584 1439 2293 
Q 1191 2003 1191 1497 
Q 1191 994 1439 701 
Q 1688 409 2113 409 
Q 2538 409 2786 701 
Q 3034 994 3034 1497 
Q 3034 2003 2786 2293 
Q 2538 2584 2113 2584 
z
M 3366 4563 
L 3366 3988 
Q 3128 4100 2886 4159 
Q 2644 4219 2406 4219 
Q 1781 4219 1451 3797 
Q 1122 3375 1075 2522 
Q 1259 2794 1537 2939 
Q 1816 3084 2150 3084 
Q 2853 3084 3261 2657 
Q 3669 2231 3669 1497 
Q 3669 778 3244 343 
Q 2819 -91 2113 -91 
Q 1303 -91 875 529 
Q 447 1150 447 2328 
Q 447 3434 972 4092 
Q 1497 4750 2381 4750 
Q 2619 4750 2861 4703 
Q 3103 4656 3366 4563 
z
" transform="scale(0.015625)"/>
       </defs>
       <use xlink:href="#DejaVuSans-2212"/>
       <use xlink:href="#DejaVuSans-36" x="83.789062"/>
       <use xlink:href="#DejaVuSans-30" x="147.412109"/>
      </g>
     </g>
    </g>
    <g id="ytick_5">
     <g id="line2d_10">
      <g>
       <use xlink:href="#m512b3bdf8c" x="54" y="107.04" style="stroke: #000000; stroke-width: 0.8"/>
      </g>
     </g>
     <g id="text_11">
      <!-- −40 -->
      <g transform="translate(25.895312 110.839219)scale(0.1 -0.1)">
       <use xlink:href="#DejaVuSans-2212"/>
       <use xlink:href="#DejaVuSans-34" x="83.789062"/>
       <use xlink:href="#DejaVuSans-30" x="147.412109"/>
      </g>
     </g>
    </g>
    <g id="ytick_6">
     <g id="line2d_11">
      <g>
       <use xlink:href="#m512b3bdf8c" x="54" y="70.8" style="stroke: #000000; stroke-width: 0.8"/>
      </g>
     </g>
     <g id="text_12">
      <!-- −20 -->
      <g transform="translate(25.895312 74.599219)scale(0.1 -0.1)">
       <use xlink:href="#DejaVuSans-2212"/>
       <use xlink:href="#DejaVuSans-32" x="83.789062"/>
       <use xlink:href="#DejaVuSans-30" x="147.412109"/>
      </g>
     </g>
    </g>
    <g id="ytick_7">
     <g id="line2d_12">
      <g>
       <use xlink:href="#m512b3bdf8c" x="54" y="34.56" style="stroke: #000000; stroke-width: 0.8"/>
      </g>
     </g>
     <g id="text_13">
      <!-- 0 -->
      <g transform="translate(40.6375 38.359219)scale(0.1 -0.1)">
       <use xlink:href="#DejaVuSans-30"/>
      </g>
     </g>
    </g>
    <g id="text_14">
     <!-- Magnitud Normalizada [dB] -->
     <g transform="translate(13.453125 211.784688)rotate(-90)scale(0.1 -0.1)">
      <defs>
       <path id="DejaVuSans-4d" d="M 628 4666 
L 1569 4666 
L 2759 1491 
L 3956 4666 
L 4897 4666 
L 4897 0 
L 4281 0 
L 4281 4097 
L 3078 897 
L 2444 897 
L 1241 4097 
L 1241 0 
L 628 0 
L 628 4666 
z
" transform="scale(0.015625)"/>
       <path id="DejaVuSans-67" d="M 2906 1791 
Q 2906 2416 2648 2759 
Q 2391 3103 1925 3103 
Q 1463 3103 1205 2759 
Q 947 2416 947 1791 
Q 947 1169 1205 825 
Q 1463 481 1925 481 
Q 2391 481 2648 825 
Q 2906 1169 2906 1791 
z
M 3481 434 
Q 3481 -459 3084 -895 
Q 2688 -1331 1869 -1331 
Q 1566 -1331 1297 -1286 
Q 1028 -1241 775 -1147 
L 775 -588 
Q 1028 -725 1275 -790 
Q 1522 -856 1778 -856 
Q 2344 -856 2625 -561 
Q 2906 -266 2906 331 
L 2906 616 
Q 2728 306 2450 153 
Q 2172 0 1784 0 
Q 1141 0 747 490 
Q 353 981 353 1791 
Q 353 2603 747 3093 
Q 1141 3584 1784 3584 
Q 2172 3584 2450 3431 
Q 2728 3278 2906 2969 
L 2906 3500 
L 3481 3500 
L 3481 434 
z
" transform="scale(0.015625)"/>
       <path id="DejaVuSans-42" d="M 1259 2228 
L 1259 519 
L 2272 519 
Q 2781 519 3026 730 
Q 3272 941 3272 1375 
Q 3272 1813 3026 2020 
Q 2781 2228 2272 2228 
L 1259 2228 
z
M 1259 4147 
L 1259 2741 
L 2194 2741 
Q 2656 2741 2882 2914 
Q 3109 3088 3109 3444 
Q 3109 3797 2882 3972 
Q 2656 4147 2194 4147 
L 1259 4147 
z
M 628 4666 
L 2241 4666 
Q 2963 4666 3353 4366 
Q 3744 4066 3744 3513 
Q 3744 3084 3544 2831 
Q 3344 2578 2956 2516 
Q 3422 2416 3680 2098 
Q 3938 1781 3938 1306 
Q 3938 681 3513 340 
Q 3088 0 2303 0 
L 628 0 
L 628 4666 
z
" transform="scale(0.015625)"/>
      </defs>
      <use xlink:href="#DejaVuSans-4d"/>
      <use xlink:href="#DejaVuSans-61" x="86.279297"/>
      <use xlink:href="#DejaVuSans-67" x="147.558594"/>
      <use xlink:href="#DejaVuSans-6e" x="211.035156"/>
      <use xlink:href="#DejaVuSans-69" x="274.414062"/>
      <use xlink:href="#DejaVuSans-74" x="302.197266"/>
      <use xlink:href="#DejaVuSans-75" x="341.40625"/>
      <use xlink:href="#DejaVuSans-64" x="404.785156"/>
      <use xlink:href="#DejaVuSans-20" x="468.261719"/>
      <use xlink:href="#DejaVuSans-4e" x="500.048828"/>
      <use xlink:href="#DejaVuSans-6f" x="574.853516"/>
      <use xlink:href="#DejaVuSans-72" x="636.035156"/>
      <use xlink:href="#DejaVuSans-6d" x="675.398438"/>
      <use xlink:href="#DejaVuSans-61" x="772.810547"/>
      <use xlink:href="#DejaVuSans-6c" x="834.089844"/>
      <use xlink:href="#DejaVuSans-69" x="861.873047"/>
      <use xlink:href="#DejaVuSans-7a" x="889.65625"/>
      <use xlink:href="#DejaVuSans-61" x="942.146484"/>
      <use xlink:href="#DejaVuSans-64" x="1003.425781"/>
      <use xlink:href="#DejaVuSans-61" x="1066.902344"/>
      <use xlink:href="#DejaVuSans-20" x="1128.181641"/>
      <use xlink:href="#DejaVuSans-5b" x="1159.96875"/>
      <use xlink:href="#DejaVuSans-64" x="1198.982422"/>
      <use xlink:href="#DejaVuSans-42" x="1262.458984"/>
      <use xlink:href="#DejaVuSans-5d" x="1331.0625"/>
     </g>
    </g>
   </g>
   <g id="line2d_13">
    <path d="M 54 126.231206 
L 54.327113 126.42441 
L 54.654226 127.013753 
L 54.981339 128.030486 
L 55.472008 130.499473 
L 55.962677 134.503727 
L 56.453346 141.151756 
L 56.780459 148.747024 
L 56.944016 154.823503 
L 57.107572 165.035634 
L 57.271128 204.69465 
L 57.434685 167.786761 
L 57.761798 149.643193 
L 58.252467 138.925374 
L 58.743136 133.194192 
L 59.233806 129.675201 
L 59.724475 127.534935 
L 60.215144 126.434367 
L 60.542257 126.204367 
L 60.86937 126.360845 
L 61.196483 126.911811 
L 61.523596 127.886438 
L 62.014265 130.278284 
L 62.504934 134.168928 
L 62.995603 140.599682 
L 63.322716 147.845432 
L 63.649829 162.640008 
L 63.813385 187.343716 
L 64.140498 157.62529 
L 64.467611 145.742735 
L 64.95828 136.972048 
L 65.44895 131.984863 
L 65.939619 128.893357 
L 66.430288 127.057448 
L 66.757401 126.3906 
L 67.084514 126.123672 
L 67.411627 126.243437 
L 67.73874 126.756191 
L 68.065852 127.689077 
L 68.556522 130.00497 
L 69.047191 133.785016 
L 69.53786 140.008493 
L 69.864973 146.932189 
L 70.192086 160.490968 
L 70.355642 179.183349 
L 70.519199 175.217844 
L 70.846312 151.448359 
L 71.336981 139.633044 
L 71.82765 133.527457 
L 72.318319 129.800155 
L 72.808989 127.513302 
L 73.299658 126.292633 
L 73.626771 125.988586 
L 73.953884 126.071589 
L 74.280997 126.546234 
L 74.608109 127.437673 
L 75.098779 129.678654 
L 75.589448 133.350827 
L 76.080117 139.376052 
L 76.40723 146.001573 
L 76.734343 158.516822 
L 77.061456 180.925632 
L 77.388569 152.375132 
L 77.715681 143.00492 
L 78.206351 135.363546 
L 78.69702 130.868289 
L 79.187689 128.07573 
L 79.678359 126.460092 
L 80.005471 125.919902 
L 80.332584 125.773094 
L 80.659697 126.012875 
L 80.98681 126.651962 
L 81.313923 127.725277 
L 81.804592 130.304572 
L 82.295261 134.48603 
L 82.785931 141.506722 
L 83.113043 149.758633 
L 83.2766 156.667443 
L 83.603713 190.236081 
L 83.930826 153.333145 
L 84.257938 143.387398 
L 84.748608 135.458896 
L 85.239277 130.82984 
L 85.729946 127.951746 
L 86.220616 126.270478 
L 86.547728 125.691592 
L 86.874841 125.50762 
L 87.201954 125.71004 
L 87.529067 126.309801 
L 87.85618 127.339637 
L 88.346849 129.838349 
L 88.837518 133.898818 
L 89.328188 140.679741 
L 89.6553 148.520275 
L 89.818857 154.905949 
L 89.982413 166.037632 
L 90.14597 218.524617 
L 90.309526 164.94214 
L 90.636639 148.118062 
L 91.127308 137.713763 
L 91.617978 132.080118 
L 92.108647 128.605751 
L 92.599316 126.489971 
L 93.089985 125.405163 
L 93.417098 125.183701 
L 93.744211 125.348577 
L 94.071324 125.908984 
L 94.398437 126.895509 
L 94.889106 129.314537 
L 95.379775 133.256841 
L 95.870445 139.808807 
L 96.197557 147.271952 
L 96.52467 163.031623 
L 96.688227 195.677051 
L 97.01534 155.407667 
L 97.342452 144.066325 
L 97.833122 135.502191 
L 98.323791 130.588877 
L 98.81446 127.532616 
L 99.305129 125.716336 
L 99.632242 125.058494 
L 99.959355 124.799132 
L 100.286468 124.9262 
L 100.613581 125.447137 
L 100.940694 126.390424 
L 101.431363 128.730478 
L 101.922032 132.557093 
L 102.412702 138.889728 
L 102.739814 146.004658 
L 103.066927 160.332208 
L 103.230484 182.509325 
L 103.721153 149.270096 
L 104.211822 137.811418 
L 104.702491 131.806094 
L 105.193161 128.121859 
L 105.68383 125.856921 
L 106.174499 124.648975 
L 106.501612 124.351205 
L 106.828725 124.440105 
L 107.155838 124.921357 
L 107.482951 125.821372 
L 107.97362 128.082958 
L 108.464289 131.796004 
L 108.954958 137.917828 
L 109.282071 144.709664 
L 109.609184 157.84079 
L 109.772741 175.025768 
L 109.936297 175.195295 
L 110.26341 149.861114 
L 110.590523 140.800935 
L 111.081192 133.303169 
L 111.571861 128.861757 
L 112.062531 126.094052 
L 112.5532 124.491082 
L 112.880313 123.956165 
L 113.207426 123.813605 
L 113.534538 124.057655 
L 113.861651 124.702099 
L 114.188764 125.783187 
L 114.679433 128.383283 
L 115.170103 132.610024 
L 115.660772 139.749677 
L 115.987885 148.243001 
L 116.151441 155.4896 
L 116.478554 181.831144 
L 116.805667 150.476858 
L 117.13278 140.858721 
L 117.623449 133.072838 
L 118.114118 128.494483 
L 118.604787 125.638125 
L 119.095457 123.96648 
L 119.42257 123.390814 
L 119.749682 123.208962 
L 120.076795 123.413383 
L 120.403908 124.01601 
L 120.731021 125.050771 
L 121.22169 127.564812 
L 121.71236 131.661852 
L 122.203029 138.54204 
L 122.530142 146.580524 
L 122.693698 153.228779 
L 122.857255 165.208459 
L 123.020811 195.139761 
L 123.184367 161.077017 
L 123.51148 145.142242 
L 124.002149 134.960687 
L 124.492819 129.391253 
L 124.983488 125.941059 
L 125.474157 123.833915 
L 125.964827 122.750823 
L 126.291939 122.528838 
L 126.619052 122.692939 
L 126.946165 123.253197 
L 127.273278 124.241247 
L 127.763947 126.6692 
L 128.254617 130.638242 
L 128.745286 137.268624 
L 129.072399 144.888199 
L 129.235955 151.019232 
L 129.399511 161.419775 
L 129.563068 206.998596 
L 129.726624 163.216238 
L 130.053737 145.374914 
L 130.544406 134.683519 
L 131.035076 128.925298 
L 131.525745 125.36597 
L 132.016414 123.179989 
L 132.507084 122.031001 
L 132.834196 121.767843 
L 133.161309 121.890731 
L 133.488422 122.407861 
L 133.815535 123.348592 
L 134.306204 125.690015 
L 134.796873 129.532106 
L 135.287543 135.920615 
L 135.614656 143.151152 
L 135.941768 157.99994 
L 136.105325 183.266435 
L 136.432438 152.672433 
L 136.759551 140.80938 
L 137.25022 132.003751 
L 137.740889 126.967438 
L 138.231558 123.822275 
L 138.722228 121.930445 
L 139.04934 121.225461 
L 139.376453 120.919832 
L 139.703566 121.000366 
L 140.030679 121.47335 
L 140.357792 122.365873 
L 140.848461 124.61981 
L 141.33913 128.335225 
L 141.8298 134.487955 
L 142.156913 141.353927 
L 142.484025 154.806759 
L 142.647582 173.224831 
L 142.811138 169.8957 
L 143.138251 145.857681 
L 143.62892 133.945793 
L 144.11959 127.766907 
L 144.610259 123.970817 
L 145.100928 121.616272 
L 145.591597 120.327766 
L 145.91871 119.978038 
L 146.245823 120.01475 
L 146.572936 120.442239 
L 146.900049 121.285303 
L 147.390718 123.450146 
L 147.881387 127.038187 
L 148.372057 132.959157 
L 148.69917 139.479973 
L 149.026282 151.742677 
L 149.353395 176.160939 
L 149.680508 146.147963 
L 150.007621 136.612813 
L 150.49829 128.844521 
L 150.988959 124.254484 
L 151.479629 121.376671 
L 151.970298 119.678993 
L 152.297411 119.084466 
L 152.624524 118.882925 
L 152.951637 119.067036 
L 153.278749 119.64888 
L 153.605862 120.662512 
L 154.096532 123.144505 
L 154.587201 127.209703 
L 155.07787 134.060226 
L 155.404983 142.084682 
L 155.568539 148.733562 
L 155.732096 160.742768 
L 155.895652 190.073141 
L 156.059209 156.449876 
L 156.386321 140.528546 
L 156.876991 130.320069 
L 157.36766 124.716059 
L 157.858329 121.22869 
L 158.348999 119.082711 
L 158.839668 117.959292 
L 159.166781 117.709525 
L 159.493894 117.844994 
L 159.821006 118.375574 
L 160.148119 119.332575 
L 160.638788 121.710084 
L 161.129458 125.620022 
L 161.620127 132.168367 
L 161.94724 139.688301 
L 162.110796 145.717385 
L 162.274353 155.852333 
L 162.437909 194.423236 
L 162.765022 147.058236 
L 163.092135 135.887379 
L 163.582804 127.34614 
L 164.073473 122.401694 
L 164.564143 119.297281 
L 165.054812 117.424823 
L 165.381925 116.726736 
L 165.709038 116.425435 
L 166.03615 116.509092 
L 166.363263 116.985227 
L 166.690376 117.882275 
L 167.181045 120.149756 
L 167.671715 123.897956 
L 168.162384 130.139032 
L 168.489497 137.169913 
L 168.81661 151.301381 
L 168.980166 172.710365 
L 169.634392 135.551814 
L 170.125061 126.517862 
L 170.61573 121.360902 
L 171.1064 118.124793 
L 171.597069 116.152738 
L 172.087738 115.169181 
L 172.414851 115.005006 
L 172.741964 115.225725 
L 173.069077 115.846073 
L 173.39619 116.903294 
L 173.886859 119.471003 
L 174.377528 123.67754 
L 174.704641 127.960403 
L 175.031754 134.500946 
L 175.358867 146.874013 
L 175.685979 169.975186 
L 176.013092 140.845501 
L 176.340205 131.3654 
L 176.830874 123.602875 
L 177.321544 118.996668 
L 177.812213 116.094497 
L 178.302882 114.367603 
L 178.629995 113.751324 
L 178.957108 113.526137 
L 179.284221 113.684401 
L 179.611334 114.237617 
L 179.938447 115.21885 
L 180.429116 117.641041 
L 180.919785 121.620003 
L 181.410454 128.310366 
L 181.737567 136.075185 
L 181.901124 142.405344 
L 182.06468 153.422051 
L 182.228236 211.934716 
L 182.391793 152.609401 
L 182.718906 135.621963 
L 183.209575 125.10553 
L 183.700244 119.375926 
L 184.190914 115.807447 
L 184.681583 113.595695 
L 185.172252 112.410594 
L 185.499365 112.118454 
L 185.826478 112.208187 
L 186.153591 112.687142 
L 186.480703 113.583061 
L 186.971373 115.837847 
L 187.462042 119.548183 
L 187.952711 125.683883 
L 188.279824 132.51778 
L 188.606937 145.842905 
L 188.770493 163.769485 
L 188.93405 161.768318 
L 189.261163 137.255372 
L 189.588276 128.275657 
L 190.078945 120.803411 
L 190.569614 116.359541 
L 191.060283 113.578417 
L 191.550953 111.953949 
L 191.878065 111.39947 
L 192.205178 111.231565 
L 192.532291 111.442032 
L 192.859404 112.040696 
L 193.186517 113.057334 
L 193.677186 115.499319 
L 194.167855 119.411509 
L 194.658525 125.781036 
L 194.985638 132.819782 
L 195.31275 146.55579 
L 195.476307 165.60706 
L 195.639863 160.923842 
L 195.966976 137.526408 
L 196.294089 128.821919 
L 196.784758 121.660543 
L 197.275427 117.511353 
L 197.766097 115.030166 
L 198.256766 113.713236 
L 198.583879 113.365006 
L 198.910992 113.399143 
L 199.238105 113.799272 
L 199.565217 114.561517 
L 200.055887 116.401311 
L 200.546556 119.1379 
L 201.200782 124.387395 
L 201.855007 131.813635 
L 203.163459 149.367581 
L 203.327015 149.84352 
L 203.490572 149.417046 
L 203.817684 146.266341 
L 205.289692 126.481234 
L 205.780362 122.757604 
L 206.107474 121.329411 
L 206.271031 120.976154 
L 206.434587 120.901874 
L 206.598144 121.153482 
L 206.7617 121.802747 
L 207.088813 124.83333 
L 207.415926 132.64544 
L 207.579482 142.117647 
L 207.743039 223.917076 
L 207.906595 139.154643 
L 208.233708 119.293555 
L 208.724377 104.767835 
L 209.378603 92.392136 
L 210.196385 81.271716 
L 211.177723 71.137289 
L 212.159062 63.132554 
L 213.303957 55.642892 
L 214.448852 49.656814 
L 215.593747 44.879235 
L 216.738642 41.128293 
L 217.71998 38.639721 
L 218.701319 36.767961 
L 219.519101 35.654067 
L 220.336883 34.930952 
L 220.991109 34.628032 
L 221.645335 34.567557 
L 222.29956 34.749091 
L 222.953786 35.173947 
L 223.608012 35.845231 
L 224.425794 37.038716 
L 225.243576 38.639721 
L 226.224915 41.128293 
L 227.206253 44.283829 
L 228.187592 48.177979 
L 229.16893 52.914002 
L 230.150269 58.645328 
L 231.131607 65.612929 
L 232.112946 74.231556 
L 232.930728 83.25022 
L 233.74851 95.085703 
L 234.239179 104.767835 
L 234.729849 119.293555 
L 235.056961 139.154643 
L 235.220518 223.917076 
L 235.384074 142.117647 
L 235.711187 127.78091 
L 236.0383 122.964201 
L 236.365413 121.153482 
L 236.528969 120.901874 
L 236.692526 120.976154 
L 237.019638 121.930265 
L 237.346751 123.79738 
L 237.837421 128.115849 
L 238.491646 136.484147 
L 239.309428 148.159995 
L 239.636541 149.84352 
L 239.800098 149.367581 
L 240.127211 146.16509 
L 241.762775 124.387395 
L 242.417 119.1379 
L 243.071226 115.692619 
L 243.561895 114.134945 
L 243.889008 113.553965 
L 244.216121 113.335628 
L 244.543234 113.489727 
L 244.870347 114.040151 
L 245.19746 115.030166 
L 245.688129 117.511353 
L 246.178798 121.660543 
L 246.505911 125.93349 
L 246.833024 132.515698 
L 247.160137 145.144903 
L 247.323693 160.923842 
L 247.48725 165.60706 
L 247.814362 138.204597 
L 248.141475 128.870899 
L 248.632145 121.178864 
L 249.122814 116.60989 
L 249.613483 113.738604 
L 250.104152 112.040696 
L 250.431265 111.442032 
L 250.758378 111.231565 
L 251.085491 111.39947 
L 251.412604 111.953949 
L 251.739717 112.922952 
L 252.230386 115.281676 
L 252.721055 119.083664 
L 253.211724 125.278418 
L 253.538837 132.091499 
L 253.86595 145.121857 
L 254.029507 161.768318 
L 254.193063 163.769485 
L 254.520176 137.753666 
L 254.847289 128.680134 
L 255.337958 121.242663 
L 255.828627 116.883285 
L 256.319297 114.203 
L 256.809966 112.687142 
L 257.137079 112.208187 
L 257.464191 112.118454 
L 257.791304 112.410594 
L 258.118417 113.096134 
L 258.609086 114.941364 
L 259.099756 118.00171 
L 259.590425 122.864616 
L 259.917538 127.81958 
L 260.244651 135.621963 
L 260.408207 141.896483 
L 260.571764 152.609401 
L 260.73532 211.934716 
L 260.898876 153.422051 
L 261.225989 136.075185 
L 261.716659 125.639904 
L 262.207328 120.074153 
L 262.697997 116.690286 
L 263.188666 114.671663 
L 263.679336 113.684401 
L 264.006448 113.526137 
L 264.333561 113.751324 
L 264.660674 114.367603 
L 264.987787 115.403355 
L 265.478456 117.875506 
L 265.969126 121.821629 
L 266.459795 128.243941 
L 266.786908 135.365032 
L 267.114021 149.436906 
L 267.277577 169.975186 
L 267.441133 161.799699 
L 267.768246 139.440157 
L 268.258915 127.960403 
L 268.749585 122.04128 
L 269.240254 118.465884 
L 269.730923 116.316681 
L 270.221593 115.225725 
L 270.548705 115.005006 
L 270.875818 115.169181 
L 271.202931 115.722898 
L 271.530044 116.69115 
L 272.020713 119.042024 
L 272.511383 122.813896 
L 273.002052 128.915317 
L 273.329165 135.551814 
L 273.656277 147.912614 
L 273.98339 172.710365 
L 274.310503 142.637652 
L 274.637616 133.209538 
L 275.128285 125.615966 
L 275.618955 121.203946 
L 276.109624 118.504679 
L 276.600293 116.985227 
L 276.927406 116.509092 
L 277.254519 116.425435 
L 277.581632 116.726736 
L 277.908745 117.424823 
L 278.399414 119.297281 
L 278.890083 122.401694 
L 279.380752 127.34614 
L 279.707865 132.409411 
L 280.034978 140.464839 
L 280.198534 147.058236 
L 280.362091 158.75108 
L 280.525647 194.423236 
L 280.689204 155.852333 
L 281.016317 139.688301 
L 281.506986 129.560266 
L 281.997655 124.101585 
L 282.488324 120.775892 
L 282.978994 118.797828 
L 283.306106 118.059494 
L 283.633219 117.728946 
L 283.960332 117.786118 
L 284.287445 118.230823 
L 284.614558 119.082711 
L 285.105227 121.22869 
L 285.595896 124.716059 
L 286.086566 130.320069 
L 286.413679 136.257401 
L 286.740791 146.522019 
L 286.904348 156.449876 
L 287.067904 190.073141 
L 287.395017 148.733562 
L 287.72213 137.511222 
L 288.212799 129.07982 
L 288.703468 124.288191 
L 289.194138 121.349677 
L 289.684807 119.64888 
L 290.01192 119.067036 
L 290.339033 118.882925 
L 290.666146 119.084466 
L 290.993258 119.678993 
L 291.320371 120.694797 
L 291.811041 123.140782 
L 292.30171 127.067322 
L 292.792379 133.484852 
L 293.119492 140.628825 
L 293.446605 154.849231 
L 293.610161 176.160939 
L 294.264387 139.479973 
L 294.755056 130.621295 
L 295.245725 125.646191 
L 295.736395 122.594696 
L 296.227064 120.809364 
L 296.554177 120.178615 
L 296.88129 119.948268 
L 297.208403 120.10412 
L 297.535515 120.65148 
L 297.862628 121.616272 
L 298.353298 123.970817 
L 298.843967 127.766907 
L 299.334636 133.945793 
L 299.661749 140.728718 
L 299.988862 153.641781 
L 300.152418 169.8957 
L 300.315975 173.224831 
L 300.643087 146.627117 
L 300.9702 137.496333 
L 301.46087 130.033422 
L 301.951539 125.666157 
L 302.442208 122.984968 
L 302.932877 121.47335 
L 303.25999 121.000366 
L 303.587103 120.919832 
L 303.914216 121.225461 
L 304.241329 121.930445 
L 304.731998 123.822275 
L 305.222667 126.967438 
L 305.713337 132.003751 
L 306.040449 137.204237 
L 306.367562 145.608311 
L 306.531119 152.672433 
L 306.858232 183.266435 
L 307.185344 148.828334 
L 307.512457 139.071403 
L 308.003127 131.290072 
L 308.493796 126.772427 
L 308.984465 123.99426 
L 309.475134 122.407861 
L 309.802247 121.890731 
L 310.12936 121.767843 
L 310.456473 122.031001 
L 310.783586 122.691455 
L 311.110699 123.782274 
L 311.601368 126.374085 
L 312.092037 130.532567 
L 312.582706 137.42671 
L 312.909819 145.374914 
L 313.073376 151.853981 
L 313.236932 163.216238 
L 313.400489 206.998596 
L 313.564045 161.419775 
L 313.891158 144.888199 
L 314.381827 134.62859 
L 314.872496 129.098648 
L 315.363166 125.717527 
L 315.853835 123.690776 
L 316.344504 122.692939 
L 316.671617 122.528838 
L 316.99873 122.750823 
L 317.325843 123.368263 
L 317.652956 124.41194 
L 318.143625 126.917518 
L 318.634294 130.948965 
L 319.124963 137.598062 
L 319.452076 145.142242 
L 319.779189 161.077017 
L 319.942745 195.139761 
L 320.269858 153.228779 
L 320.596971 142.001259 
L 321.08764 133.542291 
L 321.57831 128.719185 
L 322.068979 125.74859 
L 322.559648 124.01601 
L 322.886761 123.413383 
L 323.213874 123.208962 
L 323.540987 123.390814 
L 323.8681 123.96648 
L 324.195213 124.964552 
L 324.685882 127.387216 
L 325.176551 131.297821 
L 325.66722 137.718637 
L 325.994333 144.900574 
L 326.321446 159.337005 
L 326.485002 181.831144 
L 326.975672 148.243001 
L 327.466341 136.887829 
L 327.95701 130.969357 
L 328.44768 127.368134 
L 328.938349 125.184739 
L 329.429018 124.057655 
L 329.756131 123.813605 
L 330.083244 123.956165 
L 330.410357 124.491082 
L 330.737469 125.44484 
L 331.228139 127.78742 
L 331.718808 131.582515 
L 332.209477 137.789377 
L 332.53659 144.643462 
L 332.863703 157.862137 
L 333.027259 175.195295 
L 333.190816 175.025768 
L 333.517929 149.890501 
L 333.845042 140.899314 
L 334.335711 133.488827 
L 334.82638 129.130114 
L 335.317049 126.443652 
L 335.807719 124.921357 
L 336.134831 124.440105 
L 336.461944 124.351205 
L 336.789057 124.648975 
L 337.11617 125.347274 
L 337.606839 127.233296 
L 338.097509 130.38276 
L 338.588178 135.447818 
L 338.915291 140.70434 
L 339.242404 149.270096 
L 339.40596 156.570259 
L 339.733073 182.509325 
L 340.060186 151.538518 
L 340.387298 141.997901 
L 340.877968 134.303451 
L 341.368637 129.809975 
L 341.859306 127.036542 
L 342.349976 125.447137 
L 342.677088 124.9262 
L 343.004201 124.799132 
L 343.331314 125.058494 
L 343.658427 125.716336 
L 343.98554 126.806743 
L 344.476209 129.405628 
L 344.966878 133.590861 
L 345.457548 140.568691 
L 345.78466 148.692034 
L 345.948217 155.407667 
L 346.111773 167.548325 
L 346.27533 195.677051 
L 346.438886 163.031623 
L 346.765999 147.271952 
L 347.256668 137.205455 
L 347.747338 131.729322 
L 348.238007 128.367101 
L 348.728676 126.346089 
L 349.219345 125.348577 
L 349.546458 125.183701 
L 349.873571 125.405163 
L 350.200684 126.023236 
L 350.527797 127.069818 
L 351.018466 129.587867 
L 351.509135 133.652545 
L 351.999805 140.393878 
L 352.326917 148.118062 
L 352.490474 154.337445 
L 352.65403 164.94214 
L 352.817587 218.524617 
L 352.981143 166.037632 
L 353.308256 148.520275 
L 353.798925 137.977456 
L 354.289595 132.325122 
L 354.780264 128.861597 
L 355.270933 126.767905 
L 355.761602 125.71004 
L 356.088715 125.50762 
L 356.415828 125.691592 
L 356.742941 126.270478 
L 357.070054 127.274059 
L 357.560723 129.713298 
L 358.051392 133.661744 
L 358.542062 140.179801 
L 358.869174 147.541272 
L 359.196287 162.758808 
L 359.359844 190.236081 
L 359.686957 156.667443 
L 360.014069 145.048162 
L 360.504739 136.403395 
L 360.995408 131.484052 
L 361.486077 128.443589 
L 361.976746 126.651962 
L 362.303859 126.012875 
L 362.630972 125.773094 
L 362.958085 125.919902 
L 363.285198 126.460092 
L 363.612311 127.421387 
L 364.10298 129.783624 
L 364.593649 133.619736 
L 365.084319 139.926287 
L 365.411431 146.956104 
L 365.738544 160.863388 
L 365.902101 180.925632 
L 366.065657 173.705683 
L 366.39277 150.996647 
L 366.883439 139.376052 
L 367.374108 133.350827 
L 367.864778 129.678654 
L 368.355447 127.437673 
L 368.846116 126.258905 
L 369.173229 125.981871 
L 369.500342 126.091766 
L 369.827455 126.59367 
L 370.154568 127.513302 
L 370.645237 129.800155 
L 371.135906 133.527457 
L 371.626575 139.633044 
L 371.953688 146.357923 
L 372.280801 159.171133 
L 372.444358 175.217844 
L 372.607914 179.183349 
L 372.935027 152.24496 
L 373.26214 143.043755 
L 373.752809 135.505785 
L 374.243478 131.072476 
L 374.734148 128.328612 
L 375.224817 126.756191 
L 375.55193 126.243437 
L 375.879043 126.123672 
L 376.206155 126.3906 
L 376.533268 127.057448 
L 376.860381 128.159784 
L 377.35105 130.787221 
L 377.84172 135.028962 
L 378.332389 142.146059 
L 378.659502 150.540937 
L 378.823058 157.62529 
L 379.150171 187.343716 
L 379.477284 153.515764 
L 379.804397 143.760617 
L 380.295066 135.942102 
L 380.785735 131.377203 
L 381.276404 128.549008 
L 381.767074 126.911811 
L 382.094187 126.360845 
L 382.421299 126.204367 
L 382.748412 126.434367 
L 383.075525 127.062316 
L 383.402638 128.121595 
L 383.893307 130.669059 
L 384.383977 134.790236 
L 384.874646 141.666634 
L 385.201759 149.643193 
L 385.365315 156.185874 
L 385.528872 167.786761 
L 385.692428 204.69465 
L 385.855984 165.035634 
L 386.183097 148.747024 
L 386.673766 138.509459 
L 387.164436 132.953452 
L 387.655105 129.53452 
L 388.145774 127.465753 
L 388.636444 126.42441 
L 388.8 126.279359 
L 388.8 126.279359 
" clip-path="url(#pafa13e56f5)" style="fill: none; stroke: #1f77b4; stroke-width: 1.5; stroke-linecap: square"/>
   </g>
   <g id="patch_3">
    <path d="M 54 252 
L 54 34.56 
" style="fill: none; stroke: #000000; stroke-width: 0.8; stroke-linejoin: miter; stroke-linecap: square"/>
   </g>
   <g id="patch_4">
    <path d="M 388.8 252 
L 388.8 34.56 
" style="fill: none; stroke: #000000; stroke-width: 0.8; stroke-linejoin: miter; stroke-linecap: square"/>
   </g>
   <g id="patch_5">
    <path d="M 54 252 
L 388.8 252 
" style="fill: none; stroke: #000000; stroke-width: 0.8; stroke-linejoin: miter; stroke-linecap: square"/>
   </g>
   <g id="patch_6">
    <path d="M 54 34.56 
L 388.8 34.56 
" style="fill: none; stroke: #000000; stroke-width: 0.8; stroke-linejoin: miter; stroke-linecap: square"/>
   </g>
   <g id="text_15">
    <!-- Respuesta en frecuencia de ventana Hamming -->
    <g transform="translate(80.610938 28.56)scale(0.12 -0.12)">
     <defs>
      <path id="DejaVuSans-52" d="M 2841 2188 
Q 3044 2119 3236 1894 
Q 3428 1669 3622 1275 
L 4263 0 
L 3584 0 
L 2988 1197 
Q 2756 1666 2539 1819 
Q 2322 1972 1947 1972 
L 1259 1972 
L 1259 0 
L 628 0 
L 628 4666 
L 2053 4666 
Q 2853 4666 3247 4331 
Q 3641 3997 3641 3322 
Q 3641 2881 3436 2590 
Q 3231 2300 2841 2188 
z
M 1259 4147 
L 1259 2491 
L 2053 2491 
Q 2509 2491 2742 2702 
Q 2975 2913 2975 3322 
Q 2975 3731 2742 3939 
Q 2509 4147 2053 4147 
L 1259 4147 
z
" transform="scale(0.015625)"/>
      <path id="DejaVuSans-66" d="M 2375 4863 
L 2375 4384 
L 1825 4384 
Q 1516 4384 1395 4259 
Q 1275 4134 1275 3809 
L 1275 3500 
L 2222 3500 
L 2222 3053 
L 1275 3053 
L 1275 0 
L 697 0 
L 697 3053 
L 147 3053 
L 147 3500 
L 697 3500 
L 697 3744 
Q 697 4328 969 4595 
Q 1241 4863 1831 4863 
L 2375 4863 
z
" transform="scale(0.015625)"/>
      <path id="DejaVuSans-76" d="M 191 3500 
L 800 3500 
L 1894 563 
L 2988 3500 
L 3597 3500 
L 2284 0 
L 1503 0 
L 191 3500 
z
" transform="scale(0.015625)"/>
      <path id="DejaVuSans-48" d="M 628 4666 
L 1259 4666 
L 1259 2753 
L 3553 2753 
L 3553 4666 
L 4184 4666 
L 4184 0 
L 3553 0 
L 3553 2222 
L 1259 2222 
L 1259 0 
L 628 0 
L 628 4666 
z
" transform="scale(0.015625)"/>
     </defs>
     <use xlink:href="#DejaVuSans-52"/>
     <use xlink:href="#DejaVuSans-65" x="64.982422"/>
     <use xlink:href="#DejaVuSans-73" x="126.505859"/>
     <use xlink:href="#DejaVuSans-70" x="178.605469"/>
     <use xlink:href="#DejaVuSans-75" x="242.082031"/>
     <use xlink:href="#DejaVuSans-65" x="305.460938"/>
     <use xlink:href="#DejaVuSans-73" x="366.984375"/>
     <use xlink:href="#DejaVuSans-74" x="419.083984"/>
     <use xlink:href="#DejaVuSans-61" x="458.292969"/>
     <use xlink:href="#DejaVuSans-20" x="519.572266"/>
     <use xlink:href="#DejaVuSans-65" x="551.359375"/>
     <use xlink:href="#DejaVuSans-6e" x="612.882812"/>
     <use xlink:href="#DejaVuSans-20" x="676.261719"/>
     <use xlink:href="#DejaVuSans-66" x="708.048828"/>
     <use xlink:href="#DejaVuSans-72" x="743.253906"/>
     <use xlink:href="#DejaVuSans-65" x="782.117188"/>
     <use xlink:href="#DejaVuSans-63" x="843.640625"/>
     <use xlink:href="#DejaVuSans-75" x="898.621094"/>
     <use xlink:href="#DejaVuSans-65" x="962"/>
     <use xlink:href="#DejaVuSans-6e" x="1023.523438"/>
     <use xlink:href="#DejaVuSans-63" x="1086.902344"/>
     <use xlink:href="#DejaVuSans-69" x="1141.882812"/>
     <use xlink:href="#DejaVuSans-61" x="1169.666016"/>
     <use xlink:href="#DejaVuSans-20" x="1230.945312"/>
     <use xlink:href="#DejaVuSans-64" x="1262.732422"/>
     <use xlink:href="#DejaVuSans-65" x="1326.208984"/>
     <use xlink:href="#DejaVuSans-20" x="1387.732422"/>
     <use xlink:href="#DejaVuSans-76" x="1419.519531"/>
     <use xlink:href="#DejaVuSans-65" x="1478.699219"/>
     <use xlink:href="#DejaVuSans-6e" x="1540.222656"/>
     <use xlink:href="#DejaVuSans-74" x="1603.601562"/>
     <use xlink:href="#DejaVuSans-61" x="1642.810547"/>
     <use xlink:href="#DejaVuSans-6e" x="1704.089844"/>
     <use xlink:href="#DejaVuSans-61" x="1767.46875"/>
     <use xlink:href="#DejaVuSans-20" x="1828.748047"/>
     <use xlink:href="#DejaVuSans-48" x="1860.535156"/>
     <use xlink:href="#DejaVuSans-61" x="1935.730469"/>
     <use xlink:href="#DejaVuSans-6d" x="1997.009766"/>
     <use xlink:href="#DejaVuSans-6d" x="2094.421875"/>
     <use xlink:href="#DejaVuSans-69" x="2191.833984"/>
     <use xlink:href="#DejaVuSans-6e" x="2219.617188"/>
     <use xlink:href="#DejaVuSans-67" x="2282.996094"/>
    </g>
   </g>
  </g>
 </g>
 <defs>
  <clipPath id="pafa13e56f5">
   <rect x="54" y="34.56" width="334.8" height="217.44"/>
  </clipPath>
 </defs>
</svg>
