<?xml version="1.0" encoding="utf-8" standalone="no"?>
<!DOCTYPE svg PUBLIC "-//W3C//DTD SVG 1.1//EN"
  "http://www.w3.org/Graphics/SVG/1.1/DTD/svg11.dtd">
<svg xmlns:xlink="http://www.w3.org/1999/xlink" width="432pt" height="288pt" viewBox="0 0 432 288" xmlns="http://www.w3.org/2000/svg" version="1.1">
 <metadata>
  <rdf:RDF xmlns:dc="http://purl.org/dc/elements/1.1/" xmlns:cc="http://creativecommons.org/ns#" xmlns:rdf="http://www.w3.org/1999/02/22-rdf-syntax-ns#">
   <cc:Work>
    <dc:type rdf:resource="http://purl.org/dc/dcmitype/StillImage"/>
    <dc:date>2022-10-25T16:01:48.012739</dc:date>
    <dc:format>image/svg+xml</dc:format>
    <dc:creator>
     <cc:Agent>
      <dc:title>Matplotlib v3.5.1, https://matplotlib.org/</dc:title>
     </cc:Agent>
    </dc:creator>
   </cc:Work>
  </rdf:RDF>
 </metadata>
 <defs>
  <style type="text/css">*{stroke-linejoin: round; stroke-linecap: butt}</style>
 </defs>
 <g id="figure_1">
  <g id="patch_1">
   <path d="M 0 288 
L 432 288 
L 432 0 
L 0 0 
L 0 288 
z
" style="fill: none"/>
  </g>
  <g id="axes_1">
   <g id="patch_2">
    <path d="M 54 252 
L 388.8 252 
L 388.8 34.56 
L 54 34.56 
z
" style="fill: #ffffff"/>
   </g>
   <g id="matplotlib.axis_1">
    <g id="xtick_1">
     <g id="line2d_1">
      <defs>
       <path id="m895aad3138" d="M 0 0 
L 0 3.5 
" style="stroke: #000000; stroke-width: 0.8"/>
      </defs>
      <g>
       <use xlink:href="#m895aad3138" x="87.48" y="252" style="stroke: #000000; stroke-width: 0.8"/>
      </g>
     </g>
     <g id="text_1">
      <!-- −0.4 -->
      <g transform="translate(75.338594 266.598437)scale(0.1 -0.1)">
       <defs>
        <path id="DejaVuSans-2212" d="M 678 2272 
L 4684 2272 
L 4684 1741 
L 678 1741 
L 678 2272 
z
" transform="scale(0.015625)"/>
        <path id="DejaVuSans-30" d="M 2034 4250 
Q 1547 4250 1301 3770 
Q 1056 3291 1056 2328 
Q 1056 1369 1301 889 
Q 1547 409 2034 409 
Q 2525 409 2770 889 
Q 3016 1369 3016 2328 
Q 3016 3291 2770 3770 
Q 2525 4250 2034 4250 
z
M 2034 4750 
Q 2819 4750 3233 4129 
Q 3647 3509 3647 2328 
Q 3647 1150 3233 529 
Q 2819 -91 2034 -91 
Q 1250 -91 836 529 
Q 422 1150 422 2328 
Q 422 3509 836 4129 
Q 1250 4750 2034 4750 
z
" transform="scale(0.015625)"/>
        <path id="DejaVuSans-2e" d="M 684 794 
L 1344 794 
L 1344 0 
L 684 0 
L 684 794 
z
" transform="scale(0.015625)"/>
        <path id="DejaVuSans-34" d="M 2419 4116 
L 825 1625 
L 2419 1625 
L 2419 4116 
z
M 2253 4666 
L 3047 4666 
L 3047 1625 
L 3713 1625 
L 3713 1100 
L 3047 1100 
L 3047 0 
L 2419 0 
L 2419 1100 
L 313 1100 
L 313 1709 
L 2253 4666 
z
" transform="scale(0.015625)"/>
       </defs>
       <use xlink:href="#DejaVuSans-2212"/>
       <use xlink:href="#DejaVuSans-30" x="83.789062"/>
       <use xlink:href="#DejaVuSans-2e" x="147.412109"/>
       <use xlink:href="#DejaVuSans-34" x="179.199219"/>
      </g>
     </g>
    </g>
    <g id="xtick_2">
     <g id="line2d_2">
      <g>
       <use xlink:href="#m895aad3138" x="154.44" y="252" style="stroke: #000000; stroke-width: 0.8"/>
      </g>
     </g>
     <g id="text_2">
      <!-- −0.2 -->
      <g transform="translate(142.298594 266.598437)scale(0.1 -0.1)">
       <defs>
        <path id="DejaVuSans-32" d="M 1228 531 
L 3431 531 
L 3431 0 
L 469 0 
L 469 531 
Q 828 903 1448 1529 
Q 2069 2156 2228 2338 
Q 2531 2678 2651 2914 
Q 2772 3150 2772 3378 
Q 2772 3750 2511 3984 
Q 2250 4219 1831 4219 
Q 1534 4219 1204 4116 
Q 875 4013 500 3803 
L 500 4441 
Q 881 4594 1212 4672 
Q 1544 4750 1819 4750 
Q 2544 4750 2975 4387 
Q 3406 4025 3406 3419 
Q 3406 3131 3298 2873 
Q 3191 2616 2906 2266 
Q 2828 2175 2409 1742 
Q 1991 1309 1228 531 
z
" transform="scale(0.015625)"/>
       </defs>
       <use xlink:href="#DejaVuSans-2212"/>
       <use xlink:href="#DejaVuSans-30" x="83.789062"/>
       <use xlink:href="#DejaVuSans-2e" x="147.412109"/>
       <use xlink:href="#DejaVuSans-32" x="179.199219"/>
      </g>
     </g>
    </g>
    <g id="xtick_3">
     <g id="line2d_3">
      <g>
       <use xlink:href="#m895aad3138" x="221.4" y="252" style="stroke: #000000; stroke-width: 0.8"/>
      </g>
     </g>
     <g id="text_3">
      <!-- 0.0 -->
      <g transform="translate(213.448438 266.598437)scale(0.1 -0.1)">
       <use xlink:href="#DejaVuSans-30"/>
       <use xlink:href="#DejaVuSans-2e" x="63.623047"/>
       <use xlink:href="#DejaVuSans-30" x="95.410156"/>
      </g>
     </g>
    </g>
    <g id="xtick_4">
     <g id="line2d_4">
      <g>
       <use xlink:href="#m895aad3138" x="288.36" y="252" style="stroke: #000000; stroke-width: 0.8"/>
      </g>
     </g>
     <g id="text_4">
      <!-- 0.2 -->
      <g transform="translate(280.408437 266.598437)scale(0.1 -0.1)">
       <use xlink:href="#DejaVuSans-30"/>
       <use xlink:href="#DejaVuSans-2e" x="63.623047"/>
       <use xlink:href="#DejaVuSans-32" x="95.410156"/>
      </g>
     </g>
    </g>
    <g id="xtick_5">
     <g id="line2d_5">
      <g>
       <use xlink:href="#m895aad3138" x="355.32" y="252" style="stroke: #000000; stroke-width: 0.8"/>
      </g>
     </g>
     <g id="text_5">
      <!-- 0.4 -->
      <g transform="translate(347.368437 266.598437)scale(0.1 -0.1)">
       <use xlink:href="#DejaVuSans-30"/>
       <use xlink:href="#DejaVuSans-2e" x="63.623047"/>
       <use xlink:href="#DejaVuSans-34" x="95.410156"/>
      </g>
     </g>
    </g>
    <g id="text_6">
     <!-- Frecuencia Normalizada [ciclos por muestra] -->
     <g transform="translate(109.807031 280.276563)scale(0.1 -0.1)">
      <defs>
       <path id="DejaVuSans-46" d="M 628 4666 
L 3309 4666 
L 3309 4134 
L 1259 4134 
L 1259 2759 
L 3109 2759 
L 3109 2228 
L 1259 2228 
L 1259 0 
L 628 0 
L 628 4666 
z
" transform="scale(0.015625)"/>
       <path id="DejaVuSans-72" d="M 2631 2963 
Q 2534 3019 2420 3045 
Q 2306 3072 2169 3072 
Q 1681 3072 1420 2755 
Q 1159 2438 1159 1844 
L 1159 0 
L 581 0 
L 581 3500 
L 1159 3500 
L 1159 2956 
Q 1341 3275 1631 3429 
Q 1922 3584 2338 3584 
Q 2397 3584 2469 3576 
Q 2541 3569 2628 3553 
L 2631 2963 
z
" transform="scale(0.015625)"/>
       <path id="DejaVuSans-65" d="M 3597 1894 
L 3597 1613 
L 953 1613 
Q 991 1019 1311 708 
Q 1631 397 2203 397 
Q 2534 397 2845 478 
Q 3156 559 3463 722 
L 3463 178 
Q 3153 47 2828 -22 
Q 2503 -91 2169 -91 
Q 1331 -91 842 396 
Q 353 884 353 1716 
Q 353 2575 817 3079 
Q 1281 3584 2069 3584 
Q 2775 3584 3186 3129 
Q 3597 2675 3597 1894 
z
M 3022 2063 
Q 3016 2534 2758 2815 
Q 2500 3097 2075 3097 
Q 1594 3097 1305 2825 
Q 1016 2553 972 2059 
L 3022 2063 
z
" transform="scale(0.015625)"/>
       <path id="DejaVuSans-63" d="M 3122 3366 
L 3122 2828 
Q 2878 2963 2633 3030 
Q 2388 3097 2138 3097 
Q 1578 3097 1268 2742 
Q 959 2388 959 1747 
Q 959 1106 1268 751 
Q 1578 397 2138 397 
Q 2388 397 2633 464 
Q 2878 531 3122 666 
L 3122 134 
Q 2881 22 2623 -34 
Q 2366 -91 2075 -91 
Q 1284 -91 818 406 
Q 353 903 353 1747 
Q 353 2603 823 3093 
Q 1294 3584 2113 3584 
Q 2378 3584 2631 3529 
Q 2884 3475 3122 3366 
z
" transform="scale(0.015625)"/>
       <path id="DejaVuSans-75" d="M 544 1381 
L 544 3500 
L 1119 3500 
L 1119 1403 
Q 1119 906 1312 657 
Q 1506 409 1894 409 
Q 2359 409 2629 706 
Q 2900 1003 2900 1516 
L 2900 3500 
L 3475 3500 
L 3475 0 
L 2900 0 
L 2900 538 
Q 2691 219 2414 64 
Q 2138 -91 1772 -91 
Q 1169 -91 856 284 
Q 544 659 544 1381 
z
M 1991 3584 
L 1991 3584 
z
" transform="scale(0.015625)"/>
       <path id="DejaVuSans-6e" d="M 3513 2113 
L 3513 0 
L 2938 0 
L 2938 2094 
Q 2938 2591 2744 2837 
Q 2550 3084 2163 3084 
Q 1697 3084 1428 2787 
Q 1159 2491 1159 1978 
L 1159 0 
L 581 0 
L 581 3500 
L 1159 3500 
L 1159 2956 
Q 1366 3272 1645 3428 
Q 1925 3584 2291 3584 
Q 2894 3584 3203 3211 
Q 3513 2838 3513 2113 
z
" transform="scale(0.015625)"/>
       <path id="DejaVuSans-69" d="M 603 3500 
L 1178 3500 
L 1178 0 
L 603 0 
L 603 3500 
z
M 603 4863 
L 1178 4863 
L 1178 4134 
L 603 4134 
L 603 4863 
z
" transform="scale(0.015625)"/>
       <path id="DejaVuSans-61" d="M 2194 1759 
Q 1497 1759 1228 1600 
Q 959 1441 959 1056 
Q 959 750 1161 570 
Q 1363 391 1709 391 
Q 2188 391 2477 730 
Q 2766 1069 2766 1631 
L 2766 1759 
L 2194 1759 
z
M 3341 1997 
L 3341 0 
L 2766 0 
L 2766 531 
Q 2569 213 2275 61 
Q 1981 -91 1556 -91 
Q 1019 -91 701 211 
Q 384 513 384 1019 
Q 384 1609 779 1909 
Q 1175 2209 1959 2209 
L 2766 2209 
L 2766 2266 
Q 2766 2663 2505 2880 
Q 2244 3097 1772 3097 
Q 1472 3097 1187 3025 
Q 903 2953 641 2809 
L 641 3341 
Q 956 3463 1253 3523 
Q 1550 3584 1831 3584 
Q 2591 3584 2966 3190 
Q 3341 2797 3341 1997 
z
" transform="scale(0.015625)"/>
       <path id="DejaVuSans-20" transform="scale(0.015625)"/>
       <path id="DejaVuSans-4e" d="M 628 4666 
L 1478 4666 
L 3547 763 
L 3547 4666 
L 4159 4666 
L 4159 0 
L 3309 0 
L 1241 3903 
L 1241 0 
L 628 0 
L 628 4666 
z
" transform="scale(0.015625)"/>
       <path id="DejaVuSans-6f" d="M 1959 3097 
Q 1497 3097 1228 2736 
Q 959 2375 959 1747 
Q 959 1119 1226 758 
Q 1494 397 1959 397 
Q 2419 397 2687 759 
Q 2956 1122 2956 1747 
Q 2956 2369 2687 2733 
Q 2419 3097 1959 3097 
z
M 1959 3584 
Q 2709 3584 3137 3096 
Q 3566 2609 3566 1747 
Q 3566 888 3137 398 
Q 2709 -91 1959 -91 
Q 1206 -91 779 398 
Q 353 888 353 1747 
Q 353 2609 779 3096 
Q 1206 3584 1959 3584 
z
" transform="scale(0.015625)"/>
       <path id="DejaVuSans-6d" d="M 3328 2828 
Q 3544 3216 3844 3400 
Q 4144 3584 4550 3584 
Q 5097 3584 5394 3201 
Q 5691 2819 5691 2113 
L 5691 0 
L 5113 0 
L 5113 2094 
Q 5113 2597 4934 2840 
Q 4756 3084 4391 3084 
Q 3944 3084 3684 2787 
Q 3425 2491 3425 1978 
L 3425 0 
L 2847 0 
L 2847 2094 
Q 2847 2600 2669 2842 
Q 2491 3084 2119 3084 
Q 1678 3084 1418 2786 
Q 1159 2488 1159 1978 
L 1159 0 
L 581 0 
L 581 3500 
L 1159 3500 
L 1159 2956 
Q 1356 3278 1631 3431 
Q 1906 3584 2284 3584 
Q 2666 3584 2933 3390 
Q 3200 3197 3328 2828 
z
" transform="scale(0.015625)"/>
       <path id="DejaVuSans-6c" d="M 603 4863 
L 1178 4863 
L 1178 0 
L 603 0 
L 603 4863 
z
" transform="scale(0.015625)"/>
       <path id="DejaVuSans-7a" d="M 353 3500 
L 3084 3500 
L 3084 2975 
L 922 459 
L 3084 459 
L 3084 0 
L 275 0 
L 275 525 
L 2438 3041 
L 353 3041 
L 353 3500 
z
" transform="scale(0.015625)"/>
       <path id="DejaVuSans-64" d="M 2906 2969 
L 2906 4863 
L 3481 4863 
L 3481 0 
L 2906 0 
L 2906 525 
Q 2725 213 2448 61 
Q 2172 -91 1784 -91 
Q 1150 -91 751 415 
Q 353 922 353 1747 
Q 353 2572 751 3078 
Q 1150 3584 1784 3584 
Q 2172 3584 2448 3432 
Q 2725 3281 2906 2969 
z
M 947 1747 
Q 947 1113 1208 752 
Q 1469 391 1925 391 
Q 2381 391 2643 752 
Q 2906 1113 2906 1747 
Q 2906 2381 2643 2742 
Q 2381 3103 1925 3103 
Q 1469 3103 1208 2742 
Q 947 2381 947 1747 
z
" transform="scale(0.015625)"/>
       <path id="DejaVuSans-5b" d="M 550 4863 
L 1875 4863 
L 1875 4416 
L 1125 4416 
L 1125 -397 
L 1875 -397 
L 1875 -844 
L 550 -844 
L 550 4863 
z
" transform="scale(0.015625)"/>
       <path id="DejaVuSans-73" d="M 2834 3397 
L 2834 2853 
Q 2591 2978 2328 3040 
Q 2066 3103 1784 3103 
Q 1356 3103 1142 2972 
Q 928 2841 928 2578 
Q 928 2378 1081 2264 
Q 1234 2150 1697 2047 
L 1894 2003 
Q 2506 1872 2764 1633 
Q 3022 1394 3022 966 
Q 3022 478 2636 193 
Q 2250 -91 1575 -91 
Q 1294 -91 989 -36 
Q 684 19 347 128 
L 347 722 
Q 666 556 975 473 
Q 1284 391 1588 391 
Q 1994 391 2212 530 
Q 2431 669 2431 922 
Q 2431 1156 2273 1281 
Q 2116 1406 1581 1522 
L 1381 1569 
Q 847 1681 609 1914 
Q 372 2147 372 2553 
Q 372 3047 722 3315 
Q 1072 3584 1716 3584 
Q 2034 3584 2315 3537 
Q 2597 3491 2834 3397 
z
" transform="scale(0.015625)"/>
       <path id="DejaVuSans-70" d="M 1159 525 
L 1159 -1331 
L 581 -1331 
L 581 3500 
L 1159 3500 
L 1159 2969 
Q 1341 3281 1617 3432 
Q 1894 3584 2278 3584 
Q 2916 3584 3314 3078 
Q 3713 2572 3713 1747 
Q 3713 922 3314 415 
Q 2916 -91 2278 -91 
Q 1894 -91 1617 61 
Q 1341 213 1159 525 
z
M 3116 1747 
Q 3116 2381 2855 2742 
Q 2594 3103 2138 3103 
Q 1681 3103 1420 2742 
Q 1159 2381 1159 1747 
Q 1159 1113 1420 752 
Q 1681 391 2138 391 
Q 2594 391 2855 752 
Q 3116 1113 3116 1747 
z
" transform="scale(0.015625)"/>
       <path id="DejaVuSans-74" d="M 1172 4494 
L 1172 3500 
L 2356 3500 
L 2356 3053 
L 1172 3053 
L 1172 1153 
Q 1172 725 1289 603 
Q 1406 481 1766 481 
L 2356 481 
L 2356 0 
L 1766 0 
Q 1100 0 847 248 
Q 594 497 594 1153 
L 594 3053 
L 172 3053 
L 172 3500 
L 594 3500 
L 594 4494 
L 1172 4494 
z
" transform="scale(0.015625)"/>
       <path id="DejaVuSans-5d" d="M 1947 4863 
L 1947 -844 
L 622 -844 
L 622 -397 
L 1369 -397 
L 1369 4416 
L 622 4416 
L 622 4863 
L 1947 4863 
z
" transform="scale(0.015625)"/>
      </defs>
      <use xlink:href="#DejaVuSans-46"/>
      <use xlink:href="#DejaVuSans-72" x="50.269531"/>
      <use xlink:href="#DejaVuSans-65" x="89.132812"/>
      <use xlink:href="#DejaVuSans-63" x="150.65625"/>
      <use xlink:href="#DejaVuSans-75" x="205.636719"/>
      <use xlink:href="#DejaVuSans-65" x="269.015625"/>
      <use xlink:href="#DejaVuSans-6e" x="330.539062"/>
      <use xlink:href="#DejaVuSans-63" x="393.917969"/>
      <use xlink:href="#DejaVuSans-69" x="448.898438"/>
      <use xlink:href="#DejaVuSans-61" x="476.681641"/>
      <use xlink:href="#DejaVuSans-20" x="537.960938"/>
      <use xlink:href="#DejaVuSans-4e" x="569.748047"/>
      <use xlink:href="#DejaVuSans-6f" x="644.552734"/>
      <use xlink:href="#DejaVuSans-72" x="705.734375"/>
      <use xlink:href="#DejaVuSans-6d" x="745.097656"/>
      <use xlink:href="#DejaVuSans-61" x="842.509766"/>
      <use xlink:href="#DejaVuSans-6c" x="903.789062"/>
      <use xlink:href="#DejaVuSans-69" x="931.572266"/>
      <use xlink:href="#DejaVuSans-7a" x="959.355469"/>
      <use xlink:href="#DejaVuSans-61" x="1011.845703"/>
      <use xlink:href="#DejaVuSans-64" x="1073.125"/>
      <use xlink:href="#DejaVuSans-61" x="1136.601562"/>
      <use xlink:href="#DejaVuSans-20" x="1197.880859"/>
      <use xlink:href="#DejaVuSans-5b" x="1229.667969"/>
      <use xlink:href="#DejaVuSans-63" x="1268.681641"/>
      <use xlink:href="#DejaVuSans-69" x="1323.662109"/>
      <use xlink:href="#DejaVuSans-63" x="1351.445312"/>
      <use xlink:href="#DejaVuSans-6c" x="1406.425781"/>
      <use xlink:href="#DejaVuSans-6f" x="1434.208984"/>
      <use xlink:href="#DejaVuSans-73" x="1495.390625"/>
      <use xlink:href="#DejaVuSans-20" x="1547.490234"/>
      <use xlink:href="#DejaVuSans-70" x="1579.277344"/>
      <use xlink:href="#DejaVuSans-6f" x="1642.753906"/>
      <use xlink:href="#DejaVuSans-72" x="1703.935547"/>
      <use xlink:href="#DejaVuSans-20" x="1745.048828"/>
      <use xlink:href="#DejaVuSans-6d" x="1776.835938"/>
      <use xlink:href="#DejaVuSans-75" x="1874.248047"/>
      <use xlink:href="#DejaVuSans-65" x="1937.626953"/>
      <use xlink:href="#DejaVuSans-73" x="1999.150391"/>
      <use xlink:href="#DejaVuSans-74" x="2051.25"/>
      <use xlink:href="#DejaVuSans-72" x="2090.458984"/>
      <use xlink:href="#DejaVuSans-61" x="2131.572266"/>
      <use xlink:href="#DejaVuSans-5d" x="2192.851562"/>
     </g>
    </g>
   </g>
   <g id="matplotlib.axis_2">
    <g id="ytick_1">
     <g id="line2d_6">
      <defs>
       <path id="m92641869a3" d="M 0 0 
L -3.5 0 
" style="stroke: #000000; stroke-width: 0.8"/>
      </defs>
      <g>
       <use xlink:href="#m92641869a3" x="54" y="252" style="stroke: #000000; stroke-width: 0.8"/>
      </g>
     </g>
     <g id="text_7">
      <!-- −120 -->
      <g transform="translate(19.532812 255.799219)scale(0.1 -0.1)">
       <defs>
        <path id="DejaVuSans-31" d="M 794 531 
L 1825 531 
L 1825 4091 
L 703 3866 
L 703 4441 
L 1819 4666 
L 2450 4666 
L 2450 531 
L 3481 531 
L 3481 0 
L 794 0 
L 794 531 
z
" transform="scale(0.015625)"/>
       </defs>
       <use xlink:href="#DejaVuSans-2212"/>
       <use xlink:href="#DejaVuSans-31" x="83.789062"/>
       <use xlink:href="#DejaVuSans-32" x="147.412109"/>
       <use xlink:href="#DejaVuSans-30" x="211.035156"/>
      </g>
     </g>
    </g>
    <g id="ytick_2">
     <g id="line2d_7">
      <g>
       <use xlink:href="#m92641869a3" x="54" y="215.76" style="stroke: #000000; stroke-width: 0.8"/>
      </g>
     </g>
     <g id="text_8">
      <!-- −100 -->
      <g transform="translate(19.532812 219.559219)scale(0.1 -0.1)">
       <use xlink:href="#DejaVuSans-2212"/>
       <use xlink:href="#DejaVuSans-31" x="83.789062"/>
       <use xlink:href="#DejaVuSans-30" x="147.412109"/>
       <use xlink:href="#DejaVuSans-30" x="211.035156"/>
      </g>
     </g>
    </g>
    <g id="ytick_3">
     <g id="line2d_8">
      <g>
       <use xlink:href="#m92641869a3" x="54" y="179.52" style="stroke: #000000; stroke-width: 0.8"/>
      </g>
     </g>
     <g id="text_9">
      <!-- −80 -->
      <g transform="translate(25.895312 183.319219)scale(0.1 -0.1)">
       <defs>
        <path id="DejaVuSans-38" d="M 2034 2216 
Q 1584 2216 1326 1975 
Q 1069 1734 1069 1313 
Q 1069 891 1326 650 
Q 1584 409 2034 409 
Q 2484 409 2743 651 
Q 3003 894 3003 1313 
Q 3003 1734 2745 1975 
Q 2488 2216 2034 2216 
z
M 1403 2484 
Q 997 2584 770 2862 
Q 544 3141 544 3541 
Q 544 4100 942 4425 
Q 1341 4750 2034 4750 
Q 2731 4750 3128 4425 
Q 3525 4100 3525 3541 
Q 3525 3141 3298 2862 
Q 3072 2584 2669 2484 
Q 3125 2378 3379 2068 
Q 3634 1759 3634 1313 
Q 3634 634 3220 271 
Q 2806 -91 2034 -91 
Q 1263 -91 848 271 
Q 434 634 434 1313 
Q 434 1759 690 2068 
Q 947 2378 1403 2484 
z
M 1172 3481 
Q 1172 3119 1398 2916 
Q 1625 2713 2034 2713 
Q 2441 2713 2670 2916 
Q 2900 3119 2900 3481 
Q 2900 3844 2670 4047 
Q 2441 4250 2034 4250 
Q 1625 4250 1398 4047 
Q 1172 3844 1172 3481 
z
" transform="scale(0.015625)"/>
       </defs>
       <use xlink:href="#DejaVuSans-2212"/>
       <use xlink:href="#DejaVuSans-38" x="83.789062"/>
       <use xlink:href="#DejaVuSans-30" x="147.412109"/>
      </g>
     </g>
    </g>
    <g id="ytick_4">
     <g id="line2d_9">
      <g>
       <use xlink:href="#m92641869a3" x="54" y="143.28" style="stroke: #000000; stroke-width: 0.8"/>
      </g>
     </g>
     <g id="text_10">
      <!-- −60 -->
      <g transform="translate(25.895312 147.079219)scale(0.1 -0.1)">
       <defs>
        <path id="DejaVuSans-36" d="M 2113 2584 
Q 1688 2584 1439 2293 
Q 1191 2003 1191 1497 
Q 1191 994 1439 701 
Q 1688 409 2113 409 
Q 2538 409 2786 701 
Q 3034 994 3034 1497 
Q 3034 2003 2786 2293 
Q 2538 2584 2113 2584 
z
M 3366 4563 
L 3366 3988 
Q 3128 4100 2886 4159 
Q 2644 4219 2406 4219 
Q 1781 4219 1451 3797 
Q 1122 3375 1075 2522 
Q 1259 2794 1537 2939 
Q 1816 3084 2150 3084 
Q 2853 3084 3261 2657 
Q 3669 2231 3669 1497 
Q 3669 778 3244 343 
Q 2819 -91 2113 -91 
Q 1303 -91 875 529 
Q 447 1150 447 2328 
Q 447 3434 972 4092 
Q 1497 4750 2381 4750 
Q 2619 4750 2861 4703 
Q 3103 4656 3366 4563 
z
" transform="scale(0.015625)"/>
       </defs>
       <use xlink:href="#DejaVuSans-2212"/>
       <use xlink:href="#DejaVuSans-36" x="83.789062"/>
       <use xlink:href="#DejaVuSans-30" x="147.412109"/>
      </g>
     </g>
    </g>
    <g id="ytick_5">
     <g id="line2d_10">
      <g>
       <use xlink:href="#m92641869a3" x="54" y="107.04" style="stroke: #000000; stroke-width: 0.8"/>
      </g>
     </g>
     <g id="text_11">
      <!-- −40 -->
      <g transform="translate(25.895312 110.839219)scale(0.1 -0.1)">
       <use xlink:href="#DejaVuSans-2212"/>
       <use xlink:href="#DejaVuSans-34" x="83.789062"/>
       <use xlink:href="#DejaVuSans-30" x="147.412109"/>
      </g>
     </g>
    </g>
    <g id="ytick_6">
     <g id="line2d_11">
      <g>
       <use xlink:href="#m92641869a3" x="54" y="70.8" style="stroke: #000000; stroke-width: 0.8"/>
      </g>
     </g>
     <g id="text_12">
      <!-- −20 -->
      <g transform="translate(25.895312 74.599219)scale(0.1 -0.1)">
       <use xlink:href="#DejaVuSans-2212"/>
       <use xlink:href="#DejaVuSans-32" x="83.789062"/>
       <use xlink:href="#DejaVuSans-30" x="147.412109"/>
      </g>
     </g>
    </g>
    <g id="ytick_7">
     <g id="line2d_12">
      <g>
       <use xlink:href="#m92641869a3" x="54" y="34.56" style="stroke: #000000; stroke-width: 0.8"/>
      </g>
     </g>
     <g id="text_13">
      <!-- 0 -->
      <g transform="translate(40.6375 38.359219)scale(0.1 -0.1)">
       <use xlink:href="#DejaVuSans-30"/>
      </g>
     </g>
    </g>
    <g id="text_14">
     <!-- Magnitud Normalizada [dB] -->
     <g transform="translate(13.453125 211.784688)rotate(-90)scale(0.1 -0.1)">
      <defs>
       <path id="DejaVuSans-4d" d="M 628 4666 
L 1569 4666 
L 2759 1491 
L 3956 4666 
L 4897 4666 
L 4897 0 
L 4281 0 
L 4281 4097 
L 3078 897 
L 2444 897 
L 1241 4097 
L 1241 0 
L 628 0 
L 628 4666 
z
" transform="scale(0.015625)"/>
       <path id="DejaVuSans-67" d="M 2906 1791 
Q 2906 2416 2648 2759 
Q 2391 3103 1925 3103 
Q 1463 3103 1205 2759 
Q 947 2416 947 1791 
Q 947 1169 1205 825 
Q 1463 481 1925 481 
Q 2391 481 2648 825 
Q 2906 1169 2906 1791 
z
M 3481 434 
Q 3481 -459 3084 -895 
Q 2688 -1331 1869 -1331 
Q 1566 -1331 1297 -1286 
Q 1028 -1241 775 -1147 
L 775 -588 
Q 1028 -725 1275 -790 
Q 1522 -856 1778 -856 
Q 2344 -856 2625 -561 
Q 2906 -266 2906 331 
L 2906 616 
Q 2728 306 2450 153 
Q 2172 0 1784 0 
Q 1141 0 747 490 
Q 353 981 353 1791 
Q 353 2603 747 3093 
Q 1141 3584 1784 3584 
Q 2172 3584 2450 3431 
Q 2728 3278 2906 2969 
L 2906 3500 
L 3481 3500 
L 3481 434 
z
" transform="scale(0.015625)"/>
       <path id="DejaVuSans-42" d="M 1259 2228 
L 1259 519 
L 2272 519 
Q 2781 519 3026 730 
Q 3272 941 3272 1375 
Q 3272 1813 3026 2020 
Q 2781 2228 2272 2228 
L 1259 2228 
z
M 1259 4147 
L 1259 2741 
L 2194 2741 
Q 2656 2741 2882 2914 
Q 3109 3088 3109 3444 
Q 3109 3797 2882 3972 
Q 2656 4147 2194 4147 
L 1259 4147 
z
M 628 4666 
L 2241 4666 
Q 2963 4666 3353 4366 
Q 3744 4066 3744 3513 
Q 3744 3084 3544 2831 
Q 3344 2578 2956 2516 
Q 3422 2416 3680 2098 
Q 3938 1781 3938 1306 
Q 3938 681 3513 340 
Q 3088 0 2303 0 
L 628 0 
L 628 4666 
z
" transform="scale(0.015625)"/>
      </defs>
      <use xlink:href="#DejaVuSans-4d"/>
      <use xlink:href="#DejaVuSans-61" x="86.279297"/>
      <use xlink:href="#DejaVuSans-67" x="147.558594"/>
      <use xlink:href="#DejaVuSans-6e" x="211.035156"/>
      <use xlink:href="#DejaVuSans-69" x="274.414062"/>
      <use xlink:href="#DejaVuSans-74" x="302.197266"/>
      <use xlink:href="#DejaVuSans-75" x="341.40625"/>
      <use xlink:href="#DejaVuSans-64" x="404.785156"/>
      <use xlink:href="#DejaVuSans-20" x="468.261719"/>
      <use xlink:href="#DejaVuSans-4e" x="500.048828"/>
      <use xlink:href="#DejaVuSans-6f" x="574.853516"/>
      <use xlink:href="#DejaVuSans-72" x="636.035156"/>
      <use xlink:href="#DejaVuSans-6d" x="675.398438"/>
      <use xlink:href="#DejaVuSans-61" x="772.810547"/>
      <use xlink:href="#DejaVuSans-6c" x="834.089844"/>
      <use xlink:href="#DejaVuSans-69" x="861.873047"/>
      <use xlink:href="#DejaVuSans-7a" x="889.65625"/>
      <use xlink:href="#DejaVuSans-61" x="942.146484"/>
      <use xlink:href="#DejaVuSans-64" x="1003.425781"/>
      <use xlink:href="#DejaVuSans-61" x="1066.902344"/>
      <use xlink:href="#DejaVuSans-20" x="1128.181641"/>
      <use xlink:href="#DejaVuSans-5b" x="1159.96875"/>
      <use xlink:href="#DejaVuSans-64" x="1198.982422"/>
      <use xlink:href="#DejaVuSans-42" x="1262.458984"/>
      <use xlink:href="#DejaVuSans-5d" x="1331.0625"/>
     </g>
    </g>
   </g>
   <g id="line2d_13">
    <path d="M 54 96.442343 
L 54.327113 96.635716 
L 54.654226 97.225587 
L 54.981339 98.243265 
L 55.472008 100.714741 
L 55.962677 104.723747 
L 56.453346 111.382337 
L 56.780459 118.995915 
L 56.944016 125.09456 
L 57.107572 135.369476 
L 57.271128 176.602266 
L 57.434685 137.836873 
L 57.761798 119.799436 
L 58.252467 109.107296 
L 58.743136 103.385596 
L 59.233806 99.872415 
L 59.724475 97.736817 
L 60.215144 96.640722 
L 60.542257 96.413882 
L 60.86937 96.573846 
L 61.196483 97.128818 
L 61.523596 98.108235 
L 62.014265 100.509724 
L 62.504934 104.415855 
L 62.995603 110.877898 
L 63.322716 118.174778 
L 63.649829 133.180086 
L 63.813385 159.252832 
L 64.140498 127.585221 
L 64.467611 115.833628 
L 64.95828 107.116059 
L 65.44895 102.151464 
L 65.939619 99.07399 
L 66.430288 97.248937 
L 66.757401 96.588671 
L 67.084514 96.328273 
L 67.411627 96.454856 
L 67.73874 96.975081 
L 68.065852 97.91656 
L 68.556522 100.249073 
L 69.047191 104.054861 
L 69.53786 110.328693 
L 69.864973 117.331733 
L 70.192086 131.187563 
L 70.355642 151.095465 
L 70.519199 144.197556 
L 70.846312 121.371908 
L 71.336981 109.708703 
L 71.82765 103.652364 
L 72.318319 99.95188 
L 72.808989 97.683869 
L 73.299658 96.478918 
L 73.626771 96.18484 
L 73.953884 96.278035 
L 74.280997 96.763634 
L 74.608109 97.667453 
L 75.098779 99.931926 
L 75.589448 103.639738 
L 76.080117 109.73306 
L 76.40723 116.462553 
L 76.734343 129.336244 
L 76.897899 145.622294 
L 77.061456 148.711425 
L 77.388569 122.151033 
L 77.715681 112.972627 
L 78.206351 105.429359 
L 78.69702 100.979947 
L 79.187689 98.216736 
L 79.678359 96.623879 
L 80.005471 96.097399 
L 80.332584 95.964076 
L 80.659697 96.217824 
L 80.98681 96.872125 
L 81.313923 97.962903 
L 81.804592 100.576207 
L 82.295261 104.811763 
L 82.785931 111.945825 
L 83.113043 120.402589 
L 83.2766 127.585871 
L 83.603713 155.193461 
L 83.930826 122.933307 
L 84.257938 113.26524 
L 84.748608 105.471635 
L 85.239277 100.903895 
L 85.729946 98.06436 
L 86.220616 96.412562 
L 86.547728 95.851196 
L 86.874841 95.684295 
L 87.201954 95.904238 
L 87.529067 96.522925 
L 87.85618 97.574306 
L 88.346849 100.114543 
L 88.837518 104.240141 
L 89.328188 111.154543 
L 89.6553 119.226941 
L 89.818857 125.905929 
L 89.982413 137.967662 
L 90.14597 166.879892 
L 90.309526 133.611547 
L 90.636639 117.761241 
L 91.127308 107.625014 
L 91.617978 102.089321 
L 92.108647 98.670407 
L 92.599316 96.59409 
L 93.089985 95.542216 
L 93.417098 95.341565 
L 93.744211 95.527646 
L 94.071324 96.110795 
L 94.398437 97.123031 
L 94.889106 99.591167 
L 95.379775 103.609522 
L 95.870445 110.314134 
L 96.197557 118.032951 
L 96.361114 124.27225 
L 96.52467 134.970513 
L 96.688227 197.13159 
L 96.851783 135.566105 
L 97.178896 118.17359 
L 97.669565 107.616907 
L 98.160234 101.924846 
L 98.650904 98.415503 
L 99.141573 96.273931 
L 99.632242 95.167608 
L 99.959355 94.932989 
L 100.286468 95.085108 
L 100.613581 95.632745 
L 100.940694 96.606038 
L 101.431363 99.002938 
L 101.922032 102.916556 
L 102.412702 109.420429 
L 102.739814 116.812623 
L 103.066927 132.281305 
L 103.230484 162.10604 
L 103.557596 125.378768 
L 103.884709 113.883422 
L 104.375379 105.249971 
L 104.866048 100.303713 
L 105.356717 97.225415 
L 105.847386 95.391786 
L 106.174499 94.723775 
L 106.501612 94.454921 
L 106.828725 94.572926 
L 107.155838 95.085028 
L 107.482951 96.01952 
L 107.97362 98.345937 
L 108.464289 102.15712 
L 108.954958 108.46855 
L 109.282071 115.557851 
L 109.609184 129.80131 
L 109.772741 151.579298 
L 110.426966 113.997798 
L 110.917636 105.04964 
L 111.408305 99.968408 
L 111.898974 96.806837 
L 112.389643 94.910633 
L 112.716756 94.206239 
L 113.043869 93.902824 
L 113.370982 93.986505 
L 113.698095 94.462987 
L 114.025208 95.358755 
L 114.515877 97.61532 
L 115.006546 101.326162 
L 115.497215 107.45274 
L 115.824328 114.26013 
L 116.151441 127.462546 
L 116.314998 144.914129 
L 116.478554 144.281158 
L 116.805667 119.259433 
L 117.13278 110.229965 
L 117.623449 102.743097 
L 118.114118 98.302854 
L 118.604787 95.533456 
L 119.095457 93.92794 
L 119.42257 93.391343 
L 119.749682 93.247379 
L 120.076795 93.490533 
L 120.403908 94.134886 
L 120.731021 95.217113 
L 121.22169 97.822857 
L 121.71236 102.065002 
L 122.203029 109.248617 
L 122.530142 117.834571 
L 122.693698 125.2148 
L 123.020811 149.38164 
L 123.347924 119.57355 
L 123.675037 110.070797 
L 124.165706 102.336409 
L 124.656375 97.777075 
L 125.147044 94.929768 
L 125.637714 93.263411 
L 125.964827 92.690558 
L 126.291939 92.511583 
L 126.619052 92.719439 
L 126.946165 93.326619 
L 127.273278 94.367804 
L 127.763947 96.897755 
L 128.254617 101.026494 
L 128.745286 107.9841 
L 129.072399 116.171378 
L 129.235955 123.018402 
L 129.399511 135.676284 
L 129.563068 157.853146 
L 129.890181 119.864849 
L 130.217294 109.838727 
L 130.707963 101.842898 
L 131.198632 97.1603 
L 131.689301 94.233042 
L 132.179971 92.504551 
L 132.507084 91.894795 
L 132.834196 91.680284 
L 133.161309 91.852431 
L 133.488422 92.422153 
L 133.815535 93.422189 
L 134.306204 95.876773 
L 134.796873 99.894312 
L 135.287543 106.635514 
L 135.614656 114.456115 
L 135.778212 120.839787 
L 135.941768 131.996825 
L 136.105325 182.302028 
L 136.268881 130.717466 
L 136.595994 113.911719 
L 137.086663 103.474438 
L 137.577333 97.799524 
L 138.068002 94.281881 
L 138.558671 92.122156 
L 139.04934 90.993286 
L 139.376453 90.742581 
L 139.703566 90.878469 
L 140.030679 91.41031 
L 140.357792 92.368941 
L 140.848461 94.748339 
L 141.33913 98.656524 
L 141.8298 105.189922 
L 142.156913 112.671653 
L 142.484025 128.628458 
L 142.647582 164.014891 
L 142.974695 120.381176 
L 143.301808 109.119907 
L 143.792477 100.553553 
L 144.283146 95.610317 
L 144.773815 92.516004 
L 145.264485 90.658477 
L 145.591597 89.972398 
L 145.91871 89.684663 
L 146.245823 89.783566 
L 146.572936 90.276918 
L 146.900049 91.193698 
L 147.390718 93.497774 
L 147.881387 97.298034 
L 148.372057 103.631228 
L 148.69917 110.798311 
L 149.026282 125.443562 
L 149.189839 149.553055 
L 149.680508 113.453753 
L 150.171177 102.090339 
L 150.661847 96.079187 
L 151.152516 92.366025 
L 151.643185 90.063612 
L 152.133854 88.814619 
L 152.460967 88.488781 
L 152.78808 88.54973 
L 153.115193 89.00374 
L 153.442306 89.877968 
L 153.932975 92.10617 
L 154.423644 95.799421 
L 154.914314 101.938979 
L 155.241426 108.812505 
L 155.568539 122.349126 
L 155.732096 141.162626 
L 155.895652 136.782811 
L 156.222765 113.082519 
L 156.713434 101.195458 
L 157.204104 95.003856 
L 157.694773 91.187114 
L 158.185442 88.809361 
L 158.676111 87.497044 
L 159.003224 87.131699 
L 159.330337 87.153387 
L 159.65745 87.566855 
L 159.984563 88.397471 
L 160.475232 90.548683 
L 160.965901 94.135177 
L 161.456571 100.086527 
L 161.783683 106.684766 
L 162.110796 119.268461 
L 162.437909 140.399106 
L 162.765022 112.590581 
L 163.092135 103.226982 
L 163.582804 95.520709 
L 164.073473 90.939504 
L 164.564143 88.053891 
L 165.054812 86.341975 
L 165.381925 85.736676 
L 165.709038 85.524421 
L 166.03615 85.698734 
L 166.363263 86.272694 
L 166.690376 87.281723 
L 167.181045 89.767999 
L 167.671715 93.866093 
L 168.162384 100.833496 
L 168.489497 109.116597 
L 168.653053 116.129547 
L 168.980166 146.26858 
L 169.307279 111.948533 
L 169.634392 102.073936 
L 170.125061 94.100361 
L 170.61573 89.386009 
L 171.1064 86.409486 
L 171.597069 84.623924 
L 171.924182 83.973813 
L 172.251295 83.717943 
L 172.578407 83.848296 
L 172.90552 84.376372 
L 173.232633 85.335624 
L 173.723302 87.733121 
L 174.213972 91.705632 
L 174.704641 98.439227 
L 175.031754 106.334714 
L 175.19531 112.855103 
L 175.358867 124.50013 
L 175.522423 159.3625 
L 175.685979 121.305443 
L 176.013092 105.009626 
L 176.503762 94.638134 
L 176.994431 88.929269 
L 177.4851 85.351668 
L 177.975769 83.121162 
L 178.466439 81.916025 
L 178.793552 81.612781 
L 179.120664 81.695457 
L 179.447777 82.173985 
L 179.77489 83.079897 
L 180.265559 85.383698 
L 180.756229 89.227239 
L 181.246898 95.730442 
L 181.574011 103.263799 
L 181.737567 109.350742 
L 181.901124 119.704704 
L 182.06468 165.11567 
L 182.228236 121.430084 
L 182.555349 103.49587 
L 183.046019 92.670825 
L 183.536688 86.778193 
L 184.027357 83.083025 
L 184.518026 80.759693 
L 185.008696 79.471906 
L 185.335809 79.115506 
L 185.662921 79.144706 
L 185.990034 79.567877 
L 186.317147 80.414668 
L 186.807816 82.616382 
L 187.298486 86.323834 
L 187.789155 92.595558 
L 188.116268 99.786048 
L 188.443381 114.803063 
L 188.606937 141.920674 
L 188.93405 108.563065 
L 189.261163 96.755515 
L 189.751832 87.849175 
L 190.242501 82.670147 
L 190.73317 79.368179 
L 191.22384 77.31228 
L 191.714509 76.237253 
L 192.041622 76.011044 
L 192.368735 76.170933 
L 192.695848 76.733781 
L 193.02296 77.739831 
L 193.51363 80.254083 
L 194.004299 84.470674 
L 194.331412 88.850688 
L 194.658525 95.709399 
L 194.985638 109.516745 
L 195.149194 129.917587 
L 195.31275 121.621003 
L 195.639863 98.991995 
L 196.130532 87.109498 
L 196.621202 80.784447 
L 197.111871 76.799613 
L 197.60254 74.23752 
L 198.09321 72.730537 
L 198.420322 72.231048 
L 198.747435 72.115725 
L 199.074548 72.389798 
L 199.401661 73.079211 
L 199.728774 74.236429 
L 200.219443 77.069423 
L 200.710112 81.861645 
L 201.037225 87.011261 
L 201.364338 95.702089 
L 201.527894 103.428107 
L 201.691451 119.963887 
L 201.855007 121.687587 
L 202.18212 95.421996 
L 202.672789 82.895062 
L 203.163459 76.287854 
L 203.654128 72.09572 
L 204.144797 69.350022 
L 204.635467 67.665993 
L 204.962579 67.04785 
L 205.289692 66.811265 
L 205.616805 66.959785 
L 205.943918 67.517418 
L 206.271031 68.534007 
L 206.7617 71.129642 
L 207.252369 75.621162 
L 207.579482 80.480896 
L 207.906595 88.628457 
L 208.070151 95.696886 
L 208.397264 121.735072 
L 208.724377 89.975316 
L 209.05149 79.977853 
L 209.542159 71.605874 
L 210.032829 66.416371 
L 210.687054 62.027806 
L 211.177723 60.011105 
L 211.668393 58.877098 
L 211.995506 58.584208 
L 212.322618 58.671669 
L 212.649731 59.172313 
L 212.976844 60.148849 
L 213.303957 61.711532 
L 213.63107 64.057947 
L 213.958183 67.574039 
L 214.285296 73.155598 
L 214.612408 83.806432 
L 214.775965 95.693771 
L 214.939521 121.763534 
L 215.103078 89.93895 
L 215.430191 73.450477 
L 215.92086 62.060633 
L 216.575085 53.292906 
L 217.229311 47.483896 
L 218.047093 42.411903 
L 218.864875 38.9073 
L 219.519101 36.942973 
L 220.173327 35.600864 
L 220.663996 34.96328 
L 221.154665 34.624246 
L 221.645335 34.576052 
L 222.136004 34.81762 
L 222.626673 35.354394 
L 223.117342 36.198938 
L 223.771568 37.841871 
L 224.425794 40.154519 
L 225.08002 43.281383 
L 225.734245 47.483896 
L 226.388471 53.292906 
L 226.87914 59.440172 
L 227.369809 68.806735 
L 227.696922 79.779474 
L 227.860479 89.93895 
L 228.024035 121.763534 
L 228.351148 83.806432 
L 228.678261 73.155598 
L 229.16893 65.632671 
L 229.659599 61.711532 
L 230.150269 59.595627 
L 230.477382 58.867266 
L 230.804494 58.578918 
L 231.131607 58.684252 
L 231.45872 59.162018 
L 231.785833 60.011105 
L 232.276502 62.027806 
L 232.767171 65.099329 
L 233.257841 69.630072 
L 233.74851 76.644976 
L 234.075623 84.210228 
L 234.402736 99.024575 
L 234.566292 121.735072 
L 235.056961 88.628457 
L 235.384074 80.480896 
L 235.874744 73.842072 
L 236.365413 70.097947 
L 236.856082 67.963944 
L 237.183195 67.185054 
L 237.510308 66.836403 
L 237.837421 66.882092 
L 238.164533 67.308698 
L 238.491646 68.122361 
L 238.982316 70.134543 
L 239.472985 73.302821 
L 239.963654 78.140724 
L 240.454323 86.045787 
L 240.781436 95.421996 
L 240.944993 103.655174 
L 241.108549 121.687587 
L 241.272106 119.963887 
L 241.599218 95.702089 
L 241.926331 87.011261 
L 242.417 79.971146 
L 242.90767 75.953963 
L 243.398339 73.594738 
L 243.889008 72.389798 
L 244.216121 72.115725 
L 244.543234 72.231048 
L 244.870347 72.730537 
L 245.19746 73.628561 
L 245.688129 75.811973 
L 246.178798 79.259953 
L 246.669468 84.635093 
L 246.99658 90.121644 
L 247.323693 98.991995 
L 247.48725 106.559773 
L 247.814362 129.917587 
L 248.141475 101.058015 
L 248.468588 91.841145 
L 248.959257 84.470674 
L 249.449927 80.254083 
L 249.940596 77.739831 
L 250.431265 76.400096 
L 250.758378 76.042155 
L 251.085491 76.076156 
L 251.412604 76.495287 
L 251.739717 77.31228 
L 252.230386 79.368179 
L 252.721055 82.670147 
L 253.211724 87.849175 
L 253.538837 93.126072 
L 253.86595 101.556485 
L 254.029507 108.563065 
L 254.356619 141.920674 
L 254.683732 105.486143 
L 255.010845 95.718839 
L 255.501514 88.039642 
L 255.992184 83.65303 
L 256.482853 81.013513 
L 256.973522 79.567877 
L 257.300635 79.144706 
L 257.627748 79.115506 
L 257.954861 79.471906 
L 258.281974 80.225046 
L 258.772643 82.178527 
L 259.263312 85.359304 
L 259.753981 90.368664 
L 260.081094 95.45857 
L 260.408207 103.49587 
L 260.571764 110.020034 
L 260.73532 121.430084 
L 260.898876 165.11567 
L 261.062433 119.704704 
L 261.389546 103.263799 
L 261.880215 93.133023 
L 262.370884 87.729645 
L 262.861553 84.473547 
L 263.352223 82.570552 
L 263.679336 81.88383 
L 264.006448 81.60572 
L 264.333561 81.716025 
L 264.660674 82.21457 
L 264.987787 83.121162 
L 265.478456 85.351668 
L 265.969126 88.929269 
L 266.459795 94.638134 
L 266.786908 100.669766 
L 267.114021 111.113462 
L 267.277577 121.305443 
L 267.441133 159.3625 
L 267.768246 112.855103 
L 268.095359 101.836092 
L 268.586028 93.541047 
L 269.076698 88.847222 
L 269.567367 85.995141 
L 270.058036 84.376372 
L 270.385149 83.848296 
L 270.712262 83.717943 
L 271.039375 83.973813 
L 271.366488 84.623924 
L 271.857157 86.409486 
L 272.347826 89.386009 
L 272.838495 94.100361 
L 273.165608 98.859994 
L 273.492721 106.214828 
L 273.819834 121.161087 
L 273.98339 146.26858 
L 274.310503 116.129547 
L 274.637616 104.376715 
L 275.128285 95.760307 
L 275.618955 90.918123 
L 276.109624 87.968431 
L 276.600293 86.272694 
L 276.927406 85.698734 
L 277.254519 85.524421 
L 277.581632 85.736676 
L 277.908745 86.341975 
L 278.235857 87.367708 
L 278.726527 89.824341 
L 279.217196 93.749494 
L 279.707865 100.131179 
L 280.034978 107.185683 
L 280.362091 120.996778 
L 280.525647 140.399106 
L 280.689204 134.827273 
L 281.016317 111.688252 
L 281.343429 102.986251 
L 281.834099 95.778675 
L 282.324768 91.556186 
L 282.815437 88.984036 
L 283.306106 87.566855 
L 283.633219 87.153387 
L 283.960332 87.131699 
L 284.287445 87.497044 
L 284.614558 88.264309 
L 285.105227 90.25952 
L 285.595896 93.532924 
L 286.086566 98.759176 
L 286.413679 104.180911 
L 286.740791 113.082519 
L 286.904348 120.812241 
L 287.067904 136.782811 
L 287.231461 141.162626 
L 287.558574 114.106353 
L 287.885686 104.948037 
L 288.376356 97.491705 
L 288.867025 93.144595 
L 289.357694 90.488219 
L 289.848363 89.00374 
L 290.175476 88.54973 
L 290.502589 88.488781 
L 290.829702 88.814619 
L 291.156815 89.54053 
L 291.647484 91.465588 
L 292.138153 94.647696 
L 292.628823 99.729311 
L 292.955936 104.972311 
L 293.283048 113.453753 
L 293.446605 120.607159 
L 293.773718 149.553055 
L 294.10083 116.414478 
L 294.427943 106.755463 
L 294.918613 99.039921 
L 295.409282 94.566975 
L 295.899951 91.827185 
L 296.39062 90.276918 
L 296.717733 89.783566 
L 297.044846 89.684663 
L 297.371959 89.972398 
L 297.699072 90.658477 
L 298.189741 92.516004 
L 298.68041 95.610317 
L 299.17108 100.553553 
L 299.498192 105.62779 
L 299.825305 113.725108 
L 299.988862 120.381176 
L 300.152418 132.288435 
L 300.315975 164.014891 
L 300.479531 128.628458 
L 300.806644 112.671653 
L 301.297313 102.589605 
L 301.787982 97.139416 
L 302.278652 93.813711 
L 302.769321 91.833364 
L 303.096434 91.093524 
L 303.423547 90.762076 
L 303.75066 90.819437 
L 304.077772 91.265989 
L 304.404885 92.122156 
L 304.895554 94.281881 
L 305.386224 97.799524 
L 305.876893 103.474438 
L 306.204006 109.525365 
L 306.531119 120.133889 
L 306.694675 130.717466 
L 306.858232 182.302028 
L 307.021788 131.996825 
L 307.348901 114.456115 
L 307.83957 103.945817 
L 308.330239 98.334726 
L 308.820909 94.914637 
L 309.311578 92.865325 
L 309.802247 91.852431 
L 310.12936 91.680284 
L 310.456473 91.894795 
L 310.783586 92.504551 
L 311.110699 93.539458 
L 311.601368 96.027058 
L 312.092037 100.027115 
L 312.582706 106.605682 
L 312.909819 114.024809 
L 313.236932 129.394421 
L 313.400489 157.853146 
L 313.727601 123.018402 
L 314.054714 111.497868 
L 314.545383 102.924676 
L 315.036053 98.060209 
L 315.526722 95.069876 
L 316.017391 93.326619 
L 316.344504 92.719439 
L 316.671617 92.511583 
L 316.99873 92.690558 
L 317.325843 93.263411 
L 317.652956 94.258208 
L 318.143625 96.673499 
L 318.634294 100.569569 
L 319.124963 106.954938 
L 319.452076 114.072822 
L 319.779189 128.241941 
L 319.942745 149.38164 
L 320.596971 112.910238 
L 321.08764 104.018484 
L 321.57831 99.017118 
L 322.068979 95.942018 
L 322.559648 94.134886 
L 322.886761 93.490533 
L 323.213874 93.247379 
L 323.540987 93.391343 
L 323.8681 93.92794 
L 324.195213 94.883433 
L 324.685882 97.228133 
L 325.176551 101.023379 
L 325.66722 107.224149 
L 325.994333 114.062182 
L 326.321446 127.209757 
L 326.485002 144.281158 
L 326.648559 144.914129 
L 326.975672 119.46129 
L 327.302785 110.439675 
L 327.793454 103.0194 
L 328.284123 98.661323 
L 328.774792 95.979151 
L 329.265462 94.462987 
L 329.592574 93.986505 
L 329.919687 93.902824 
L 330.2468 94.206239 
L 330.573913 94.910633 
L 331.064582 96.806837 
L 331.555252 99.968408 
L 332.045921 105.04964 
L 332.373034 110.322804 
L 332.700147 118.921875 
L 332.863703 126.263519 
L 333.190816 151.579298 
L 333.517929 121.066414 
L 333.845042 111.566138 
L 334.335711 103.89743 
L 334.82638 99.420595 
L 335.317049 96.661188 
L 335.807719 95.085028 
L 336.134831 94.572926 
L 336.461944 94.454921 
L 336.789057 94.723775 
L 337.11617 95.391786 
L 337.443283 96.493392 
L 337.933952 99.112354 
L 338.424621 103.325676 
L 338.915291 110.354477 
L 339.242404 118.560184 
L 339.40596 125.378768 
L 339.569516 137.859587 
L 339.733073 162.10604 
L 340.060186 122.664843 
L 340.387298 112.635541 
L 340.877968 104.70541 
L 341.368637 100.106704 
L 341.859306 97.2691 
L 342.349976 95.632745 
L 342.677088 95.085108 
L 343.004201 94.932989 
L 343.331314 95.167608 
L 343.658427 95.799692 
L 343.98554 96.861739 
L 344.476209 99.407869 
L 344.966878 103.512828 
L 345.457548 110.329033 
L 345.78466 118.17359 
L 345.948217 124.53747 
L 346.111773 135.566105 
L 346.27533 197.13159 
L 346.438886 134.970513 
L 346.765999 118.032951 
L 347.256668 107.644328 
L 347.747338 102.051931 
L 348.238007 98.625414 
L 348.728676 96.560274 
L 349.219345 95.527646 
L 349.546458 95.341565 
L 349.873571 95.542216 
L 350.200684 96.138769 
L 350.527797 97.161828 
L 351.018466 99.636548 
L 351.509135 103.636236 
L 351.999805 110.249625 
L 352.326917 117.761241 
L 352.65403 133.611547 
L 352.817587 166.879892 
L 353.1447 125.905929 
L 353.471812 114.628489 
L 353.962482 106.131025 
L 354.453151 101.278095 
L 354.94382 98.280669 
L 355.434489 96.522925 
L 355.761602 95.904238 
L 356.088715 95.684295 
L 356.415828 95.851196 
L 356.742941 96.412562 
L 357.070054 97.397146 
L 357.560723 99.801773 
L 358.051392 103.699079 
L 358.542062 110.118666 
L 358.869174 117.322187 
L 359.196287 131.893342 
L 359.359844 155.193461 
L 359.850513 120.402589 
L 360.341182 109.088914 
L 360.831851 103.168984 
L 361.322521 99.556939 
L 361.81319 97.359654 
L 362.303859 96.217824 
L 362.630972 95.964076 
L 362.958085 96.097399 
L 363.285198 96.623879 
L 363.612311 97.570451 
L 364.10298 99.906204 
L 364.593649 103.703832 
L 365.084319 109.937943 
L 365.411431 116.855374 
L 365.738544 130.344709 
L 365.902101 148.711425 
L 366.065657 145.622294 
L 366.39277 121.568063 
L 366.719883 112.691574 
L 367.210552 105.327076 
L 367.701221 100.97864 
L 368.191891 98.291204 
L 368.68256 96.763634 
L 369.009673 96.278035 
L 369.336786 96.18484 
L 369.663898 96.478918 
L 369.991011 97.174749 
L 370.481681 99.061312 
L 370.97235 102.221363 
L 371.463019 107.321313 
L 371.790132 112.638051 
L 372.117245 121.371908 
L 372.280801 128.919694 
L 372.607914 151.095465 
L 372.935027 122.732012 
L 373.26214 113.394903 
L 373.752809 105.788199 
L 374.243478 101.323745 
L 374.734148 98.561013 
L 375.224817 96.975081 
L 375.55193 96.454856 
L 375.879043 96.328273 
L 376.206155 96.588671 
L 376.533268 97.248937 
L 376.860381 98.344251 
L 377.35105 100.959067 
L 377.84172 105.182115 
L 378.332389 112.261675 
L 378.659502 120.589825 
L 378.823058 127.585221 
L 379.150171 159.252832 
L 379.477284 123.903922 
L 379.804397 114.058528 
L 380.295066 106.196738 
L 380.785735 101.612903 
L 381.276404 98.773616 
L 381.767074 97.128818 
L 382.094187 96.573846 
L 382.421299 96.413882 
L 382.748412 96.640722 
L 383.075525 97.26568 
L 383.402638 98.321977 
L 383.893307 100.864534 
L 384.383977 104.979118 
L 384.874646 111.843291 
L 385.201759 119.799436 
L 385.365315 126.316558 
L 385.528872 137.836873 
L 385.692428 176.602266 
L 385.855984 135.369476 
L 386.183097 118.995915 
L 386.673766 108.735366 
L 387.164436 103.171515 
L 387.655105 99.74878 
L 388.145774 97.678001 
L 388.636444 96.635716 
L 388.8 96.490538 
L 388.8 96.490538 
" clip-path="url(#pccc000ed76)" style="fill: none; stroke: #1f77b4; stroke-width: 1.5; stroke-linecap: square"/>
   </g>
   <g id="patch_3">
    <path d="M 54 252 
L 54 34.56 
" style="fill: none; stroke: #000000; stroke-width: 0.8; stroke-linejoin: miter; stroke-linecap: square"/>
   </g>
   <g id="patch_4">
    <path d="M 388.8 252 
L 388.8 34.56 
" style="fill: none; stroke: #000000; stroke-width: 0.8; stroke-linejoin: miter; stroke-linecap: square"/>
   </g>
   <g id="patch_5">
    <path d="M 54 252 
L 388.8 252 
" style="fill: none; stroke: #000000; stroke-width: 0.8; stroke-linejoin: miter; stroke-linecap: square"/>
   </g>
   <g id="patch_6">
    <path d="M 54 34.56 
L 388.8 34.56 
" style="fill: none; stroke: #000000; stroke-width: 0.8; stroke-linejoin: miter; stroke-linecap: square"/>
   </g>
   <g id="text_15">
    <!-- Respuesta en frecuencia de ventana rectangular -->
    <g transform="translate(75.19125 28.56)scale(0.12 -0.12)">
     <defs>
      <path id="DejaVuSans-52" d="M 2841 2188 
Q 3044 2119 3236 1894 
Q 3428 1669 3622 1275 
L 4263 0 
L 3584 0 
L 2988 1197 
Q 2756 1666 2539 1819 
Q 2322 1972 1947 1972 
L 1259 1972 
L 1259 0 
L 628 0 
L 628 4666 
L 2053 4666 
Q 2853 4666 3247 4331 
Q 3641 3997 3641 3322 
Q 3641 2881 3436 2590 
Q 3231 2300 2841 2188 
z
M 1259 4147 
L 1259 2491 
L 2053 2491 
Q 2509 2491 2742 2702 
Q 2975 2913 2975 3322 
Q 2975 3731 2742 3939 
Q 2509 4147 2053 4147 
L 1259 4147 
z
" transform="scale(0.015625)"/>
      <path id="DejaVuSans-66" d="M 2375 4863 
L 2375 4384 
L 1825 4384 
Q 1516 4384 1395 4259 
Q 1275 4134 1275 3809 
L 1275 3500 
L 2222 3500 
L 2222 3053 
L 1275 3053 
L 1275 0 
L 697 0 
L 697 3053 
L 147 3053 
L 147 3500 
L 697 3500 
L 697 3744 
Q 697 4328 969 4595 
Q 1241 4863 1831 4863 
L 2375 4863 
z
" transform="scale(0.015625)"/>
      <path id="DejaVuSans-76" d="M 191 3500 
L 800 3500 
L 1894 563 
L 2988 3500 
L 3597 3500 
L 2284 0 
L 1503 0 
L 191 3500 
z
" transform="scale(0.015625)"/>
     </defs>
     <use xlink:href="#DejaVuSans-52"/>
     <use xlink:href="#DejaVuSans-65" x="64.982422"/>
     <use xlink:href="#DejaVuSans-73" x="126.505859"/>
     <use xlink:href="#DejaVuSans-70" x="178.605469"/>
     <use xlink:href="#DejaVuSans-75" x="242.082031"/>
     <use xlink:href="#DejaVuSans-65" x="305.460938"/>
     <use xlink:href="#DejaVuSans-73" x="366.984375"/>
     <use xlink:href="#DejaVuSans-74" x="419.083984"/>
     <use xlink:href="#DejaVuSans-61" x="458.292969"/>
     <use xlink:href="#DejaVuSans-20" x="519.572266"/>
     <use xlink:href="#DejaVuSans-65" x="551.359375"/>
     <use xlink:href="#DejaVuSans-6e" x="612.882812"/>
     <use xlink:href="#DejaVuSans-20" x="676.261719"/>
     <use xlink:href="#DejaVuSans-66" x="708.048828"/>
     <use xlink:href="#DejaVuSans-72" x="743.253906"/>
     <use xlink:href="#DejaVuSans-65" x="782.117188"/>
     <use xlink:href="#DejaVuSans-63" x="843.640625"/>
     <use xlink:href="#DejaVuSans-75" x="898.621094"/>
     <use xlink:href="#DejaVuSans-65" x="962"/>
     <use xlink:href="#DejaVuSans-6e" x="1023.523438"/>
     <use xlink:href="#DejaVuSans-63" x="1086.902344"/>
     <use xlink:href="#DejaVuSans-69" x="1141.882812"/>
     <use xlink:href="#DejaVuSans-61" x="1169.666016"/>
     <use xlink:href="#DejaVuSans-20" x="1230.945312"/>
     <use xlink:href="#DejaVuSans-64" x="1262.732422"/>
     <use xlink:href="#DejaVuSans-65" x="1326.208984"/>
     <use xlink:href="#DejaVuSans-20" x="1387.732422"/>
     <use xlink:href="#DejaVuSans-76" x="1419.519531"/>
     <use xlink:href="#DejaVuSans-65" x="1478.699219"/>
     <use xlink:href="#DejaVuSans-6e" x="1540.222656"/>
     <use xlink:href="#DejaVuSans-74" x="1603.601562"/>
     <use xlink:href="#DejaVuSans-61" x="1642.810547"/>
     <use xlink:href="#DejaVuSans-6e" x="1704.089844"/>
     <use xlink:href="#DejaVuSans-61" x="1767.46875"/>
     <use xlink:href="#DejaVuSans-20" x="1828.748047"/>
     <use xlink:href="#DejaVuSans-72" x="1860.535156"/>
     <use xlink:href="#DejaVuSans-65" x="1899.398438"/>
     <use xlink:href="#DejaVuSans-63" x="1960.921875"/>
     <use xlink:href="#DejaVuSans-74" x="2015.902344"/>
     <use xlink:href="#DejaVuSans-61" x="2055.111328"/>
     <use xlink:href="#DejaVuSans-6e" x="2116.390625"/>
     <use xlink:href="#DejaVuSans-67" x="2179.769531"/>
     <use xlink:href="#DejaVuSans-75" x="2243.246094"/>
     <use xlink:href="#DejaVuSans-6c" x="2306.625"/>
     <use xlink:href="#DejaVuSans-61" x="2334.408203"/>
     <use xlink:href="#DejaVuSans-72" x="2395.6875"/>
    </g>
   </g>
  </g>
 </g>
 <defs>
  <clipPath id="pccc000ed76">
   <rect x="54" y="34.56" width="334.8" height="217.44"/>
  </clipPath>
 </defs>
</svg>
